<?xml version="1.0" encoding="UTF-8" standalone="no"?>
<!--
The lila Staunty pieces set from
https://github.com/ornicar/lila/tree/master/public/piece/staunty
modified by shaack (https://shaack.com) for the usage in cm-chessboard.
https://github.com/shaack/cm-chessboard

License: Attribution-NonCommercial-ShareAlike 4.0 International (CC BY-NC-SA 4.0)
https://creativecommons.org/licenses/by-nc-sa/4.0/

See also: https://github.com/ornicar/lila/blob/master/COPYING.md
-->
<svg xmlns="http://www.w3.org/2000/svg" width="40" height="40" viewBox="0 0 40 40">
    <title>cm-chessboard Staunty pieces and markers sprite</title>
    <g id="wk">
        <svg xmlns="http://www.w3.org/2000/svg" width="40" height="40" viewBox="0 0 64 64"><path fill="#fff" stroke="#000" stroke-miterlimit="10" stroke-width=".083" d="M24.285 7.139h15.542c-.005 3.863.024 7.726-.029 11.588 2.908-1.812 6.16-3.473 9.7-3.184 4.471.068 9.094 3.445 9.365 8.134.526 6.816-3.93 12.857-8.986 16.943-.306 4.251-.341 8.528-.812 12.765-1.002 2.188-3.596 3.083-5.754 3.723-5.648 1.266-11.503 1.03-17.246.79-3.808-.351-8.238-.843-10.826-4.009-.866-4.344-.6-8.886-1.018-13.307-4.978-3.829-8.983-9.634-9.125-16.076-.062-4.996 4.706-8.909 9.49-8.967 3.546-.272 6.808 1.375 9.73 3.19-.06-3.863-.028-7.726-.031-11.59z"/><path d="M24.293 7.147c.003 3.863-.037 7.726.023 11.589-2.922-1.815-6.196-3.466-9.741-3.194-4.784.058-9.552 3.97-9.49 8.965.143 6.443 4.147 12.254 9.125 16.083.419 4.421.16 8.956 1.027 13.3 2.588 3.166 7.028 3.665 10.836 4.015 5.742.24 11.598.468 17.246-.798 2.158-.64 4.746-1.53 5.748-3.718.471-4.237.493-8.524.799-12.775 5.055-4.086 9.514-10.11 8.988-16.927-.27-4.689-4.882-8.076-9.353-8.144-3.54-.29-6.787 1.381-9.696 3.193.054-3.862.018-7.726.023-11.589H24.293zm3.125 15.216c3.087.02 6.17.02 9.262 0-1.844 2.46-3.36 5.145-4.631 7.939-1.271-2.796-2.79-5.478-4.63-7.939z"/><g fill="#fff"><path stroke="#fff" stroke-miterlimit="10" stroke-width=".083" d="M27.474 9.461c3.052-.003 6.106-.003 9.163 0-1.528 1.454-3.056 2.904-4.584 4.354-1.528-1.45-3.058-2.9-4.579-4.354z"/><path d="M27.474 9.461c3.052-.003 6.106-.003 9.163 0-1.528 1.454-3.056 2.904-4.584 4.354-1.528-1.45-3.058-2.9-4.579-4.354z"/><path stroke="#fff" stroke-miterlimit="10" stroke-width=".083" d="m26.392 10.626 4.353 4.405c-1.452 1.478-2.904 2.955-4.353 4.433-.001-2.946-.003-5.892 0-8.838z"/><path d="m26.392 10.626 4.353 4.405c-1.452 1.478-2.904 2.955-4.353 4.433-.001-2.946-.003-5.892 0-8.838z"/><path stroke="#fff" stroke-miterlimit="10" stroke-width=".083" d="M33.362 15.029c1.45-1.47 2.903-2.939 4.357-4.408-.002 2.949-.002 5.897 0 8.846-1.454-1.48-2.907-2.958-4.357-4.438z"/><path d="M33.362 15.029c1.45-1.47 2.903-2.939 4.357-4.408-.002 2.949-.002 5.897 0 8.846-1.454-1.48-2.907-2.958-4.357-4.438z"/><path stroke="#fff" stroke-miterlimit="10" stroke-width=".083" d="M27.594 20.507c1.48-1.45 2.97-2.894 4.46-4.339l4.465 4.34c-2.978.003-5.952.003-8.925-.001z"/><path d="M27.594 20.507c1.48-1.45 2.97-2.894 4.46-4.339l4.465 4.34c-2.978.003-5.952.003-8.925-.001z"/><path stroke="#fff" stroke-miterlimit="10" stroke-width=".083" d="M7.452 26.223c-.581-3.352 1.621-6.94 4.887-7.905 3.96-1.161 8.353.21 11.31 2.995 3.935 3.602 6.04 8.662 7.642 13.642-5.533.217-11.254.716-16.185 3.466-3.624-3.21-7.057-7.208-7.654-12.198z"/><path d="M7.452 26.223c-.581-3.352 1.621-6.94 4.887-7.905 3.96-1.161 8.353.21 11.31 2.995 3.935 3.602 6.04 8.662 7.642 13.642-5.533.217-11.254.716-16.185 3.466-3.624-3.21-7.057-7.208-7.654-12.198z"/><path stroke="#fff" stroke-miterlimit="10" stroke-width=".083" d="M40.47 21.301c2.914-2.736 7.212-4.104 11.128-3.028 3.326.909 5.599 4.514 5.069 7.91-.508 5.03-4.004 9.03-7.645 12.232-4.975-2.65-10.672-3.22-16.208-3.463 1.603-4.982 3.708-10.051 7.656-13.651z"/><path d="M40.47 21.301c2.914-2.736 7.212-4.104 11.128-3.028 3.326.909 5.599 4.514 5.069 7.91-.508 5.03-4.004 9.03-7.645 12.232-4.975-2.65-10.672-3.22-16.208-3.463 1.603-4.982 3.708-10.051 7.656-13.651z"/><path stroke="#fff" stroke-miterlimit="10" stroke-width=".083" d="M16.571 40.377c9.727-4.2 21.236-4.2 30.965-.002-.09 1.292-.175 2.583-.256 3.875l-3.384.007c.936 1.095 1.882 2.188 2.823 3.285l.106 2.688c-4.415-2.708-9.732-2.923-14.763-2.957-5.037.033-10.356.248-14.775 2.952l.106-2.686a860.11 860.11 0 0 1 2.82-3.282l-3.383-.007c-.09-1.291-.178-2.582-.26-3.873z"/><path d="M16.571 40.377c9.727-4.2 21.236-4.2 30.965-.002-.09 1.292-.175 2.583-.256 3.875l-3.384.007c.936 1.095 1.882 2.188 2.823 3.285l.106 2.688c-4.415-2.708-9.732-2.923-14.763-2.957-5.037.033-10.356.248-14.775 2.952l.106-2.686a860.11 860.11 0 0 1 2.82-3.282l-3.383-.007c-.09-1.291-.178-2.582-.26-3.873z"/><path stroke="#000" stroke-miterlimit="10" stroke-width=".083" d="M29.765 41.275c1.983-.405 5.018-.868 6.046 1.4-1.757 1.81-4.68 1.482-6.857.728-.733-1.167-.462-1.876.81-2.128z"/></g><path d="M29.765 41.275c1.983-.405 5.018-.868 6.046 1.4-1.757 1.81-4.68 1.482-6.857.728-.733-1.167-.462-1.876.81-2.128z"/><path fill="#fff" stroke="#fff" stroke-miterlimit="10" stroke-width=".083" d="M24.211 49.997c6.327-.857 12.843-.79 19.077.673 1.289.423 3.246.924 2.824 2.701-1.87 1.486-4.31 1.817-6.594 2.156a53.81 53.81 0 0 1-16.76-.288c-1.685-.307-3.4-.773-4.76-1.86-.093-2.986 4.093-2.806 6.213-3.382z"/><path fill="#fff" d="M24.211 49.997c6.327-.857 12.843-.79 19.077.673 1.289.423 3.246.924 2.824 2.701-1.87 1.486-4.31 1.817-6.594 2.156a53.81 53.81 0 0 1-16.76-.288c-1.685-.307-3.4-.773-4.76-1.86-.093-2.986 4.093-2.806 6.213-3.382z"/></svg>
    </g>
    <g id="wq">
        <svg xmlns="http://www.w3.org/2000/svg" width="40" height="40" viewBox="0 0 64 64"><path fill="#fff" stroke="#000" stroke-miterlimit="10" stroke-width=".084" d="M19.71 10.503c.249-3.432 5.256-4.546 7.138-1.795 1.28 1.526.42 3.482-.159 5.095 1.695 3.514 3.439 7.004 5.166 10.502 1.836-3.518 3.664-7.041 5.506-10.558-.543-1.497-1.434-3.2-.428-4.726 1.696-3.087 7.21-2.153 7.432 1.49.373 1.984-1.316 3.245-2.638 4.347a10176.84 10176.84 0 0 0 3.805 15.572c2.434-1.877 4.883-3.737 7.296-5.646-.015-1.612-.332-3.677 1.342-4.625 2.096-1.568 5.414.326 5.124 2.929.085 2.014-1.959 2.772-3.414 3.543-1.95 4.308-4.085 8.545-5.817 12.944-.754 4.815-.93 9.708-1.532 14.547-6.44 4.013-14.336 4.308-21.688 3.749-4.018-.277-8.042-1.323-11.35-3.695-.702-4.864-.993-9.79-1.853-14.625-1.655-4.4-3.678-8.655-5.55-12.965-1.464-.718-3.422-1.486-3.379-3.452-.36-2.806 3.419-4.686 5.444-2.724 1.447 1.013.966 2.87.935 4.353 2.365 1.884 4.722 3.78 7.084 5.67 1.368-5.203 2.747-10.402 4.106-15.606-1.322-1.09-2.946-2.366-2.57-4.322z"/><path d="M19.71 10.503c.249-3.432 5.256-4.546 7.138-1.795 1.28 1.526.42 3.482-.159 5.095 1.695 3.514 3.439 7.004 5.166 10.502 1.836-3.518 3.664-7.041 5.506-10.558-.543-1.497-1.434-3.2-.428-4.726 1.696-3.087 7.21-2.153 7.432 1.49.373 1.984-1.316 3.245-2.638 4.347a10176.84 10176.84 0 0 0 3.805 15.572c2.434-1.877 4.883-3.737 7.296-5.646-.015-1.612-.332-3.677 1.342-4.625 2.096-1.568 5.414.326 5.124 2.929.085 2.014-1.959 2.772-3.414 3.543-1.95 4.308-4.085 8.545-5.817 12.944-.754 4.815-.93 9.708-1.532 14.547-6.44 4.013-14.336 4.308-21.688 3.749-4.018-.277-8.042-1.323-11.35-3.695-.702-4.864-.993-9.79-1.853-14.625-1.655-4.4-3.678-8.655-5.55-12.965-1.464-.718-3.422-1.486-3.379-3.452-.36-2.806 3.419-4.686 5.444-2.724 1.447 1.013.966 2.87.935 4.353 2.365 1.884 4.722 3.78 7.084 5.67 1.368-5.203 2.747-10.402 4.106-15.606-1.322-1.09-2.946-2.366-2.57-4.322z"/><g fill="#fff"><path stroke="#fff" stroke-miterlimit="10" stroke-width=".084" d="M22.953 9.102c2.652-1.303 3.951 3.45 1.208 3.822-2.453.764-3.504-3.007-1.208-3.822z"/><path d="M22.953 9.102c2.652-1.303 3.951 3.45 1.208 3.822-2.453.764-3.504-3.007-1.208-3.822z"/><path stroke="#fff" stroke-miterlimit="10" stroke-width=".084" d="M39.082 9.307c1.448-.93 3.778.003 3.354 1.93-.028 1.774-2.208 2.088-3.468 1.35-.64-.97-.814-2.426.114-3.28z"/><path d="M39.082 9.307c1.448-.93 3.778.003 3.354 1.93-.028 1.774-2.208 2.088-3.468 1.35-.64-.97-.814-2.426.114-3.28z"/><path stroke="#fff" stroke-miterlimit="10" stroke-width=".084" d="M19.148 33.707c2.034-6.409 3.064-13.175 5.822-19.326 2.45 4.613 4.572 9.39 6.884 14.072 2.334-4.651 4.528-9.374 6.968-13.973 1.044 1.094 1.508 2.526 1.857 3.96 1.276 5.097 2.601 10.181 3.916 15.268 3.107-2.438 6.211-4.882 9.322-7.319-1.826 3.903-3.69 7.787-5.508 11.693-10.504-4.317-22.581-4.14-33.107.006-1.876-4.11-3.787-8.205-5.67-12.312 3.176 2.638 6.343 5.288 9.516 7.932z"/><path d="M19.148 33.707c2.034-6.409 3.064-13.175 5.822-19.326 2.45 4.613 4.572 9.39 6.884 14.072 2.334-4.651 4.528-9.374 6.968-13.973 1.044 1.094 1.508 2.526 1.857 3.96 1.276 5.097 2.601 10.181 3.916 15.268 3.107-2.438 6.211-4.882 9.322-7.319-1.826 3.903-3.69 7.787-5.508 11.693-10.504-4.317-22.581-4.14-33.107.006-1.876-4.11-3.787-8.205-5.67-12.312 3.176 2.638 6.343 5.288 9.516 7.932z"/><path stroke="#fff" stroke-miterlimit="10" stroke-width=".084" d="M6.694 21.614c1.97-1.006 3.354.602 2.599 2.478-1.822 1.328-3.814-.634-2.599-2.478z"/><path d="M6.694 21.614c1.97-1.006 3.354.602 2.599 2.478-1.822 1.328-3.814-.634-2.599-2.478z"/><path stroke="#fff" stroke-miterlimit="10" stroke-width=".084" d="M54.458 24.599c.043-1.191-.242-3.512 1.719-3.022 1.137-.351 1.452 1.221 1.297 2.002-.124 1.454-2.119.734-3.016 1.02z"/><path d="M54.458 24.599c.043-1.191-.242-3.512 1.719-3.022 1.137-.351 1.452 1.221 1.297 2.002-.124 1.454-2.119.734-3.016 1.02z"/><path stroke="#fff" stroke-miterlimit="10" stroke-width=".084" d="M16.211 40.134c9.802-4.358 21.513-4.375 31.312.001-.1 1.323-.198 2.646-.292 3.97-1.143.001-2.282.004-3.417.008.98 1.11 1.97 2.22 2.955 3.333l.046 2.852c-3.072-1.495-6.42-2.34-9.823-2.58-6.735-.532-13.886-.59-20.049 2.576l.028-2.84c.984-1.116 1.969-2.228 2.959-3.342a2364.93 2364.93 0 0 0-3.457-.007c-.09-1.324-.179-2.648-.263-3.971z"/><path d="M16.211 40.134c9.802-4.358 21.513-4.375 31.312.001-.1 1.323-.198 2.646-.292 3.97-1.143.001-2.282.004-3.417.008.98 1.11 1.97 2.22 2.955 3.333l.046 2.852c-3.072-1.495-6.42-2.34-9.823-2.58-6.735-.532-13.886-.59-20.049 2.576l.028-2.84c.984-1.116 1.969-2.228 2.959-3.342a2364.93 2364.93 0 0 0-3.457-.007c-.09-1.324-.179-2.648-.263-3.971z"/><path stroke="#000" stroke-miterlimit="10" stroke-width=".084" d="M29.65 41.316c1.83-.483 3.811-.33 5.569.372.465 2.173-1.92 2.021-3.389 2.101-1.458-.076-3.782.04-3.33-2.092l1.15-.381z"/></g><path d="M29.65 41.316c1.83-.483 3.811-.33 5.569.372.465 2.173-1.92 2.021-3.389 2.101-1.458-.076-3.782.04-3.33-2.092l1.15-.381z"/><path fill="#fff" stroke="#fff" stroke-miterlimit="10" stroke-width=".084" d="M23.877 49.921c5.743-.852 11.621-.792 17.337.246 1.647.34 3.414.705 4.703 1.877.775 1.76-1.465 2.316-2.696 2.761-7.425 1.737-15.294 1.722-22.724.025-1.282-.461-3.623-1.002-2.763-2.834 1.717-1.42 4.02-1.704 6.142-2.075z"/><path fill="#fff" d="M23.877 49.921c5.743-.852 11.621-.792 17.337.246 1.647.34 3.414.705 4.703 1.877.775 1.76-1.465 2.316-2.696 2.761-7.425 1.737-15.294 1.722-22.724.025-1.282-.461-3.623-1.002-2.763-2.834 1.717-1.42 4.02-1.704 6.142-2.075z"/></svg>
    </g>
    <g id="wb">
        <svg xmlns="http://www.w3.org/2000/svg" width="40" height="40" viewBox="0 0 64 64"><path stroke="#000" stroke-miterlimit="10" stroke-width=".08" d="M25.14 8.7c1.263-2.2 4.93-1.866 5.764.542.712 1.59-.59 3.014-1.15 4.415.815.774 1.634 1.547 2.456 2.32.866-.894 1.729-1.794 2.589-2.697-.362-1.403-1.526-2.954-.616-4.38 1.053-2.117 4.475-2.294 5.642-.187 1.078 1.441-.033 3.103-.452 4.556 2.559 3.426 4.968 7.093 6.059 11.279 1.431 5.218.535 10.778-1.245 15.795-1.301 3.125-.785 6.589-1.388 9.86 4.517-.569 9.693-1.567 13.762 1.083 2.252 1.506 2.014 4.438 1.959 6.801h-.91c-6.154-1.792-12.601-1.35-18.92-1.192-3.196-4.126-10.023-4.089-13.233 0-6.304-.15-12.745-.607-18.88 1.192h-1.13c.165-2.355-.103-5.295 2.143-6.797 4.067-2.65 9.243-1.659 13.76-1.088a53.769 53.769 0 0 1-.545-7.648c-2.351-4.264-4.44-9.134-3.493-14.103 1.168-5.659 4.844-10.32 8.327-14.762-.382-1.593-1.602-3.417-.498-4.99z"/><path d="M25.14 8.7c1.263-2.2 4.93-1.866 5.764.542.712 1.59-.59 3.014-1.15 4.415.815.774 1.634 1.547 2.456 2.32.866-.894 1.729-1.794 2.589-2.697-.362-1.403-1.526-2.954-.616-4.38 1.053-2.117 4.475-2.294 5.642-.187 1.078 1.441-.033 3.103-.452 4.556 2.559 3.426 4.968 7.093 6.059 11.279 1.431 5.218.535 10.778-1.245 15.795-1.301 3.125-.785 6.589-1.388 9.86 4.517-.569 9.693-1.567 13.762 1.083 2.252 1.506 2.014 4.438 1.959 6.801h-.91c-6.154-1.792-12.601-1.35-18.92-1.192-3.196-4.126-10.023-4.089-13.233 0-6.304-.15-12.745-.607-18.88 1.192h-1.13c.165-2.355-.103-5.295 2.143-6.797 4.067-2.65 9.243-1.659 13.76-1.088a53.769 53.769 0 0 1-.545-7.648c-2.351-4.264-4.44-9.134-3.493-14.103 1.168-5.659 4.844-10.32 8.327-14.762-.382-1.593-1.602-3.417-.498-4.99z"/><g fill="#fff"><path stroke="#fff" stroke-miterlimit="10" stroke-width=".08" d="M26.607 9.475c.864-.77 2.566-.755 2.45.741.063 2.25-3.36 1.295-2.45-.741z"/><path d="M26.607 9.475c.864-.77 2.566-.755 2.45.741.063 2.25-3.36 1.295-2.45-.741z"/><path stroke="#fff" stroke-miterlimit="10" stroke-width=".08" d="M35.855 9.679c1.34-1.938 2.892.186 2.436 1.79-1.27.129-2.915-.133-2.436-1.79z"/><path d="M35.855 9.679c1.34-1.938 2.892.186 2.436 1.79-1.27.129-2.915-.133-2.436-1.79z"/><path stroke="#fff" stroke-miterlimit="10" stroke-width=".08" d="M33.31 17.793a434.055 434.055 0 0 0 3.808-4.027c2.804 4.02 5.658 8.236 6.557 13.152.664 3.33.205 6.748-.64 10-.805-7.353-4.567-13.948-9.725-19.126z"/><path d="M33.31 17.793a434.055 434.055 0 0 0 3.808-4.027c2.804 4.02 5.658 8.236 6.557 13.152.664 3.33.205 6.748-.64 10-.805-7.353-4.567-13.948-9.725-19.126z"/><path stroke="#fff" stroke-miterlimit="10" stroke-width=".08" d="M27.731 14.43c5.166 5.063 9.924 10.837 12.496 17.677.988 2.449.917 5.139.216 7.65-5.768-2.17-12.29-2.093-18.09-.072-2.38-2.88-3.992-6.676-2.983-10.446 1.418-5.533 4.184-10.853 8.36-14.809z"/><path d="M27.731 14.43c5.166 5.063 9.924 10.837 12.496 17.677.988 2.449.917 5.139.216 7.65-5.768-2.17-12.29-2.093-18.09-.072-2.38-2.88-3.992-6.676-2.983-10.446 1.418-5.533 4.184-10.853 8.36-14.809z"/><path stroke="#fff" stroke-miterlimit="10" stroke-width=".08" d="M23.037 42.009c4.02-2.105 8.788-1.695 13.167-1.438 1.726.358 4.214.248 4.988 2.19l-1.365 1.736c.728 1.053 1.109 2.27 1.448 3.493a52.158 52.158 0 0 0-18.402 0c.33-1.212.71-2.417 1.433-3.46a4.483 4.483 0 0 1-1.27-2.521z"/><path d="M23.037 42.009c4.02-2.105 8.788-1.695 13.167-1.438 1.726.358 4.214.248 4.988 2.19l-1.365 1.736c.728 1.053 1.109 2.27 1.448 3.493a52.158 52.158 0 0 0-18.402 0c.33-1.212.71-2.417 1.433-3.46a4.483 4.483 0 0 1-1.27-2.521z"/><path stroke="#000" stroke-miterlimit="10" stroke-width=".08" d="M30.711 43.135c1.269-.483 3.176-.436 3.531 1.173-1.292.825-2.901.802-4.248.128l.717-1.301z"/></g><path d="M30.711 43.135c1.269-.483 3.176-.436 3.531 1.173-1.292.825-2.901.802-4.248.128l.717-1.301z"/><g fill="#fff"><path stroke="#fff" stroke-miterlimit="10" stroke-width=".08" d="M23.838 50.124c5.244-1.734 11.225-1.736 16.468.003-2.24 2.049-5.433 1.638-8.225 1.762-2.8-.123-6.003.291-8.243-1.765z"/><path d="M23.838 50.124c5.244-1.734 11.225-1.736 16.468.003-2.24 2.049-5.433 1.638-8.225 1.762-2.8-.123-6.003.291-8.243-1.765z"/><path stroke="#fff" stroke-miterlimit="10" stroke-width=".08" d="M6.878 55.331c.638-1.976 2.218-3.42 4.327-3.542 5.592-.676 11.268.3 16.693 1.652-6.714 2.377-14.024 1.563-21.02 1.89z"/><path d="M6.878 55.331c.638-1.976 2.218-3.42 4.327-3.542 5.592-.676 11.268.3 16.693 1.652-6.714 2.377-14.024 1.563-21.02 1.89z"/><path stroke="#fff" stroke-miterlimit="10" stroke-width=".08" d="M36.255 53.428c5.655-1.339 11.597-2.482 17.397-1.493 1.888.2 2.956 1.77 3.623 3.395-6.994-.336-14.318.51-21.02-1.902z"/><path d="M36.255 53.428c5.655-1.339 11.597-2.482 17.397-1.493 1.888.2 2.956 1.77 3.623 3.395-6.994-.336-14.318.51-21.02-1.902z"/></g></svg>
    </g>
    <g id="wn">
        <svg xmlns="http://www.w3.org/2000/svg" width="40" height="40" viewBox="0 0 64 64"><path fill="#fff" stroke="#000" stroke-miterlimit="10" stroke-width=".08" d="M21.47 14.004a26.241 26.241 0 0 1 1.87-6.597C24.815 9.2 26.286 11 27.89 12.684c8.005-.284 15.866 3.583 20.508 10.104 7.175 10.015 10.034 23.333 6.707 35.29-11.087.005-22.174-.015-33.261.01-2.284-2.119-3.115-5.79-.922-8.284 3.394-3.563 7.892-6.156 10.263-10.634-2.58.278-5.174.469-7.767.266-1.592 2.543-3.583 5.919-7.047 5.674-2.319-.291-4.88.445-6.95-.949-2.038-1.24-2.162-4.037-1.66-6.12 1.233-4.566 6.317-6.808 7.388-11.455.404-2.211 2.08-3.758 3.607-5.258-.474-3.382-.87-6.78-.894-10.2 1.212.947 2.417 1.903 3.608 2.877z"/><path d="M21.47 14.004a26.241 26.241 0 0 1 1.87-6.597C24.815 9.2 26.286 11 27.89 12.684c8.005-.284 15.866 3.583 20.508 10.104 7.175 10.015 10.034 23.333 6.707 35.29-11.087.005-22.174-.015-33.261.01-2.284-2.119-3.115-5.79-.922-8.284 3.394-3.563 7.892-6.156 10.263-10.634-2.58.278-5.174.469-7.767.266-1.592 2.543-3.583 5.919-7.047 5.674-2.319-.291-4.88.445-6.95-.949-2.038-1.24-2.162-4.037-1.66-6.12 1.233-4.566 6.317-6.808 7.388-11.455.404-2.211 2.08-3.758 3.607-5.258-.474-3.382-.87-6.78-.894-10.2 1.212.947 2.417 1.903 3.608 2.877z"/><g fill="#fff"><path d="M23.667 12.35c1.642 1.26 3.25 2.565 4.97 3.721l4.156-.861 1.01 1.961 2.966-.715 1.057 2.259c.221.473 1.439-.278 1.918-.37l.793 2.545 3.388.461c.199 1.09.4 2.179.6 3.269l3.508.554c-.283 1.126-.565 2.251-.845 3.377 1.285.823 2.57 1.645 3.858 2.467-.501 1.256-1.004 2.513-1.504 3.77 1.347.905 2.695 1.809 4.045 2.713-.703 1.207-1.407 2.412-2.109 3.62.907.947 1.815 1.894 2.725 2.841l-2.489 4.063c.77.82 1.54 1.64 2.313 2.46l-1.506 5.438c-10.267-.386-20.543-.23-30.815-.256-.214-1.337-.905-2.988.27-4.086 3.346-3.05 7.272-5.64 9.667-9.591 1.264-2.037 1.723-4.417 2.319-6.704-4.041 2.807-8.349 2.38-12.874 1.535 1.4 3.436-1.88 5.52-5.04 6.272l.052-3.035a100.977 100.977 0 0 0-3.713 2.98c-2.499-.92-3.092-3.893-1.856-6.079 1.623-2.347 4.109-4.036 5.413-6.616.807-2.092 1.162-4.44 2.71-6.168 1.513-1.721 2.707-3.676 3.8-5.682 1.179.738 2.358 1.479 3.579 2.148-.723-2.86-3.446-5.107-2.366-8.291z"/><path stroke="#fff" stroke-miterlimit="10" stroke-width=".08" d="M19.828 15.539c1.638-.778 2.365.917 2.272 2.274-1.523 1.577-3.217-.756-2.272-2.274z"/><path d="M19.828 15.539c1.638-.778 2.365.917 2.272 2.274-1.523 1.577-3.217-.756-2.272-2.274z"/></g><path d="M22.012 26.511c1.508-1.36 3.895.228 5.696.767-1.992 1.115-4.852 3.036-6.449 2.075-.646-.39.061-2.218.753-2.842z"/><path fill="#fff" stroke="#000" stroke-miterlimit="10" stroke-width=".08" d="M12.64 37.995c.678-.644 2.707-.154 1.73.965-.903 1.541-3.906.218-1.73-.965z"/><path d="M12.64 37.995c.678-.644 2.707-.154 1.73.965-.903 1.541-3.906.218-1.73-.965z"/></svg>
    </g>
    <g id="wr">
        <svg xmlns="http://www.w3.org/2000/svg" width="40" height="40" viewBox="0 0 64 64"><path d="M15.039 10.785h6.315a1935.66 1935.66 0 0 0 0 4.737h6.316c-.002-1.58-.002-3.158 0-4.737h8.795c-.002 1.579-.002 3.157 0 4.736l6.204.001c-.002-1.58-.003-3.158 0-4.737h6.315c-.002 3.178-.002 6.355 0 9.533a4452.274 4452.274 0 0 0-3.95 4.433c.007 6.29-.004 12.58.006 18.868 2.481 2.78 3.56 5.563 6.29 8.072v6.458l-38.66.001.001-6.438c3.098-1.939 3.623-5.764 6.31-8.108.012-6.239 0-12.477.006-18.716-1.319-1.47-2.635-2.94-3.95-4.41.003-3.23.002-6.461.002-9.692z"/><g fill="#fff"><path d="m17.408 13.152 2.034.003c-.002 1.578-.003 3.156-.001 4.734h10.597c-.002-1.578-.002-3.157 0-4.736h4.204c-.002 1.579-.002 3.157 0 4.736h10.794c-.002-1.578-.002-3.157 0-4.736h1.58c-.002 2.255-.002 4.51-.003 6.766-1.31 1.164-2.616 2.33-3.922 3.497H19.775c-.791-.882-1.581-1.765-2.368-2.647-.001-2.539-.003-5.078 0-7.617zM21.354 25.784h21.314v16.578H21.354V25.784zM20.814 44.719c7.479.024 14.957.008 22.437.009 2.32 2.19 3.343 4.804 5.732 6.984-.003 1.356-.002 2.713.002 4.07H15.038c0-1.357 0-2.713.003-4.068 2.767-1.678 3.345-5.008 5.774-6.995z"/></g></svg>
    </g>
    <g id="wp">
        <svg xmlns="http://www.w3.org/2000/svg" width="40" height="40" viewBox="0 0 64 64"><path fill="#fff" stroke="#000" stroke-miterlimit="10" stroke-width=".079" d="M27.705 14.724c1.713-2.966 6.33-3.243 8.352-.46 1.76 1.896.924 4.548.397 6.754 2.81 1.343 6.1 1.892 8.429 4.086 1.716 1.526 1.91 3.928 2.27 6.046-3.623.122-7.248.057-10.871.082.023 2.053.191 4.139 1.276 5.941 1.739 3.38 3.078 7.72.465 11.044l-.087 1.829c3.2.267 6.77.444 9.267 2.736 1.537 1.287 1.805 3.368 2.265 5.193-11.193.163-22.39.027-33.583.072v-4.12c2.48-3.111 6.587-3.67 10.296-3.887l.064-1.75c-.73-1.397-1.83-2.772-1.677-4.448-.006-4.506 3.784-8.027 3.267-12.61-3.57-.022-7.14.027-10.708-.062.487-2.58 1.35-5.347 3.631-6.904 2.197-1.462 4.694-2.39 6.992-3.679-.477-1.892-1.39-4.094-.045-5.863z"/><path d="M27.705 14.724c1.713-2.966 6.33-3.243 8.352-.46 1.76 1.896.924 4.548.397 6.754 2.81 1.343 6.1 1.892 8.429 4.086 1.716 1.526 1.91 3.928 2.27 6.046-3.623.122-7.248.057-10.871.082.023 2.053.191 4.139 1.276 5.941 1.739 3.38 3.078 7.72.465 11.044l-.087 1.829c3.2.267 7.246.508 9.267 2.736 2.048 2.26 1.805 3.368 2.265 5.193-11.193.163-23.804.13-34.998.174.288-1.743.199-1.732 1.426-4.378 1.216-2.623 6.576-3.515 10.286-3.731l.064-1.75c-.73-1.397-1.831-2.772-1.677-4.447-.006-4.506 3.784-8.027 3.267-12.61-3.57-.022-7.14.028-10.708-.061.487-2.58 1.35-5.348 3.63-6.904 2.198-1.462 4.695-2.39 6.992-3.68-.476-1.892-1.389-4.093-.045-5.863z"/><g fill="#fff"><path stroke="#fff" stroke-miterlimit="10" stroke-width=".079" d="M30.597 20.878c-1.966-1.965-1.742-6.53 1.782-6.211 3.093.41 2.726 4.23 1.323 6.164 2.98 3.652 9.248 2.957 10.876 7.882-8.258.238-16.538.232-24.796 0 1.718-4.852 7.814-4.26 10.815-7.835z"/><path d="M30.597 20.878c-1.966-1.965-1.742-6.53 1.782-6.211 3.093.41 2.726 4.23 1.323 6.164 2.98 3.652 9.248 2.957 10.876 7.882-8.258.238-16.538.232-24.796 0 1.718-4.852 7.814-4.26 10.815-7.835z"/><path stroke="#fff" stroke-miterlimit="10" stroke-width=".079" d="M30.127 31.223h3.862c-.935 4.856 3.483 8.492 3.155 13.27-.037 1.197-.766 2.186-1.322 3.191.213 1.351.429 2.702.642 4.055 3.54.243 8.023.23 9.934 3.845-9.596.142-19.204.194-28.798-.027 2.074-3.56 6.578-3.573 10.188-3.817.224-1.373.451-2.746.683-4.118-.821-1.127-1.82-2.288-1.714-3.786-.073-4.568 4.37-7.9 3.37-12.613z"/><path d="M30.127 31.223h3.862c-.935 4.856 3.483 8.492 3.155 13.27-.037 1.197-.766 2.186-1.322 3.191.213 1.351.429 2.702.642 4.055 3.54.243 8.023.23 9.934 3.845-9.596.142-19.204.194-28.798-.027 2.074-3.56 6.578-3.573 10.188-3.817.224-1.373.451-2.746.683-4.118-.821-1.127-1.82-2.288-1.714-3.786-.073-4.568 4.37-7.9 3.37-12.613z"/></g></svg>
    </g>
    <g id="bk">
        <svg xmlns="http://www.w3.org/2000/svg" width="40" height="40" viewBox="0 0 64 64"><path fill="#fff" stroke="#000" stroke-miterlimit="10" stroke-width=".092" d="M24.251 7.212c5.18-.003 10.361-.004 15.543 0V18.81c3.021-1.938 6.483-3.592 10.18-3.17 4.65.228 9.001 4.205 8.937 8.997-.052 6.46-4.23 12.08-9.06 16.001-.29 4.412-.52 8.827-.77 13.241-4.123 4.066-10.269 4.083-15.67 4.2-5.04-.059-10.313.186-15.053-1.804-1.454-.735-3.349-1.72-3.425-3.568-.366-4.02-.449-8.063-.747-12.089-4.91-3.827-8.893-9.555-9.096-15.94-.126-4.85 4.354-8.797 9.01-9.046 3.683-.388 7.134 1.252 10.15 3.182 0-3.867-.003-7.734 0-11.601z"/><path d="M24.247 7.21c-.003 3.867-.001 7.745 0 11.612-3.017-1.93-6.47-3.582-10.152-3.194-4.656.25-9.136 4.207-9.01 9.057.203 6.384 4.191 12.097 9.101 15.923.298 4.026.387 8.07.753 12.09.076 1.848 1.969 2.848 3.422 3.582 4.74 1.991 10.017 1.745 15.056 1.803 5.402-.116 11.55-.132 15.672-4.198.25-4.414.462-8.843.753-13.254 4.828-3.922 9.027-9.533 9.08-15.992.064-4.792-4.295-8.76-8.943-8.988-3.698-.422-7.153 1.233-10.174 3.17V7.21c-5.182-.004-10.378-.003-15.558 0zm7.414 14.577c1.7-.142 3.564 1.006 3.604 2.829.378 2.69-3.305 4.291-5.27 2.646-1.698-1.048-1.632-3.884.092-4.882a2.927 2.927 0 0 1 1.574-.593z"/><g fill="#fff"><path stroke="#fff" stroke-miterlimit="10" stroke-width=".092" d="M26.188 10.652c.607-.77 1.218-1.54 1.833-2.308 1.354 1.124 2.68 2.28 3.998 3.45a150.588 150.588 0 0 1 4.005-3.45l1.83 2.307c-1.155 1.05-2.314 2.095-3.468 3.14A309.778 309.778 0 0 1 38 17.13l-1.917 2.202a236.423 236.423 0 0 1-4.057-3.476 311.92 311.92 0 0 1-4.067 3.472l-1.916-2.197a226.956 226.956 0 0 1 3.615-3.337 802.264 802.264 0 0 1-3.47-3.141z"/><path d="M26.188 10.652c.607-.77 1.218-1.54 1.833-2.308 1.354 1.124 2.68 2.28 3.998 3.45a150.588 150.588 0 0 1 4.005-3.45l1.83 2.307c-1.155 1.05-2.314 2.095-3.468 3.14A309.778 309.778 0 0 1 38 17.13l-1.917 2.202a236.423 236.423 0 0 1-4.057-3.476 311.92 311.92 0 0 1-4.067 3.472l-1.916-2.197a226.956 226.956 0 0 1 3.615-3.337 802.264 802.264 0 0 1-3.47-3.141z"/><path stroke="#fff" stroke-miterlimit="10" stroke-width=".092" d="M11.969 27.425c.126-3.697 4.744-4.708 7.595-3.504 5.288 1.688 7.904 7.064 9.747 11.873 1.823-.02 3.649-.038 5.476-.071 1.748-4.83 4.564-9.967 9.686-11.798 2.837-1.233 7.477-.182 7.599 3.504-.15 4.123-2.707 7.655-5.808 10.171.767 1.103 1.309 2.308 1.263 3.687-4.68-.989-9.33-2.303-14.147-2.395-5.731-.305-11.315 1.159-16.854 2.394-.061-1.38.464-2.586 1.273-3.671-3.127-2.506-5.71-6.047-5.83-10.19z"/><path d="M11.969 27.425c.126-3.697 4.744-4.708 7.595-3.504 5.288 1.688 7.904 7.064 9.747 11.873 1.823-.02 3.649-.038 5.476-.071 1.748-4.83 4.564-9.967 9.686-11.798 2.837-1.233 7.477-.182 7.599 3.504-.15 4.123-2.707 7.655-5.808 10.171.767 1.103 1.309 2.308 1.263 3.687-4.68-.989-9.33-2.303-14.147-2.395-5.731-.305-11.315 1.159-16.854 2.394-.061-1.38.464-2.586 1.273-3.671-3.127-2.506-5.71-6.047-5.83-10.19z"/><path stroke="#000" stroke-miterlimit="10" stroke-width=".092" d="M15.989 29.201c-.217-1.578 1.256-2.22 2.573-1.696 3.86.964 5.613 4.975 7.089 8.27-1.542.255-3.085.5-4.627.726-1.792-2.336-4.088-4.442-5.035-7.3z"/></g><path d="M15.989 29.201c-.217-1.578 1.256-2.22 2.573-1.696 3.86.964 5.613 4.975 7.089 8.27-1.542.255-3.085.5-4.627.726-1.792-2.336-4.088-4.442-5.035-7.3z"/><path fill="#fff" stroke="#000" stroke-miterlimit="10" stroke-width=".092" d="M38.389 35.757c1.512-3.486 3.454-8.017 7.811-8.4 1.558-.47 2.242 1.418 1.615 2.548-1.14 2.51-3.137 4.484-4.842 6.609-1.533-.24-3.058-.504-4.584-.757z"/><path d="M38.389 35.757c1.512-3.486 3.454-8.017 7.811-8.4 1.558-.47 2.242 1.418 1.615 2.548-1.14 2.51-3.137 4.484-4.842 6.609-1.533-.24-3.058-.504-4.584-.757z"/><g fill="#fff"><path stroke="#fff" stroke-miterlimit="10" stroke-width=".092" d="M29.166 42.43c1.665-1.096 3.97-1.081 5.667-.052 1.517 3.42-6.988 3.483-5.667.052z"/><path d="M29.166 42.43c1.665-1.096 3.97-1.081 5.667-.052 1.517 3.42-6.988 3.483-5.667.052z"/><path stroke="#fff" stroke-miterlimit="10" stroke-width=".092" d="M16.688 46.62c.316-2.401 2.78-2.197 4.557-1.972-1.118 1.446-2.805 1.93-4.557 1.972z"/><path d="M16.688 46.62c.316-2.401 2.78-2.197 4.557-1.972-1.118 1.446-2.805 1.93-4.557 1.972z"/><path stroke="#fff" stroke-miterlimit="10" stroke-width=".092" d="M42.913 45.581c1.271-1.825 4.445-1.298 4.234 1.231a49.467 49.467 0 0 1-4.234-1.231z"/><path d="M42.913 45.581c1.271-1.825 4.445-1.298 4.234 1.231a49.467 49.467 0 0 1-4.234-1.231z"/><path stroke="#fff" stroke-miterlimit="10" stroke-width=".092" d="M17.384 50.302c3.718-2.164 8.213-1.91 12.363-2.222 5.773-.002 11.866-.235 17.23 2.243l-1.83 1.566c-7.67-1.778-15.774-2.087-23.504-.527-1.594.233-4.033 1.445-4.26-1.06z"/><path d="M17.384 50.302c3.718-2.164 8.213-1.91 12.363-2.222 5.773-.002 11.866-.235 17.23 2.243l-1.83 1.566c-7.67-1.778-15.774-2.087-23.504-.527-1.594.233-4.033 1.445-4.26-1.06z"/></g><g fill="#333" stroke="#000" stroke-width=".988"><path d="M24.318 57.66c-3.943-.556-6.93-1.705-8.367-3.219-.885-.932-1.042-2.024-1.4-9.713l-.191-4.113-1.487-1.284c-4.444-3.836-7.644-10.026-7.662-14.82-.011-3.15 2.197-6.277 5.535-7.838 1.695-.791 2.12-.877 4.34-.867 2.748.012 4.45.5 7.4 2.122.948.52 1.78.947 1.849.947.07 0 .126-2.624.126-5.83V7.213h15.186v5.83c0 3.207.057 5.83.127 5.83s.9-.425 1.848-.946c3.43-1.886 6.13-2.496 9.002-2.037 2.301.367 3.72 1.071 5.384 2.673 2.317 2.228 3.094 4.583 2.617 7.94-.592 4.179-2.771 8.105-6.617 11.925l-2.297 2.281-.373 6.593-.374 6.593-.794.642c-1.275 1.031-3.345 1.98-5.675 2.601-1.903.508-3.053.59-9.356.665-3.953.047-7.922-.018-8.821-.145zm-1.077-6.414c1.925-.387 3.757-.493 8.678-.5 5.429-.006 6.705.078 9.85.646l3.615.652.949-.949.949-.949-2.137-.706c-3.046-1.006-5.013-1.287-10.243-1.462-7.512-.252-13.812.392-16.75 1.711-.837.376-.99.561-.849 1.025.446 1.46 1.061 1.515 5.938.532zm23.33-6.263c-.96-.826-2.328-.812-3.311.034l-.757.65 2.03.594c1.116.326 2.152.624 2.3.662.15.039.313-.244.364-.627.064-.49-.121-.88-.625-1.313zm-26.895 1.105c1.002-.507 1.802-1.17 1.802-1.493 0-.345-2.932-.275-3.611.087-.773.411-1.251 1.05-1.262 1.685-.007.445.132.487 1.105.331.612-.098 1.497-.372 1.966-.61zm14.154-1.303c.963-.402 1.492-1.259 1.28-2.07-.265-1.012-3.097-1.596-4.803-.99-1.366.485-1.716 1.017-1.289 1.955.608 1.335 2.966 1.876 4.812 1.105zM20.463 40.59c9.102-2.006 13.549-2.036 22.331-.147 2.402.516 4.512.94 4.69.94.433 0 .122-1.765-.502-2.848l-.468-.814 1.828-1.938c2.373-2.517 3.554-4.916 3.715-7.55.103-1.662.037-2.021-.523-2.85-.915-1.359-2.419-2.027-4.57-2.031-4.458-.01-9 4.106-11.593 10.501l-.74 1.827-2.595.004-2.595.003-.89-2.155c-1.118-2.71-3.137-5.804-4.763-7.303-1.44-1.328-4.053-2.648-5.74-2.901-2.652-.398-5.506 1.075-6.058 3.125-.644 2.392 1.07 6.68 3.806 9.519l1.642 1.704-.556 1.293c-.601 1.397-.72 2.413-.283 2.413.15 0 1.889-.356 3.864-.792zm12.804-12.765c2.706-1.028 2.77-4.75.099-5.819-2.045-.818-4.004.038-4.594 2.008-.742 2.475 1.968 4.772 4.495 3.811zM30.1 17.764l1.95-1.654 1.916 1.654c1.054.909 2.022 1.653 2.15 1.653.269 0 1.905-2.003 1.905-2.332 0-.122-.749-.9-1.665-1.729l-1.665-1.508 1.679-1.623 1.679-1.623-.885-1.152c-.487-.633-1.012-1.15-1.167-1.147-.154.003-1.115.738-2.135 1.634l-1.854 1.63-1.843-1.635c-1.014-.898-1.96-1.634-2.1-1.634-.275 0-1.976 2.007-1.976 2.331 0 .107.744.866 1.652 1.689l1.652 1.495-1.793 1.65-1.794 1.649.978 1.152c.537.634 1.065 1.153 1.172 1.153s1.072-.744 2.144-1.653z"/><path d="M19.16 34.003c-1.774-2.195-3.106-4.427-3.106-5.202 0-.659.802-1.248 1.697-1.248 2.22 0 4.766 2.262 6.674 5.928l1.12 2.152-1.717.299c-2.766.481-2.702.508-4.669-1.929zM40.004 35.91l-1.407-.258.54-1.258c1.395-3.256 3.373-5.665 5.316-6.477 1.231-.515 2.775-.55 3.079-.07.763 1.205-.056 3.022-2.95 6.539-1.668 2.028-1.72 2.045-4.578 1.523z"/></g></svg>
    </g>
    <g id="bq">
        <svg xmlns="http://www.w3.org/2000/svg" width="40" height="40" viewBox="0 0 64 64"><path d="M22.322 11.775c-.164-3.188 1.14-3.612 3.234-1.146 1.971 1.88.23 2.55 1.444 4.702 1.467 3.22 3.065 6.38 4.56 9.587 1.618-3.311 3.384-6.55 4.953-9.886 1.078-2.246.778-3.576 3.127-5.199 2.273-1.76.937-2.759.785.132.26 2.07.577 2.967.891 5.184 1.328 5.265 2.525 10.562 3.8 15.84 2.48-1.913 4.965-3.821 7.43-5.754.335-1.52 1.545-.063 3.121-.972 2.167-1.615.171-2.532-.326.118-.183 1.853 1.768 1.997.38 2.738-1.79 4.203-3.961 8.24-5.625 12.496-.911 4.81-1.026 9.74-1.631 14.599-6.444 3.994-14.343 4.274-21.69 3.722-4.015-.274-8.033-1.323-11.362-3.66-.677-4.812-.981-9.683-1.865-14.461-1.603-4.3-3.696-8.4-5.423-12.651-1.731-.706-.826-2.595-.428-4.847.262-3.22-.11-2.272 1 .73.039.792 2.328 1.545 2.367 2.336 2.304 1.883 4.622 3.748 6.939 5.617 2.15-7.563 3.399-13.066 4.32-19.225z"/><g fill="#fff"><path stroke="#fff" stroke-miterlimit="10" stroke-width=".092" d="M20.903 37.561c8.074-1.622 16.822-1.819 24.622 1.12 1.543.326 1.536 2.088 2.068 3.253-4.764-.27-9.45-1.403-14.243-1.336-5.769-.267-11.48.62-17.17 1.404-1.44-3.149 2.598-3.764 4.724-4.44z"/><path d="M20.903 37.561c8.074-1.622 16.822-1.819 24.622 1.12 1.543.326 1.536 2.088 2.068 3.253-4.764-.27-9.45-1.403-14.243-1.336-5.769-.267-11.48.62-17.17 1.404-1.44-3.149 2.598-3.764 4.724-4.44z"/><path stroke="#fff" stroke-miterlimit="10" stroke-width=".092" d="M29.14 42.916c1.899-.778 4.875-.936 5.771 1.357-.842 3.295-8.595 2.025-5.771-1.357z"/><path d="M29.14 42.916c1.899-.778 4.875-.936 5.771 1.357-.842 3.295-8.595 2.025-5.771-1.357z"/><path stroke="#fff" stroke-miterlimit="10" stroke-width=".092" d="M16.478 46.118c1.418-.963 3.015-.834 4.526-.138-1.316.55-4.461 3.023-4.526.138z"/><path d="M16.478 46.118c1.418-.963 3.015-.834 4.526-.138-1.316.55-4.461 3.023-4.526.138z"/><path stroke="#fff" stroke-miterlimit="10" stroke-width=".092" d="M42.378 46.011c1.9-1.193 3.808-.477 5.101 1.197-1.848.47-3.59-.141-5.101-1.197z"/><path d="M42.378 46.011c1.9-1.193 3.808-.477 5.101 1.197-1.848.47-3.59-.141-5.101-1.197z"/><path stroke="#fff" stroke-miterlimit="10" stroke-width=".092" d="M20.509 49.256c6.21-1.712 12.828-1.505 19.169-.707 2.432.39 6.24 1.159 5.423 4.497-8.694-3.08-18.402-3.108-27.086.02-.418-1.874.668-3.423 2.494-3.81z"/><path d="M20.509 49.256c6.21-1.712 12.828-1.505 19.169-.707 2.432.39 6.24 1.159 5.423 4.497-8.694-3.08-18.402-3.108-27.086.02-.418-1.874.668-3.423 2.494-3.81z"/></g><g fill-rule="evenodd"><path d="M11.62 23.889a3.585 3.39 0 1 1 0-.035M59.549 24.058a3.585 3.39 0 1 1 0-.04M27.74 10.665a4.041 3.846 0 1 1 0-.023M43.738 9.696a4.041 3.846 0 1 1 0-.038"/></g><path fill="#333" stroke="#000" stroke-width=".988" d="M25.131 57.643c-2.353-.308-4.868-1.003-6.756-1.867-2.957-1.354-2.795-1.014-3.555-7.478-.943-8.012-1.041-8.435-3.019-12.998-.974-2.248-2.148-4.973-2.61-6.057-.765-1.797-.927-1.994-1.844-2.24-1.37-.37-2.683-1.892-2.683-3.111 0-2.015 2.697-3.796 4.731-3.124 1.497.494 1.91 1.178 1.94 3.214l.027 1.796 3.3 2.69c1.816 1.48 3.357 2.634 3.426 2.565.243-.243 3.071-11.783 3.54-14.442l.473-2.69-.65-.526c-1.722-1.393-2.062-3.13-.888-4.525 1.59-1.89 4.646-2.54 5.925-1.26 1.304 1.302 1.494 4.075.388 5.647-.509.723-.509.756.003 2.034.286.714 1.459 3.251 2.606 5.637l2.086 4.34 2.532-5.017c1.392-2.76 2.737-5.614 2.988-6.343.42-1.223.421-1.346.015-1.573-.664-.372-1.255-1.697-1.255-2.815 0-.79.212-1.206 1.027-2.021 2.39-2.391 5.77-1.863 6.548 1.024.52 1.933-.134 3.778-1.612 4.542-.446.231-.81.617-.81.858 0 .631 3.851 16.728 4.062 16.976.097.114 1.816-1.07 3.82-2.632 3.563-2.777 3.643-2.862 3.668-3.918.08-3.476 4.956-4.883 6.509-1.88 1.098 2.123-.331 4.832-2.548 4.832h-1.023l-1.46 3.187c-4.545 9.926-4.263 8.935-5.147 18.086-.602 6.23-.378 5.808-3.814 7.189-2.362.95-4.52 1.52-7.186 1.9-2.196.314-10.354.314-12.754 0zm-.534-6.149c1.736-.328 3.81-.457 7.186-.449 4.92.013 7.751.42 11.797 1.699l1.627.514.087-.966c.17-1.893-1.262-3.01-4.833-3.768-3.343-.71-14.307-.713-17.627-.006-1.268.27-2.732.697-3.254.95-1.107.533-2.038 2.17-1.792 3.15l.16.64 2.104-.651c1.157-.358 3.202-.859 4.545-1.113zm-4.888-4.608c.824-.404 1.498-.822 1.498-.93 0-.107-.644-.34-1.43-.515-1.198-.268-1.594-.251-2.44.102-1.046.437-1.315 1.123-.686 1.752.51.51 1.436.387 3.058-.41zm27.532.451c.34-.23.258-.402-.503-1.055-1.084-.932-2.336-1.219-3.516-.808-1.091.38-1.088.66.017 1.231 1.72.89 3.26 1.133 4.002.632zm-12.82-1.96c.614-.615.686-.837.468-1.448-.142-.397-.684-.95-1.203-1.227-2.6-1.39-6.35.354-5.044 2.346.639.975 1.375 1.224 3.352 1.133 1.425-.066 1.82-.197 2.427-.804zm-13.485-3.885c1.715-.236 5.803-.493 9.084-.572 5.758-.136 8.986.084 16.746 1.144.56.077 1.017.081 1.017.01 0-.07-.25-.798-.557-1.616-.529-1.414-.631-1.515-2.092-2.062-5.703-2.134-14.076-2.713-21.487-1.486-5.665.938-7.864 2.03-7.864 3.91 0 1.26.154 1.42 1.201 1.242.458-.078 2.236-.334 3.952-.57z"/></svg>
    </g>
    <g id="bb">
        <svg xmlns="http://www.w3.org/2000/svg" width="40" height="40" viewBox="0 0 64 64"><path fill="#fff" stroke="#000" stroke-miterlimit="10" stroke-width=".09" d="M25.487 8.483c1.237-2.106 4.72-1.661 5.5.61.866 1.566-.686 2.818-1.403 4.043.863.748 1.725 1.498 2.592 2.246.863-.863 1.725-1.729 2.579-2.604-1.234-2.041-1.058-5.231 1.794-5.63 3.394-.62 4.412 3.643 2.775 5.926 3.042 3.825 5.814 8.073 6.756 12.947 1.064 5.584-.353 11.343-2.764 16.393.08 2.504-.118 5.005-.517 7.477 4.269-1.68 9.519-2.481 13.577.138 2.642 1.78 2.507 5.262 2.199 8.058-6.165-3.306-13.412-2.869-20.092-1.766-3.321-3.589-9.672-3.523-13.012.013-6.688-1.18-13.888-1.456-20.112 1.697-.196-2.83-.349-6.362 2.397-8.09 4.07-2.498 9.254-1.737 13.477-.018a37.097 37.097 0 0 1-.535-7.587c-2.468-4.365-4.631-9.44-3.474-14.547 1.355-5.53 4.967-10.116 8.48-14.457-.428-1.55-1.32-3.365-.216-4.849z"/><path d="M25.487 8.483c1.237-2.106 4.72-1.661 5.5.61.866 1.566-.686 2.818-1.403 4.043.863.748 1.725 1.498 2.592 2.246.863-.863 1.725-1.729 2.579-2.604-1.234-2.041-1.058-5.231 1.794-5.63 3.394-.62 4.412 3.643 2.775 5.926 3.042 3.825 5.814 8.073 6.756 12.947 1.064 5.584-.353 11.343-2.764 16.393.08 2.504-.118 5.005-.517 7.477 4.269-1.68 9.519-2.481 13.577.138 2.642 1.78 2.507 5.262 2.199 8.058-6.165-3.306-13.412-2.869-20.092-1.766-3.321-3.589-9.672-3.523-13.012.013-6.688-1.18-13.888-1.456-20.112 1.697-.196-2.83-.349-6.362 2.397-8.09 4.07-2.499 9.254-1.737 13.477-.018a37.098 37.098 0 0 1-.535-7.587c-2.468-4.365-4.631-9.441-3.473-14.547 1.354-5.53 4.965-10.116 8.48-14.457-.43-1.551-1.32-3.366-.217-4.85z"/><g fill="#fff"><path stroke="#fff" stroke-miterlimit="10" stroke-width=".09" d="M32.234 17.193c2.928-1.598 5.412 1.417 6.78 3.653 2.794 4.507 5.205 10.428 2.962 15.615-2.747-1.974-2.722-5.748-3.854-8.663-.922-4.074-4.532-6.754-5.888-10.605z"/><path d="M32.234 17.193c2.928-1.598 5.412 1.417 6.78 3.653 2.794 4.507 5.205 10.428 2.962 15.615-2.747-1.974-2.722-5.748-3.854-8.663-.922-4.074-4.532-6.754-5.888-10.605z"/><path stroke="#fff" stroke-miterlimit="10" stroke-width=".09" d="M22.226 40.17c.17-2.682 3.254-2.973 5.298-3.39 3.976-.466 8.156-.602 12.002.678.925.43 3.355 1.544 1.65 2.732-6.302-.948-12.646-.913-18.95-.02z"/><path d="M22.226 40.17c.17-2.682 3.254-2.973 5.298-3.39 3.976-.466 8.156-.602 12.002.678.925.43 3.355 1.544 1.65 2.732-6.302-.948-12.646-.913-18.95-.02z"/><path stroke="#fff" stroke-miterlimit="10" stroke-width=".09" d="M29.159 41.599c2.017-.477 4.141-.607 6.025.445-1.874.933-4.632 1.628-6.025-.445z"/><path d="M29.159 41.599c2.017-.477 4.141-.607 6.025.445-1.874.933-4.632 1.628-6.025-.445z"/><path stroke="#fff" stroke-miterlimit="10" stroke-width=".09" d="M23.062 49.119c-.272-3.055 3.165-3.446 5.395-4.028 4.08-.608 8.906-.656 12.218 2.161l.022 2.077c-5.808-1.486-11.775-.966-17.634-.21z"/><path d="M23.062 49.119c-.272-3.055 3.165-3.446 5.395-4.028 4.08-.608 8.906-.656 12.218 2.161l.022 2.077c-5.808-1.486-11.775-.966-17.634-.21z"/></g><path fill="#333" stroke="#000" stroke-width=".988" d="M5.484 55.553c.01-3.45 1.343-5.424 4.376-6.477 2.209-.768 6.494-.658 9.232.237l2.088.682-.146-3.696-.146-3.696-1.317-2.711c-1.775-3.657-2.433-6.153-2.428-9.215.006-4.243 1.71-8.09 6.285-14.189 1.309-1.745 2.326-3.356 2.261-3.58-.695-2.38-.732-2.938-.262-3.93 1.176-2.476 4.503-2.206 5.508.448.275.724.052 1.384-1.063 3.16-.374.594-.332.68.826 1.687.671.583 1.348 1.064 1.503 1.068.156.005.812-.53 1.458-1.19 1.12-1.14 1.161-1.24.87-2.074-.449-1.288-.367-3.01.175-3.68 1.132-1.396 2.872-1.573 4.16-.422.686.613.879 1.029.984 2.125.088.91-.005 1.625-.278 2.153-.402.779-.383.825 1.19 2.96 1.866 2.532 4.076 6.685 4.691 8.814 1.44 4.982.916 10.905-1.455 16.477-.662 1.555-.824 2.322-.829 3.915-.003 1.09-.119 2.77-.258 3.734-.14.963-.228 1.778-.196 1.81.032.032.775-.184 1.651-.48 6.581-2.222 12.8-.576 13.967 3.697.355 1.299.398 4.474.06 4.474-.13 0-1.03-.298-2-.663-3.42-1.287-5.827-1.598-10.909-1.41-2.538.094-5.102.267-5.699.384-.98.192-1.223.116-2.518-.787-.788-.55-2.053-1.148-2.81-1.33-2.767-.664-6.887.197-8.338 1.742-.554.59-.624.596-2.942.267-5.544-.786-11.837-.33-15.739 1.138-.963.363-1.798.66-1.855.66-.057 0-.1-.947-.097-2.102zm35.248-7.235c0-1.428-.56-1.98-2.938-2.893-3.181-1.222-9.817-.91-13.001.612-1.187.567-1.96 1.627-1.96 2.69 0 .555.085.58 1.423.402 5.091-.676 12.227-.63 15.12.096.522.13 1.04.25 1.153.266.112.015.203-.513.203-1.173zm-6.58-5.667c1.221-.444 1.203-.798-.064-1.223-1.094-.367-4.57-.312-4.959.078-.106.107.149.49.567.85.604.519 1.053.65 2.17.634.775-.012 1.803-.164 2.286-.34zm-2.369-2.76c3.058 0 6.536.062 7.729.136 2.112.132 2.172.119 2.259-.497.197-1.393-2.033-2.508-6.096-3.049-3.876-.516-9.818.098-12.034 1.244-.745.386-1.62 1.628-1.62 2.3 0 .207.632.231 2.101.081 1.156-.118 4.603-.214 7.661-.214zm10.804-4.63c.25-.734.324-1.948.239-3.912-.138-3.165-.826-5.488-2.567-8.678-2.296-4.205-4.154-5.969-6.28-5.962-1.792.006-2.059.24-1.572 1.38.216.507 1.427 2.467 2.69 4.357 2.071 3.096 2.384 3.738 3.173 6.508.482 1.69 1.075 3.655 1.318 4.367.494 1.447 1.853 3.26 2.327 3.105.17-.056.472-.58.672-1.165z"/></svg>
    </g>
    <g id="bn">
        <svg xmlns="http://www.w3.org/2000/svg" width="40" height="40" viewBox="0 0 64 64"><path fill="#fff" stroke="#201917" stroke-width="1.422" d="M11.698 44.852c.925.93 3.235.952 4.38.125.908-1.117 2.23-1.694 2.584-3.174.617-1.952-1.918-3.083-3.222-1.7-1.49 1.41-4.76 3.851-3.742 4.749z"/><path d="M22.245 13.071c.206-1.979.335-3.965.431-5.952 1.989 3.002 4.502 6.207 8.376 6.583 7.78 1.173 15.125 5.645 19.173 12.475 5.803 9.53 6.267 21.372 3.498 31.968-10.304-.007-20.607.016-30.909-.002-1.223-.035-3.453.06-3.145-1.822.75-3.973 3.805-7.168 7.296-9.024 4.425-2.65 5.641-8.114 5.702-12.912-2.475 2.292-6.606 4.936-10.314 4.859-2.153 3.463-2.773 5.635-7.343 6.812-.611-.68.071-1.501.939-3.915-1.015 1.062-2.497 2.465-4.616 3.334-2.184-1.921-3.399-4.628-2.262-7.844.938-1.411.566-1.716 1.838-2.908 1.65-1.547 4.004-5.29 4.482-8.1.463-3.157 2.184-5.886 4.042-8.403-1.204-2.8-1.721-5.82-1.646-8.86 1.49 1.23 2.929 2.523 4.458 3.71z"/><g fill="#fff"><path d="M24.355 12.426c.787 1.072 2.012 2.176 3.14 2.915.05.99.589 2.762-1.023 2.69-2.977.294-2.517-3.814-2.117-5.605zM32.042 16.324c6.334-.03 13.117 6.531 15.01 9.194 6.572 7.907 6.792 19.162 5.309 29.095.33 1.813-1.647 1.583-2.798 1.972.114-8.176.85-16.72-2.686-24.377-3.052-6.365-8.67-11.317-15.143-14.026l.308-1.858zM10.878 39.372c.632-1.003 1.979-.99 2.978-1.37-.649 1.32-.954 3.195-2.517 3.72-.452-.641-1.076-1.604-.461-2.35zM20.434 26.99c1.806-1.362 3.572-.515 5.502.062-2.135 1.196-4.693 3.345-6.404 2.315-.693-.417-.11-1.613.902-2.377z"/></g><path fill="#333" stroke="#000" stroke-width=".988" d="M20.589 57.669c-.861-.374-.907-.46-.753-1.406.261-1.614 1.73-4.299 3.144-5.75.718-.738 2.175-1.904 3.237-2.591 1.062-.687 2.375-1.7 2.918-2.253 1.941-1.974 3.585-6.658 3.615-10.299l.01-1.159-1.382 1.092c-2.68 2.118-6.405 3.802-8.41 3.802-.623 0-.892.256-1.637 1.56-1.206 2.11-2.795 3.779-4.348 4.566-2.22 1.125-2.535.85-1.58-1.38.756-1.764.68-1.998-.339-1.049-1.174 1.093-3.222 2.542-3.578 2.532-.372-.01-1.93-2.085-2.302-3.064-.505-1.328-.344-3.713.352-5.207.349-.75.812-1.544 1.028-1.763 2.484-2.518 4.205-5.613 5.075-9.126.586-2.36 1.412-4.19 2.922-6.464l.932-1.403-.657-2.28c-.657-2.274-1.207-6.21-.868-6.21.098 0 1.048.732 2.112 1.627 1.063.895 2.022 1.627 2.132 1.627s.287-1.248.395-2.773c.19-2.667.213-2.747.629-2.101.806 1.253 3.417 3.843 4.537 4.5.613.359 2.322.908 3.796 1.219 5.034 1.061 8.59 2.623 12.244 5.376 3.436 2.59 5.77 5.546 7.79 9.866 2.636 5.64 3.47 9.54 3.494 16.32.016 4.746-.199 6.883-1.084 10.78l-.416 1.83-16.046-.01c-13.49-.01-16.192-.074-16.962-.409zm31.153-1.583c.622-.284.704-.535.992-3.018.472-4.082.444-11.807-.053-14.673-1.07-6.169-3.132-10.466-7.052-14.7-3.886-4.197-9.316-7.363-12.637-7.368-.652-.001-1.044.144-1.153.427-.426 1.112-.167 1.44 2.043 2.59 6.53 3.398 11.61 9.029 13.81 15.308 1.328 3.791 1.647 6.345 1.8 14.416l.146 7.658.713-.166a8.92 8.92 0 0 0 1.391-.474zm-39.495-14.88c.368-.335.923-1.202 1.233-1.927l.563-1.318-1.015.18c-1.19.21-2.332.963-2.462 1.624-.109.553.467 2.052.787 2.052.123 0 .525-.275.894-.61zM23.539 28.61c2.704-1.444 2.777-1.587 1.072-2.094-.793-.235-1.755-.427-2.138-.427-.758.001-2.384.888-2.92 1.593-.549.72-.423 1.65.257 1.916.842.33 1.675.109 3.729-.988zm3.742-10.712c.18-.179.326-.807.326-1.396 0-.96-.17-1.231-1.641-2.61-.903-.845-1.684-1.467-1.735-1.382-.12.198-.233 2.33-.186 3.489.067 1.647 2.223 2.912 3.236 1.9z"/></svg>
    </g>
    <g id="br">
        <svg xmlns="http://www.w3.org/2000/svg" width="40" height="40" viewBox="0 0 64 64"><path fill="#fff" stroke="#000" stroke-miterlimit="10" stroke-width=".086" d="M14.684 10.694h6.894a7487.76 7487.76 0 0 0-.001 5.17h6.033v-5.17h8.617c-.001 1.723-.002 3.447-.001 5.17h6.033c0-1.723-.002-3.447 0-5.17h6.893v9.519l-4.309 4.443c.006 6.272-.012 12.545.01 18.818 2.616 2.353 3.38 5.996 6.15 8.193.04 2.14.037 4.28.04 6.421H12.956c0-2.136 0-4.271.028-6.406 2.713-2.41 3.8-6.077 6.864-8.183.012-6.28.002-12.56.006-18.84-1.724-1.481-3.449-2.961-5.171-4.444v-9.52z"/><path d="M14.684 10.694h6.894a7487.76 7487.76 0 0 0-.001 5.17h6.033v-5.17h8.617c-.001 1.723-.002 3.447-.001 5.17h6.033c0-1.723-.002-3.447 0-5.17h6.893v9.519l-4.309 4.443c.006 6.272-.012 12.545.01 18.818 2.616 2.353 3.38 5.996 6.15 8.193.04 2.14.037 4.28.04 6.421H12.956c0-2.136 0-4.271.028-6.406 2.713-2.41 3.8-6.077 6.864-8.183.012-6.28.002-12.56.006-18.84-1.724-1.481-3.449-2.961-5.171-4.444v-9.52z"/><g fill="#fff"><path stroke="#fff" stroke-miterlimit="10" stroke-width=".086" d="M21.578 22.757H43.12v4.309H21.577v-4.309z"/><path d="M21.578 22.757H43.12v4.309H21.577v-4.309z"/><path stroke="#fff" stroke-miterlimit="10" stroke-width=".086" d="M21.578 42.577h21.543v3.447H21.578v-3.447z"/><path d="M21.578 42.577h21.543v3.447H21.578v-3.447z"/></g><path fill="#333" stroke="#000" stroke-width=".988" d="M13.071 54.84c0-2.474.085-3.156.426-3.44.235-.194 1.424-1.753 2.644-3.464 1.22-1.71 2.554-3.359 2.964-3.662l.746-.552-.006-9.644-.006-9.644-2.562-2.17-2.562-2.17-.008-4.677-.009-4.678h6.78V15.892h6.237V10.739h8.407V15.892h6.237V10.739h6.78v9.369l-2.17 2.156-2.169 2.157v9.66c0 9.438.013 9.67.564 10.17.31.28 1.24 1.61 2.064 2.956.825 1.346 1.9 2.874 2.388 3.396.87.929.892 1.019 1.075 4.136l.186 3.186H13.07V54.84zm30.102-10.474v-1.898H21.478v3.796h21.695zm0-19.39v-2.305H21.478v4.61h21.695z"/></svg>
    </g>
    <g id="bp">
        <svg xmlns="http://www.w3.org/2000/svg" width="40" height="40" viewBox="0 0 64 64"><path d="M49.246 58.14H14.703c-.096-3.013 1.075-5.2 3.512-6.563 1.9-1.056 4.471-1.574 7.715-1.555l.172-2.446c-1.19-.653-1.784-1.948-1.784-3.887 0-2.437 1.036-5.565 3.109-9.384v-3.77H17.035c-.154-1.133.143-2.419.892-3.858 1.893-4.112 6.838-4.183 9.873-6.736-.403-.614-.652-1.027-.748-1.238-.25-.518-.384-.969-.403-1.353-.038-1.42.48-2.62 1.555-3.598 1.074-.998 2.331-1.497 3.77-1.497 1.42 0 2.668.499 3.743 1.497 1.094.979 1.621 2.178 1.583 3.598-.038 1.286-.422 2.15-1.151 2.59.191.788 1.372 1.469 3.54 2.045 4.875 1.305 7.312 3.857 7.312 7.657 0 .384-.029.681-.086.892H36.523v3.771c2.091 3.82 3.137 6.947 3.137 9.384 0 1.939-.604 3.234-1.813 3.887l.172 2.446c4.414-.038 7.571.931 9.471 2.908 1.21 1.266 1.814 2.773 1.814 4.52 0 .287-.02.517-.058.69"/><path fill="#333" stroke="#000" stroke-width=".988" d="M14.97 56.894c0-.57.318-1.671.712-2.46 1.223-2.456 3.85-3.773 8.44-4.231l1.966-.197v-1.295c0-.875-.146-1.416-.449-1.668-1.784-1.48-1.497-5.446.742-10.24.934-1.999 1.063-2.517 1.063-4.271v-1.996H17.14v-.882c0-1.29 1.385-4.003 2.58-5.05.57-.501 2.446-1.574 4.17-2.383 1.723-.81 3.341-1.661 3.596-1.892.436-.395.433-.47-.059-1.276-.687-1.126-.683-3.033.009-4.168 1.17-1.92 3.972-2.954 6.102-2.25 2.792.92 4.481 4.145 3.27 6.24-.775 1.339-.784 1.433-.184 1.92.326.263 1.733.858 3.127 1.323 3.056 1.018 4.755 2.05 5.837 3.543.81 1.118 1.56 3.75 1.278 4.484-.123.321-1.07.39-5.31.39h-5.162v1.906c0 1.624.135 2.173.918 3.728 2.019 4.012 2.74 8.342 1.665 9.993-.28.43-.678.907-.886 1.061-.25.187-.349.688-.291 1.492l.086 1.21 2.461.326c3.426.452 5.361 1.234 6.924 2.796 1.274 1.275 1.864 2.58 1.867 4.133l.002.745H14.97v-1.031z"/></svg>
    </g>
</svg>
