<?xml version="1.0" encoding="UTF-8"?>

<svg width="40px" height="40px" viewBox="0 0 40 40" version="1.1" xmlns="http://www.w3.org/2000/svg">
    <title>cm-chessboard pieces and markers sprite</title>
    <desc>Chess pieces and markers for the cm-chessboard (https://shaack.com/projekte/cm-chessboard/).</desc>

    <g id="wk">
        <svg xmlns="http://www.w3.org/2000/svg" xmlns:xlink="http://www.w3.org/1999/xlink" width="40" height="40" fill-rule="evenodd" clip-rule="evenodd" image-rendering="optimizeQuality" shape-rendering="geometricPrecision" text-rendering="geometricPrecision" viewBox="0 0 50 50"><defs><linearGradient xlink:href="#awk" id="bwk" x1="-825.75" x2="-704.44" y1="2712.8" y2="2712.8" gradientTransform="matrix(.26458 0 0 .25357 227.43 -666.55)" gradientUnits="userSpaceOnUse"/><linearGradient id="awk"><stop offset="0" stop-color="#fff"/><stop offset="1" stop-color="#bba38a"/></linearGradient><linearGradient xlink:href="#awk" id="cwk" x1="-215.24" x2="-184.86" y1="731.78" y2="731.78" gradientTransform="translate(225.05 -690.53)" gradientUnits="userSpaceOnUse"/></defs><path fill="url(#bwk)" stroke="#323232" stroke-linejoin="round" stroke-width="1.6" d="M25.006 3.868c-1.803.1-3.228 1.234-3.228 2.618 0 .565.244 1.644.693 2.097h-5.766v5.106h6.306l-2.61 2.833 2.673 2.167c-5.584.362-12.02 1.643-13.154 3.997-1.268 2.638 6.215 15.6 6.215 15.6h17.73s7.484-12.963 6.215-15.6c-1.133-2.357-7.594-3.64-13.179-3.999l2.71-2.165-2.61-2.833h6.306V8.583H27.54c.449-.453.693-1.531.693-2.097 0-1.384-1.425-2.518-3.228-2.618z" style="paint-order:fill markers stroke"/><path d="m31.289 38.283 2.573-.005s7.482-12.428 6.214-15.065c-4.136-3.824-13.18-4.525-13.18-4.525 11.05 2.822 12.618 5.028 4.393 19.595z" opacity=".1"/><path fill="url(#cwk)" stroke="#323232" stroke-linecap="round" stroke-linejoin="round" stroke-width="1.6" d="M13.242 38.286c-1.437 0-2.627 1.216-2.627 2.685v.545l.013 2.684h28.749l.012-2.684v-.545c0-1.468-1.19-2.685-2.627-2.685h-11.76z"/><g fill="#fff"><path d="M13.283 31.138s-3.074-6.555-2.666-8.092c.408-1.536 5.987-2.736 5.987-2.736-6.486 2.71-4.786 4.558-3.321 10.828zM17.521 12.884v-3.52l1.532-.011c-.891.007-1.532 2.147-1.532 3.531zM24.798 4.67s-2.614.92-1.53 3.522c-.178-.007-2.142-2.72 1.53-3.522z"/></g></svg>
    </g>
    <g id="wq">
        <svg xmlns="http://www.w3.org/2000/svg" xmlns:xlink="http://www.w3.org/1999/xlink" width="40" height="40" fill-rule="evenodd" clip-rule="evenodd" image-rendering="optimizeQuality" shape-rendering="geometricPrecision" text-rendering="geometricPrecision" viewBox="0 0 50 50"><defs><linearGradient xlink:href="#awq" id="bwq" x1="-540.02" x2="-501.82" y1="-470.59" y2="-470.59" gradientTransform="translate(545.92 492.79)" gradientUnits="userSpaceOnUse"/><linearGradient id="awq"><stop offset="0" stop-color="#fff"/><stop offset="1" stop-color="#bba38a"/></linearGradient><linearGradient xlink:href="#awq" id="cwq" x1="-536.12" x2="-505.75" y1="-451.55" y2="-451.55" gradientTransform="translate(545.92 492.79)" gradientUnits="userSpaceOnUse"/></defs><path fill="url(#bwq)" stroke="#323232" stroke-linejoin="round" stroke-width="1.6" d="M25 6.122c-2.635 0-4.771 2.098-4.771 4.685.002 1.855 1.118 3.534 2.846 4.283-.369 2.286-1.51 7.558-4.68 8.009-2.355.334-3.855-1.287-4.88-3.144a4.19 4.19 0 0 0 1.767-3.4c0-2.327-1.921-4.214-4.291-4.214S6.699 14.228 6.7 16.555c0 2.142 1.64 3.943 3.809 4.183l4.973 17.54h19.036l4.973-17.54c2.169-.24 3.807-2.041 3.809-4.183 0-2.327-1.922-4.214-4.292-4.214s-4.29 1.887-4.29 4.214a4.19 4.19 0 0 0 1.766 3.4c-1.025 1.857-2.525 3.478-4.88 3.144-3.17-.45-4.31-5.723-4.68-8.01 1.729-.748 2.845-2.427 2.847-4.282 0-2.587-2.136-4.685-4.77-4.685z"/><path d="M39.002 12.342a4.348 4.348 0 0 0-1.567.296c4.741 1.678 3.877 6.805.591 7.316L30.414 38.28h4.2l4.87-17.541c2.17-.241 3.808-2.042 3.81-4.184 0-2.327-1.922-4.214-4.292-4.213z" opacity=".1"/><path fill="url(#cwq)" stroke="#323232" stroke-linecap="round" stroke-linejoin="round" stroke-width="1.6" d="M13.227 38.286c-1.437 0-2.627 1.216-2.627 2.685v.545l.013 2.684H39.36l.013-2.684v-.545c0-1.468-1.19-2.685-2.627-2.685h-11.76z"/><g fill="#fff"><path d="M9.515 13.489c-.794 1.17-1.726 2.667-1.554 4.779 0 0-1.604-3.01 1.554-4.779zM23.659 7.23c-.853.874-2.37 2.934-2.133 5.374-.207-.084-1.73-3.893 2.133-5.374zM12.062 23.328l5.244 14.111-1.17.023z"/></g></svg>
    </g>
    <g id="wb">
        <svg xmlns="http://www.w3.org/2000/svg" xmlns:xlink="http://www.w3.org/1999/xlink" width="40" height="40" fill-rule="evenodd" clip-rule="evenodd" image-rendering="optimizeQuality" shape-rendering="geometricPrecision" text-rendering="geometricPrecision" viewBox="0 0 50 50"><defs><linearGradient xlink:href="#awb" id="bwb" x1="3341.2" x2="3366.2" y1="-469.26" y2="-469.26" gradientTransform="matrix(1.019 0 0 1.0751 -3392.3 527.45)" gradientUnits="userSpaceOnUse"/><linearGradient id="awb"><stop offset="0" stop-color="#fff"/><stop offset="1" stop-color="#bba38a"/></linearGradient><linearGradient xlink:href="#awb" id="cwb" x1="-177.63" x2="-151.24" y1="156.68" y2="156.68" gradientTransform="matrix(1.1509 0 0 1.1499 214.24 -138.92)" gradientUnits="userSpaceOnUse"/></defs><path fill="url(#bwb)" stroke="#323232" stroke-linejoin="round" stroke-width="1.6" d="M26.87 8.223c-5.797-2.298-6.952 2.527-4.668 5.86-9.898 10.6-11.253 16.425-6.195 24.204h17.99c6.084-6.912 2.558-14.515-4.823-22.3-2.883 4.119-3.274 7.35-3.946 11.131l-3.62-.071c-.66-6.006 7.622-15.14 5.261-18.823z"/><path d="M24.933 7.654c-.625.02-.207.197-.771.567 0 .003.01.006.01.008 3.582-.311-2.369 11.772-3.394 18.894.536-3.014 1.325-5.68 3.082-8.725 2.003-4.351 4.237-8.681 3.008-10.169-.411-.38-1.144-.601-1.934-.575zm4.24 8.338c-.6.856-.517.67-.972 1.462 6.004 6.049 8.728 13.787 3.097 20.838h2.696c6.085-6.912 2.56-14.515-4.822-22.3z" opacity=".1"/><path fill="url(#cwb)" stroke="#323232" stroke-linecap="round" stroke-linejoin="round" stroke-width="1.6" d="M13.24 38.286c-1.437 0-2.627 1.216-2.627 2.685v.545l.013 2.684h28.749l.012-2.684v-.545c0-1.468-1.19-2.685-2.627-2.685H25z"/><path fill="#fff" d="M14.895 34.327c-.716-1.396-3.266-6.812 4.513-15.739-2.1 4.86-5.958 8.69-4.513 15.739z"/></svg>
    </g>
    <g id="wn">
        <svg xmlns="http://www.w3.org/2000/svg" xmlns:xlink="http://www.w3.org/1999/xlink" width="40" height="40" fill-rule="evenodd" clip-rule="evenodd" image-rendering="optimizeQuality" shape-rendering="geometricPrecision" text-rendering="geometricPrecision" viewBox="0 0 50 50"><defs><linearGradient xlink:href="#awn" id="bwn" x1="-462.21" x2="-434.18" y1="-469.84" y2="-469.84" gradientTransform="translate(474.35 493.34)" gradientUnits="userSpaceOnUse"/><linearGradient id="awn"><stop offset="0" stop-color="#fff"/><stop offset="1" stop-color="#bba38a"/></linearGradient><linearGradient xlink:href="#awn" id="cwn" x1="-464.54" x2="-434.16" y1="-452.1" y2="-452.1" gradientTransform="translate(474.35 493.34)" gradientUnits="userSpaceOnUse"/></defs><path fill="url(#bwn)" stroke="#323232" stroke-linejoin="round" stroke-width="1.6" d="m25.987 23.546-11.592 1.097-1.454-5.216 14.468-6.815 1.763-3.9 10.2 11.892-4.116 17.678H14.74c.245-11.292 9.64-8.1 11.247-14.736z" class="st28"/><path d="m29.173 8.72-.879 1.945.426-.943c2.692 3.722 5.608 7.279 8.45 10.888l-5.285 17.671h3.372l4.117-17.671z" opacity=".1"/><path fill="url(#cwn)" stroke="#323232" stroke-linecap="round" stroke-linejoin="round" stroke-width="1.6" d="M13.24 38.286c-1.437 0-2.627 1.216-2.627 2.685v.545l.013 2.684h28.748l.013-2.684v-.545c0-1.468-1.19-2.685-2.627-2.685H25z"/><path fill="#fff" d="M15.62 37.633c.159-4.472 2.145-6.971 8.667-9.837-.987 1.107-6.405 2.237-8.667 9.837zM14.418 21.67l-.523-1.803L28.03 13.21l1.217-2.764-.671 3.558-14.35 5.921z"/></svg>
    </g>
    <g id="wr">
        <svg xmlns="http://www.w3.org/2000/svg" xmlns:xlink="http://www.w3.org/1999/xlink" width="40" height="40" fill-rule="evenodd" clip-rule="evenodd" image-rendering="optimizeQuality" shape-rendering="geometricPrecision" text-rendering="geometricPrecision" viewBox="0 0 50 50"><defs><linearGradient xlink:href="#awr" id="bwr" x1="-570.82" x2="-544.4" y1="-468.61" y2="-468.61" gradientTransform="translate(582.87 492.95)" gradientUnits="userSpaceOnUse"/><linearGradient id="awr"><stop offset="0" stop-color="#fff"/><stop offset="1" stop-color="#bba38a"/></linearGradient><linearGradient xlink:href="#awr" id="cwr" x1="-573.06" x2="-542.69" y1="-451.71" y2="-451.71" gradientTransform="translate(582.87 492.95)" gradientUnits="userSpaceOnUse"/></defs><path fill="url(#bwr)" stroke="#323232" stroke-linejoin="round" stroke-width="1.6" d="M12.855 10.383v7.663c0 3.268 6.53 3.774 6.53 3.774-.352 9.864-5.036 16.486-5.036 16.486l21.428-.039s-4.651-6.62-5-16.446c0 0 6.896-.507 6.896-3.774v-7.663h-4.72s.459 2.25-.47 3.26c-1.035 1.126-2.418 1.126-3.454 0-.928-1.01-.47-3.26-.47-3.26h-6.59s.459 2.25-.47 3.26c-1.122 1.22-2.699 1.22-3.82 0-.929-1.01-.47-3.26-.47-3.26z"/><path d="m37.543 10.462.014 7.585c.263 3.48-24.58 2.135-24.523 1.03 2.098 2.532 4.445 2.613 6.352 2.744 7.292.498 9.8 8.89 13.306 16.446h2.97s-4.65-6.62-5-16.446c2.547-.395 2.954-.812 4.037-1.058h.018l-.002-.004c1.023-.236 2.81-1.376 2.842-2.713v-7.663z" opacity=".1"/><path fill="url(#cwr)" stroke="#323232" stroke-linecap="round" stroke-linejoin="round" stroke-width="1.6" d="M13.239 38.286c-1.437 0-2.627 1.216-2.627 2.685v.544l.013 2.685h28.75l.012-2.685v-.544c0-1.469-1.19-2.685-2.627-2.685H25z"/><g fill="#fff"><path d="M13.656 11.168v5.54c.48-1.867.299-4.088 1.554-5.54zM22.877 11.163c.055.896-.154 1.748-.269 2.616.48-1.866 1.823-2.616 1.823-2.616zM16.947 35.312c.875-1.143 3.603-10.333 3.233-13.244.7.39.658 10.057-3.233 13.244zM33.863 11.209c.005.598-.055 1.226-.187 2.02.48-1.867 1.295-2.04 1.295-2.04z"/></g></svg>
    </g>
    <g id="wp">
        <svg xmlns="http://www.w3.org/2000/svg" width="40" height="40" fill-rule="evenodd" clip-rule="evenodd" image-rendering="optimizeQuality" shape-rendering="geometricPrecision" text-rendering="geometricPrecision" viewBox="0 0 50 50"><defs><linearGradient id="awp" x1="-639.4" x2="-612.91" y1="-465.15" y2="-465.15" gradientTransform="matrix(.94331 0 0 1 615.66 493.37)" gradientUnits="userSpaceOnUse"><stop offset="0" stop-color="#fff"/><stop offset="1" stop-color="#bba38a"/></linearGradient></defs><path fill="url(#awp)" stroke="#323232" stroke-linejoin="round" stroke-width="1.6" d="M25 12.264c-3.56 0-6.447 2.655-6.447 5.93 0 1.705.799 3.326 2.19 4.45h-1.666c-1.312 0-2.4.978-2.4 2.158v.438c0 1.18 1.088 2.157 2.4 2.157h2.376c0 7.293-9.342 6.457-8.689 16.78L25 44.167l12.236.008c.653-10.323-8.689-9.486-8.689-16.779h2.376c1.312 0 2.4-.978 2.4-2.157v-.438c0-1.18-1.087-2.157-2.4-2.157h-1.666c1.391-1.125 2.19-2.747 2.19-4.45 0-3.276-2.886-5.93-6.446-5.931z"/><path d="M24.999 12.264c-.521 0-1.028.058-1.513.166 6.257.692 7.675 6.466 4.917 9.222-2.016 1.69-7.662.993-7.662.993 2.56.443 4.97 1.954 7.252 2.488-6.033 11.435 9.7 9.026 9.242 19.043.995-10.592-7.673-8.148-8.689-16.78h2.377c1.312 0 2.398-.977 2.398-2.156v-.438c0-1.18-1.086-2.158-2.398-2.158h-1.667c1.391-1.125 2.191-2.746 2.19-4.449 0-3.276-2.886-5.932-6.447-5.932z" opacity=".15"/><path fill="#fff" d="M22.959 13.401c-1.77 1.602-2.968 3.612-3.476 6.19 0 0-1.16-4.235 3.476-6.19zM13.342 43.419c.273-5.321 2.572-6.184 7.538-11.434-1.03 3.566-7.387 5.868-7.538 11.434z"/></svg>
    </g>
    <g id="bk">
        <svg xmlns="http://www.w3.org/2000/svg" xmlns:xlink="http://www.w3.org/1999/xlink" width="40" height="40" fill-rule="evenodd" clip-rule="evenodd" image-rendering="optimizeQuality" shape-rendering="geometricPrecision" text-rendering="geometricPrecision" viewBox="0 0 50 50"><defs><linearGradient xlink:href="#abk" id="bbk" x1="-825.75" x2="-704.44" y1="2712.8" y2="2712.8" gradientTransform="matrix(.26458 0 0 .25357 227.43 -666.55)" gradientUnits="userSpaceOnUse"/><linearGradient id="abk"><stop offset="0" stop-color="#796c60"/><stop offset="1" stop-color="#4b403b"/></linearGradient><linearGradient xlink:href="#abk" id="cbk" x1="-215.24" x2="-184.86" y1="731.78" y2="731.78" gradientTransform="translate(225.05 -690.53)" gradientUnits="userSpaceOnUse"/></defs><path fill="url(#bbk)" stroke="#1e1e1e" stroke-linejoin="round" stroke-width="1.6" d="M25.006 3.868c-1.803.1-3.228 1.234-3.228 2.618 0 .565.244 1.644.693 2.097h-5.766v5.106h6.306l-2.61 2.833 2.673 2.167c-5.584.362-12.02 1.643-13.154 3.997-1.268 2.638 6.215 15.6 6.215 15.6h17.73s7.484-12.963 6.215-15.6c-1.133-2.357-7.594-3.64-13.179-3.999l2.71-2.165-2.61-2.833h6.306V8.583H27.54c.449-.453.693-1.531.693-2.097 0-1.384-1.425-2.518-3.228-2.618z" style="paint-order:fill markers stroke"/><path d="m31.289 38.283 2.573-.005s7.482-12.428 6.214-15.065c-4.136-3.824-13.18-4.525-13.18-4.525 11.05 2.822 12.618 5.028 4.393 19.595z" opacity=".15"/><path fill="url(#cbk)" stroke="#1e1e1e" stroke-linecap="round" stroke-linejoin="round" stroke-width="1.6" d="M13.242 38.286c-1.437 0-2.627 1.216-2.627 2.685v.545l.013 2.684h28.749l.012-2.684v-.545c0-1.468-1.19-2.685-2.627-2.685h-11.76z"/><g fill="#fff"><path d="M13.283 31.138s-3.074-6.555-2.666-8.092c.408-1.536 5.987-2.736 5.987-2.736-6.486 2.71-4.786 4.558-3.321 10.828zM17.521 12.884v-3.52l1.532-.011c-.891.007-1.532 2.147-1.532 3.531zM24.798 4.67s-2.614.92-1.53 3.522c-.178-.007-2.142-2.72 1.53-3.522z" opacity=".25"/></g></svg>
    </g>
    <g id="bq">
        <svg xmlns="http://www.w3.org/2000/svg" xmlns:xlink="http://www.w3.org/1999/xlink" width="40" height="40" fill-rule="evenodd" clip-rule="evenodd" image-rendering="optimizeQuality" shape-rendering="geometricPrecision" text-rendering="geometricPrecision" viewBox="0 0 50 50"><defs><linearGradient xlink:href="#abq" id="bbq" x1="-647.27" x2="-525.69" y1="418.44" y2="418.44" gradientTransform="translate(209.27 -109.27) scale(.31419)" gradientUnits="userSpaceOnUse"/><linearGradient id="abq"><stop offset="0" stop-color="#796c60"/><stop offset="1" stop-color="#4b403b"/></linearGradient><linearGradient xlink:href="#abq" id="cbq" x1="-177.63" x2="-151.24" y1="156.68" y2="156.68" gradientTransform="matrix(1.1509 0 0 1.1499 214.23 -138.92)" gradientUnits="userSpaceOnUse"/></defs><path fill="url(#bbq)" stroke="#1e1e1e" stroke-linejoin="round" stroke-width="1.6" d="M25 6.122c-2.635 0-4.771 2.098-4.771 4.685.002 1.855 1.118 3.534 2.846 4.283-.369 2.286-1.51 7.558-4.68 8.009-2.355.334-3.855-1.287-4.88-3.144a4.19 4.19 0 0 0 1.767-3.4c0-2.327-1.921-4.214-4.291-4.214S6.699 14.228 6.7 16.555c0 2.142 1.64 3.943 3.809 4.183l4.973 17.54h19.036l4.973-17.54c2.169-.24 3.807-2.041 3.809-4.183 0-2.327-1.922-4.214-4.292-4.214s-4.29 1.887-4.29 4.214a4.19 4.19 0 0 0 1.766 3.4c-1.025 1.857-2.525 3.478-4.88 3.144-3.17-.45-4.31-5.723-4.68-8.01 1.729-.748 2.845-2.427 2.847-4.282 0-2.587-2.136-4.685-4.77-4.685z"/><path d="M39.002 12.342a4.348 4.348 0 0 0-1.567.296c4.741 1.678 3.877 6.805.591 7.316L30.414 38.28h4.2l4.87-17.541c2.17-.241 3.808-2.042 3.81-4.184 0-2.327-1.922-4.214-4.292-4.213z" opacity=".15"/><path fill="url(#cbq)" stroke="#1e1e1e" stroke-linecap="round" stroke-linejoin="round" stroke-width="1.6" d="M13.227 38.286c-1.437 0-2.627 1.216-2.627 2.685v.545l.013 2.684H39.36l.013-2.684v-.545c0-1.468-1.19-2.685-2.627-2.685h-11.76z"/><g fill="#fff"><path d="M9.515 13.489c-.794 1.17-1.726 2.667-1.554 4.779 0 0-1.604-3.01 1.554-4.779zM23.659 7.23c-.853.874-2.37 2.934-2.133 5.374-.207-.084-1.73-3.893 2.133-5.374zM12.062 23.328l5.244 14.111-1.17.023z" opacity=".25"/></g></svg>
    </g>
    <g id="bb">
        <svg xmlns="http://www.w3.org/2000/svg" xmlns:xlink="http://www.w3.org/1999/xlink" width="40" height="40" fill-rule="evenodd" clip-rule="evenodd" image-rendering="optimizeQuality" shape-rendering="geometricPrecision" text-rendering="geometricPrecision" viewBox="0 0 50 50"><defs><linearGradient xlink:href="#abb" id="bbb" x1="3341.2" x2="3366.2" y1="-469.28" y2="-469.28" gradientTransform="matrix(1.019 0 0 1.0751 -3392.3 527.45)" gradientUnits="userSpaceOnUse"/><linearGradient id="abb"><stop offset="0" stop-color="#796c60"/><stop offset="1" stop-color="#4b403b"/></linearGradient><linearGradient xlink:href="#abb" id="cbb" x1="-177.63" x2="-151.24" y1="156.68" y2="156.68" gradientTransform="matrix(1.1509 0 0 1.1499 214.24 -138.92)" gradientUnits="userSpaceOnUse"/></defs><path fill="url(#bbb)" stroke="#1e1e1e" stroke-linejoin="round" stroke-width="1.6" d="M26.87 8.223c-5.797-2.298-6.952 2.527-4.668 5.86-9.898 10.6-11.253 16.425-6.195 24.204h17.99c6.084-6.912 2.558-14.515-4.823-22.3-2.883 4.119-3.274 7.35-3.946 11.131l-3.62-.071c-.66-6.006 7.622-15.14 5.261-18.823z"/><path d="M24.933 7.654c-.625.02-.207.197-.771.567 0 .003.01.006.01.008 3.582-.311-2.369 11.772-3.394 18.894.536-3.014 1.325-5.68 3.082-8.725 2.003-4.351 4.237-8.681 3.008-10.169-.411-.38-1.144-.601-1.934-.575zm4.24 8.338c-.6.856-.517.67-.972 1.462 6.004 6.049 8.728 13.787 3.097 20.838h2.696c6.085-6.912 2.56-14.515-4.822-22.3z" opacity=".15"/><path fill="url(#cbb)" stroke="#1e1e1e" stroke-linecap="round" stroke-linejoin="round" stroke-width="1.6" d="M13.24 38.286c-1.437 0-2.627 1.216-2.627 2.685v.545l.013 2.684h28.749l.012-2.684v-.545c0-1.468-1.19-2.685-2.627-2.685H25z"/><path fill="#fff" d="M14.895 34.327c-.716-1.396-3.266-6.812 4.513-15.739-2.1 4.86-5.958 8.69-4.513 15.739z" opacity=".25"/></svg>
    </g>
    <g id="bn">
        <svg xmlns="http://www.w3.org/2000/svg" xmlns:xlink="http://www.w3.org/1999/xlink" width="40" height="40" fill-rule="evenodd" clip-rule="evenodd" image-rendering="optimizeQuality" shape-rendering="geometricPrecision" text-rendering="geometricPrecision" viewBox="0 0 50 50"><defs><linearGradient xlink:href="#abn" id="bbn" x1="3295.1" x2="3321.5" y1="-411.88" y2="-411.88" gradientTransform="matrix(1.0621 0 0 1.0589 -3487.5 459.63)" gradientUnits="userSpaceOnUse"/><linearGradient id="abn"><stop offset="0" stop-color="#796c60"/><stop offset="1" stop-color="#4b403b"/></linearGradient><linearGradient xlink:href="#abn" id="cbn" x1="-177.63" x2="-151.24" y1="156.68" y2="156.68" gradientTransform="matrix(1.1509 0 0 1.1499 214.24 -138.92)" gradientUnits="userSpaceOnUse"/></defs><path fill="url(#bbn)" stroke="#1e1e1e" stroke-linejoin="round" stroke-width="1.6" d="m25.987 23.546-11.592 1.097-1.454-5.216 14.468-6.815 1.763-3.9 10.2 11.892-4.116 17.678H14.74c.245-11.292 9.64-8.1 11.247-14.736z" class="st28"/><path d="m29.173 8.72-.879 1.945.426-.943c2.692 3.722 5.608 7.279 8.45 10.888l-5.285 17.671h3.372l4.117-17.671z" opacity=".15"/><path fill="url(#cbn)" stroke="#1e1e1e" stroke-linecap="round" stroke-linejoin="round" stroke-width="1.6" d="M13.24 38.286c-1.437 0-2.627 1.216-2.627 2.685v.545l.013 2.684h28.748l.013-2.684v-.545c0-1.468-1.19-2.685-2.627-2.685H25z"/><path fill="#fff" d="M15.62 37.633c.159-4.472 2.145-6.971 8.667-9.837-.987 1.107-6.405 2.237-8.667 9.837zM14.418 21.67l-.523-1.803L28.03 13.21l1.217-2.764-.671 3.558-14.35 5.921z" opacity=".25"/></svg>
    </g>
    <g id="br">
        <svg xmlns="http://www.w3.org/2000/svg" xmlns:xlink="http://www.w3.org/1999/xlink" width="40" height="40" fill-rule="evenodd" clip-rule="evenodd" image-rendering="optimizeQuality" shape-rendering="geometricPrecision" text-rendering="geometricPrecision" viewBox="0 0 50 50"><defs><linearGradient xlink:href="#abr" id="bbr" x1="12797" x2="12909" y1="-1764.6" y2="-1764.6" gradientTransform="matrix(.23554 0 0 .25454 -3002.1 473.49)" gradientUnits="userSpaceOnUse"/><linearGradient id="abr"><stop offset="0" stop-color="#796c60"/><stop offset="1" stop-color="#4b403b"/></linearGradient><linearGradient xlink:href="#abr" id="cbr" x1="-30.611" x2="-.235" y1="42.165" y2="42.165" gradientTransform="translate(40.423 -.922)" gradientUnits="userSpaceOnUse"/></defs><path fill="url(#bbr)" stroke="#1e1e1e" stroke-linejoin="round" stroke-width="1.6" d="M12.855 10.383v7.663c0 3.268 6.53 3.774 6.53 3.774-.352 9.864-5.036 16.486-5.036 16.486l21.428-.039s-4.651-6.62-5-16.446c0 0 6.896-.507 6.896-3.774v-7.663h-4.72s.459 2.25-.47 3.26c-1.035 1.126-2.418 1.126-3.454 0-.928-1.01-.47-3.26-.47-3.26h-6.59s.459 2.25-.47 3.26c-1.122 1.22-2.699 1.22-3.82 0-.929-1.01-.47-3.26-.47-3.26z"/><path d="m37.543 10.462.014 7.585c.263 3.48-24.58 2.135-24.523 1.03 2.098 2.532 4.445 2.613 6.352 2.744 7.292.498 9.8 8.89 13.306 16.446h2.97s-4.65-6.62-5-16.446c2.547-.395 2.954-.812 4.037-1.058h.018l-.002-.004c1.023-.236 2.81-1.376 2.842-2.713v-7.663z" opacity=".15"/><path fill="url(#cbr)" stroke="#1e1e1e" stroke-linecap="round" stroke-linejoin="round" stroke-width="1.6" d="M13.239 38.286c-1.437 0-2.627 1.216-2.627 2.685v.544l.013 2.685h28.75l.012-2.685v-.544c0-1.469-1.19-2.685-2.627-2.685H25z"/><g fill="#fff"><path d="M13.656 11.168v5.54c.48-1.867.299-4.088 1.554-5.54zM22.877 11.163c.055.896-.154 1.748-.269 2.616.48-1.866 1.823-2.616 1.823-2.616zM16.947 35.312c.875-1.143 3.603-10.333 3.233-13.244.7.39.658 10.057-3.233 13.244zM33.863 11.209c.005.598-.055 1.226-.187 2.02.48-1.867 1.295-2.04 1.295-2.04z" opacity=".25"/></g></svg>
    </g>
    <g id="bp">
        <svg xmlns="http://www.w3.org/2000/svg" width="40" height="40" fill-rule="evenodd" clip-rule="evenodd" image-rendering="optimizeQuality" shape-rendering="geometricPrecision" text-rendering="geometricPrecision" viewBox="0 0 50 50"><defs><linearGradient id="abp" x1="-639.4" x2="-612.91" y1="-465.15" y2="-465.15" gradientTransform="matrix(.94331 0 0 1 615.66 493.37)" gradientUnits="userSpaceOnUse"><stop offset="0" stop-color="#796c60"/><stop offset="1" stop-color="#4b403b"/></linearGradient></defs><path fill="url(#abp)" stroke="#1e1e1e" stroke-linejoin="round" stroke-width="1.6" d="M25 12.264c-3.56 0-6.447 2.655-6.447 5.93 0 1.705.799 3.326 2.19 4.45h-1.666c-1.312 0-2.4.978-2.4 2.158v.438c0 1.18 1.088 2.157 2.4 2.157h2.376c0 7.293-9.342 6.457-8.689 16.78L25 44.167l12.236.008c.653-10.323-8.689-9.486-8.689-16.779h2.376c1.312 0 2.4-.978 2.4-2.157v-.438c0-1.18-1.087-2.157-2.4-2.157h-1.666c1.391-1.125 2.19-2.747 2.19-4.45 0-3.276-2.886-5.93-6.446-5.931z"/><path d="M24.999 12.264c-.521 0-1.028.058-1.513.166 6.257.692 7.675 6.466 4.917 9.222-2.016 1.69-7.662.993-7.662.993 2.56.443 4.97 1.954 7.252 2.488-6.033 11.435 9.7 9.026 9.242 19.043.995-10.592-7.673-8.148-8.689-16.78h2.377c1.312 0 2.398-.977 2.398-2.156v-.438c0-1.18-1.086-2.158-2.398-2.158h-1.667c1.391-1.125 2.191-2.746 2.19-4.449 0-3.276-2.886-5.932-6.447-5.932z" opacity=".15"/><path fill="#fff" d="M22.959 13.401c-1.77 1.602-2.968 3.612-3.476 6.19 0 0-1.16-4.235 3.476-6.19zM13.342 43.419c.273-5.321 2.572-6.184 7.538-11.434-1.03 3.566-7.387 5.868-7.538 11.434z" opacity=".25"/></svg>
    </g>
</svg>
