<?xml version="1.0" encoding="UTF-8"?>

<svg width="40px" height="40px" viewBox="0 0 40 40" version="1.1" xmlns="http://www.w3.org/2000/svg">
    <title>cm-chessboard pieces and markers sprite</title>
    <desc>Chess pieces and markers for the cm-chessboard (https://shaack.com/projekte/cm-chessboard/).</desc>
    <g id="wk">
        <svg xmlns="http://www.w3.org/2000/svg" xml:space="preserve" width="40" height="40" viewBox="0 0 260 260" overflow="hidden"><defs><clipPath id="awk"><path d="M2460 1757h260v260h-260z"/></clipPath></defs><g clip-path="url(#awk)" transform="matrix(.9 0 0 .9 -2201.012 -1568.4)"><path d="M2589 1767.188c-22.506 0-40.813 18.706-40.813 41.312 0 22.605 18.307 41.313 40.813 41.313 22.506 0 40.813-18.708 40.813-41.313 0-22.605-18.307-41.313-40.813-41.313z" style="color:#000;fill:#262626;fill-rule:evenodd;stroke-miterlimit:8;-inkscape-stroke:none"/><path d="M2528.705 1842.244c-28.789.744-52.468 25.106-57.639 52.555-6.81 33.403 6.25 67.592 24.78 94.989l11.34 15.024h165.632c9.322-12.04 18.6-24.238 24.69-38.322 13.62-28.496 19.28-63.895 3.434-92.725-12.444-23.884-42.083-37.288-68.066-29.29-18.607 5.236-33.358 19.546-42.896 35.935-12.586-21.619-35.181-39.26-61.275-38.166z" style="color:#000;fill:#262626;fill-rule:evenodd;stroke-miterlimit:8;-inkscape-stroke:none"/><path d="M2589 1787.813c-11.173 0-20.188 9.053-20.188 20.687s9.015 20.688 20.188 20.688c11.173 0 20.188-9.054 20.188-20.688 0-11.634-9.015-20.688-20.188-20.688zM2647.97 1862.781c-17.652.214-30.857 13.907-40.32 27.374-5.852 7.982-10.75 16.607-16.7 24.52-9.713-12.424-16.918-26.827-28.855-37.438-10.995-10.89-27.586-18.14-42.903-12.463-19.26 6.376-29.298 27.315-29.359 46.577-.27 24.366 9.978 47.775 23.602 67.506 2 1.71 2.744 5.939 5.898 5.33h143.21c13.12-16.711 22.763-36.47 26.703-57.407 3.878-20.298-.929-44.239-18.543-56.86-6.551-4.733-14.625-7.417-22.732-7.139z" style="fill:#fff;fill-opacity:1;stroke:none"/></g></svg>
    </g>
    <g id="wq">
        <svg xmlns="http://www.w3.org/2000/svg" xml:space="preserve" width="40" height="40" viewBox="0 0 260 260" overflow="hidden"><defs><clipPath id="awq"><path d="M2200 1757h260v260h-260z"/></clipPath></defs><g clip-path="url(#awq)" transform="matrix(.9 0 0 .9 -1966.95 -1568.208)"><path d="M105-22.473 58.775 67.025l-72.76-82.06 26.051 226.347h185.868l26.05-226.347-72.76 82.06z" style="color:#000;fill:#262626;fill-rule:evenodd;stroke-miterlimit:8;-inkscape-stroke:none" transform="matrix(-1 0 0 1 2435.5 1793.5)"/><path d="m105 22.473 41.701 80.74 49.315-55.615-16.471 143.09H30.455l-16.47-143.09 49.314 55.615Z" style="fill:#fff;fill-opacity:1;stroke:none" transform="matrix(-1 0 0 1 2435.5 1793.5)"/></g></svg>
    </g>
    <g id="wb">
        <svg xmlns="http://www.w3.org/2000/svg" xml:space="preserve" width="40" height="40" viewBox="0 0 260 260" overflow="hidden"><defs><clipPath id="awb"><path d="M1680 1757h260v260h-260z"/></clipPath></defs><g clip-path="url(#awb)" transform="matrix(.9 0 0 .9 -1498.9 -1568.75)"><path d="M1809.97 1760.188c-23.86-.733-43.91 23.888-38.335 47.112-.93 5.746 8.17 10.847 1.833 14.876-4.062 4.614-10.123 11.495-12.93 14.688-16.847 16.362-24.416 43.193-18.036 66.427 2.949 11.53 8.955 22.252 17.232 30.8l-54.109 70.721h210.75l-54.11-70.72c23.732-23.611 25.938-64.674 4.934-90.723-4.384-5.387-6.05-6.646-10.057-11.414l-12.767-14.494c11.877-19.573.463-47.706-20.991-54.878a38.635 38.635 0 0 0-13.413-2.396z" style="color:#000;fill:#262626;fill-rule:evenodd;stroke-miterlimit:8;-inkscape-stroke:none"/><path d="m1776.063 1946.695-28.688 37.493h127.25l-28.688-37.493c-21.29 12.065-48.581 12.066-69.874 0zM1809.97 1780.813c-11.26-.452-20.674 11.07-18.17 22.014 1.015 4.875 4.871 8.45 7.299 12.672.676 1.826 3.677 3.803 2.86 5.53-10.49 11.943-21.038 23.851-31.513 35.789-13.194 16.915-12.853 42.564.763 59.136 13.786 18.158 40.41 24.462 60.947 14.67 19.868-8.713 32.518-31.474 28.417-52.938-1.498-8.733-5.487-17-11.305-23.674l-29.377 30.207-14.785-14.381 30.392-31.25-17.113-19.428c2.982-4.668 6.43-9.1 9.111-13.92 4.039-10.696-4.142-23.633-15.615-24.333l-.948-.071z" style="fill:#fff;fill-opacity:1;stroke:none"/></g></svg>
    </g>
    <g id="wn">
        <svg xmlns="http://www.w3.org/2000/svg" xml:space="preserve" width="40" height="40" viewBox="0 0 260 260" overflow="hidden"><defs><clipPath id="awn"><path d="M1940 1757h260v260h-260z"/></clipPath></defs><g clip-path="url(#awn)" transform="matrix(.9 0 0 .9 -1732.398 -1568.14)"><path d="M1993.497 1772.398c2.445 14.335 4.891 27.157 7.337 41.493-12.55-3.209-25.773-6.921-38.324-10.13 4.889 20.978 10.45 43.971 15.338 64.948-9.382 18.866-12.067 40.117-14.479 60.812-2.565 25.012-2.306 50.191-1.615 75.292h179.074l-23.693-94.764c24.95-7.914 52.056-18.195 66.855-41.148 14.213-23.62 4.73-56.346-16.374-72.685-23.889-17.612-55.593-18.223-83.928-15.094-10.74 1.051-20.974 4.338-30.677 8.921l-59.514-17.645z" style="color:#000;fill:#262626;fill-rule:evenodd;stroke-miterlimit:8;-inkscape-stroke:none"/><path d="m2014.338 1797.912 10.666 41.016-40.04-12.436 15 43.02c-4.408 10.49-9.798 20.68-11.44 32.094-5.644 27.118-6.722 54.953-6.471 82.576h132.35l-17.288-69.139-28.864 3.325-2.24-18.905c28.2-3.994 56.957-10.143 81.794-24.679 11.34-6.904 24.008-17.692 22.233-32.463-.242-13.703-7.655-27.175-20.231-33.208-19.735-10.004-42.944-9.916-64.426-7.387-11.376.908-21.475 6.229-31.84 10.467l-39.203-14.28z" style="fill:#fff;fill-opacity:1;stroke:none"/><path fill="#262626" fill-rule="evenodd" d="M2040 1853c0-9.94 7.84-18 17.5-18s17.5 8.06 17.5 18-7.84 18-17.5 18-17.5-8.06-17.5-18zM2083 1833.5c0-9.66 8.06-17.5 18-17.5s18 7.84 18 17.5c0 9.67-8.06 17.5-18 17.5s-18-7.83-18-17.5z"/></g></svg>
    </g>
    <g id="wr">
        <svg xmlns="http://www.w3.org/2000/svg" xml:space="preserve" width="40" height="40" viewBox="0 0 260 260" overflow="hidden"><defs><clipPath id="awr"><path d="M1420 1757h260v260h-260z"/></clipPath></defs><g clip-path="url(#awr)" transform="matrix(.9 0 0 .9 -1264.9 -1568.2)"><path d="M1455.188 1773.188v116.624h30.04l-17.79 113h167.125l-17.792-113h30.042v-116.624z" style="color:#000;fill:#262626;fill-rule:evenodd;stroke-miterlimit:8;-inkscape-stroke:none"/><path d="m1506.11 1889.813-14.545 92.374h118.87l-14.544-92.374zM1475.813 1793.813v75.374h150.374v-75.374h-34.374v31.658h-20.626v-31.658h-40.374v31.658h-20.626v-31.658z" style="fill:#fff;fill-opacity:1;stroke:none"/></g></svg>
    </g>
    <g id="wp">
        <svg xmlns="http://www.w3.org/2000/svg" xml:space="preserve" width="40" height="40" viewBox="0 0 260 260" overflow="hidden"><defs><clipPath id="awp"><path d="M1161 1757h259v260h-259z"/></clipPath></defs><g clip-path="url(#awp)" transform="matrix(.9 0 0 .9 -1031.9 -1567.7)"><path d="m1244.293 1919.188-31.736 83.624H1369.443l-31.736-83.624z" style="color:#000;fill:#262626;fill-rule:evenodd;stroke-miterlimit:8;-inkscape-stroke:none"/><path d="m1258.527 1939.813-16.084 42.374h97.114l-16.084-42.374z" style="fill:#fff;fill-opacity:1;stroke:none"/><path d="M1289.5 1783.188c-31.043 0-56.313 25.62-56.313 56.812 0 31.192 25.27 56.813 56.313 56.813 31.043 0 56.313-25.62 56.313-56.813 0-31.192-25.27-56.813-56.313-56.813z" style="color:#000;fill:#262626;fill-rule:evenodd;stroke-miterlimit:8;-inkscape-stroke:none"/><path d="M1289.5 1803.813c-19.777 0-35.688 16.02-35.688 36.187 0 20.168 15.911 36.188 35.688 36.188s35.688-16.02 35.688-36.188c0-20.168-15.911-36.188-35.688-36.188z" style="fill:#fff;fill-opacity:1;stroke:none"/></g></svg>
    </g>
    <g id="bk">
        <svg xmlns="http://www.w3.org/2000/svg" xml:space="preserve" width="40" height="40" viewBox="0 0 260 260" overflow="hidden"><defs><clipPath id="abk"><path d="M2460 1497h260v260h-260z"/></clipPath></defs><g fill="#262626" fill-rule="evenodd" clip-path="url(#abk)" transform="matrix(.95 0 0 .95 -2330.527 -1415.725)"><path d="M2558 1548c0-17.12 13.66-31 30.5-31s30.5 13.88 30.5 31c0 17.12-13.66 31-30.5 31s-30.5-13.88-30.5-31zM2524.14 1592.44c22.074-3.309 43.067 10.78 54.3 28.987 4.857 5.888 8.569 18.756 11.5 21.531 8.112-22.722 24.77-45.368 49.764-50.146 22.378-4.678 45.532 9.507 54.215 30.124 12.13 27.246 4.483 58.583-8.782 83.886-4.735 9.857-11.304 18.572-17.957 27.178h-155.36c-16.084-19.904-28.236-43.54-31.96-69.042-3.65-23.677 3.34-50.88 24.162-64.778 6.01-4.051 12.933-6.753 20.118-7.74z"/></g></svg>
    </g>
    <g id="bq">
      <svg xmlns="http://www.w3.org/2000/svg" xml:space="preserve" width="40" height="40" viewBox="0 0 260 260" overflow="hidden"><defs><clipPath id="abq"><path d="M1940 198h260v260h-260z"/></clipPath></defs><g clip-path="url(#abq)" transform="translate(-1940 -198)"><path fill="#262626" fill-rule="evenodd" d="M2070 231c0 .004 0 .008.01.012l41.8 88.436L2170 247.12 2149.75 430h-159.5L1970 247.12l.1.124 58.09 72.204z"/></g></svg>
    </g>
    <g id="bb">
      <svg xmlns="http://www.w3.org/2000/svg" xml:space="preserve" width="40" height="40" viewBox="0 0 260 260" overflow="hidden"><defs><clipPath id="abb"><path d="M1680 198h260v260h-260z"/></clipPath></defs><g fill="#262626" fill-rule="evenodd" clip-path="url(#abb)" transform="translate(-1680 -198)"><path d="m1760.66 379 4.74 4.569c12.73 10.051 28.08 15.92 44.6 15.92 16.52 0 31.87-5.869 44.6-15.92l4.74-4.568L1909.5 430h-199z"/><path d="M1809.905 213.661c14.31-.472 26.66 13.616 24 27.573-.38 5.676-4.78 11.263-8.08 14.603 4.74 5.617 9.46 11.233 14.18 16.85-11.08 10.924-22.17 21.849-33.25 32.784 4.47 4.394 8.93 8.798 13.39 13.191 10.54-10.368 21.06-20.746 31.59-31.114 3.29 5.388 7.08 10.517 10.05 16.054 9.35 24.186.61 54.088-21.27 68.641-19.35 13.768-47.77 12.247-65.56-3.419-21.31-17.457-26.65-50.231-12.8-73.761 5.25-8.708 12.68-15.816 18.96-23.778 4.41-5.229 8.81-10.467 13.21-15.696-11.46-8.132-11.38-26.85-.76-35.706 4.42-3.988 10.36-6.249 16.34-6.222z"/></g></svg>
    </g>
    <g id="bn">
      <svg xmlns="http://www.w3.org/2000/svg" xml:space="preserve" width="40" height="40" viewBox="0 0 260 260" overflow="hidden"><defs><clipPath id="abn"><path d="M2720 1497h260v260h-260z"/></clipPath></defs><g clip-path="url(#abn)" transform="matrix(.95 0 0 .95 -2577.325 -1415.625)"><path fill="#262626" fill-rule="evenodd" d="M2837.03 1575.38c-9.78 0-17.71 7.97-17.71 17.79 0 9.83 7.93 17.79 17.71 17.79 9.78 0 17.71-7.96 17.71-17.79 0-9.82-7.93-17.79-17.71-17.79zm43.42-19.8c-9.78 0-17.71 7.97-17.71 17.79 0 9.83 7.93 17.79 17.71 17.79 9.78 0 17.71-7.96 17.71-17.79 0-9.82-7.93-17.79-17.71-17.79zM2778.77 1521l53.6 19.62 15.12-6.39c9.51-2.64 19.53-4.14 30.07-4.58 42.16-1.77 79.67 10.29 81.41 53.93 1.2 30.01-38.89 49.32-73.65 58.33l-1.76.42 22.81 91.67h-155.06c-.64-28.1-.62-72.16 10.13-109.41l6.87-15.98-20.31-58.53 41.66 13z"/></g></svg>
    </g>
    <g id="br">
        <svg xmlns="http://www.w3.org/2000/svg" xml:space="preserve" width="40" height="40" viewBox="0 0 260 260" overflow="hidden"><defs><clipPath id="abr"><path d="M1420 1497h260v260h-260z"/></clipPath></defs><g fill="#262626" fill-rule="evenodd" clip-path="url(#abr)" transform="matrix(.95 0 0 .95 -1342.475 -1415.625)"><path d="m1479 1732 15.11-96h112.78l15.11 96zM1465 1523h44.08v42.32h20.71V1523h41.42v42.32h20.71V1523H1636v96h-171z"/></g></svg>
    </g>
    <g id="bp">
        <svg xmlns="http://www.w3.org/2000/svg" xml:space="preserve" width="40" height="40" viewBox="0 0 260 260" overflow="hidden"><defs><clipPath id="abp"><path d="M1161 458h259v260h-259z"/></clipPath></defs><g fill="#262626" fill-rule="evenodd" clip-path="url(#abp)" transform="translate(-1161 -458)"><path d="M1244.58 545.46c0-25.408 20.37-46 45.5-46 25.14 0 45.5 20.592 45.5 46s-20.36 46-45.5 46c-25.13 0-45.5-20.592-45.5-46zM1227.58 682.459l23.2-61.001h78.6l23.2 61.001z"/></g></svg>
    </g>
</svg>
