<?xml version="1.0" encoding="UTF-8"?>

<svg width="40px" height="40px" viewBox="0 0 40 40" version="1.1" xmlns="http://www.w3.org/2000/svg">
    <title>cm-chessboard pieces and markers sprite</title>
    <desc>Chess pieces and markers for the cm-chessboard (https://shaack.com/projekte/cm-chessboard/).</desc>

    <g id="wk">
<svg version="1.1" viewBox="0 0 1280 1280" width="40" height="40" xmlns="http://www.w3.org/2000/svg">
<path transform="translate(621,54)" d="m0 0h32l30 5 14 5 10 9 5 10 4 25 7 49 12 69 2 6v4h10l63 7 54 8 12 3 3 15 1 12v49l-2 16-5 14-1 1-86 10-18 2h-14v12l10 3 16 8 8 6 5 4 8 11 6 16 2 10v34l-3 15-7 19-6 10-7 9-8 6-6 3 4 16 4 7h7l11-4 16-10 14-11 11-9 15-13 12-11 8-7 13-12 24-22 10-9 13-12 8-7 10-9 10-8 11-9 13-11 16-12 16-10 10-5 7-2h13l9 5 6 7 4 11 1 8v12l-3 24-7 36-9 40-12 45-17 58-9 31-5 16-18 70-23 88-23 85-8 28-11 42-5 19h25l15 4 12 6 10 9 6 7 9 16 4 13 5 26 7 55-1 3-58 8-48 5-55 4-62 3-64 2-48 1h-76l-84-2-72-3-61-4-51-5-46-6-21-3-1-3 7-55 6-30 5-13 9-15 11-11 12-7 13-4 5-1h25l-14-54-8-29-6-21-21-78-19-73-10-37-6-23-7-28-6-19-18-61-12-44-9-36-9-44-4-25-1-10v-12l2-12 5-10 7-6 7-3h13l11 4 13 7 14 10 14 11 13 11 11 9 12 11 8 7 12 11 8 7 10 9 16 15 10 9 13 12 10 9 8 7 14 12 16 13 18 12 12 6 4 1h7l5-10 3-13-9-5-5-4-9-12-7-14-6-20-1-7v-34l4-16 7-14 9-10 9-7 16-8 9-3 2-12h-15l-104-12-5-14-2-13v-58l3-20 2-3 36-6 44-6 47-5h10l2-10 12-69 9-66 3-11 5-9 9-7 10-4 20-4z" fill="#30302F"/>
<path transform="translate(237,400)" d="m0 0 10 5 14 10 14 11 28 24 12 11 8 7 14 13 8 7 13 12 10 9 13 12 20 18 11 9 10 9 17 13 15 10 15 8 13 4h17l10-4 7-5 7-10 5-12 5-19 28-3 33-2h85l33 2 29 3 6 22 7 14 5 6 9 6 6 2 9 1 13-2 13-5 13-7 17-12 16-13 14-12 10-9 8-7 12-11 10-9 13-12 12-11 10-9 8-7 10-9 12-11 11-9 10-9 16-12 17-12 10-5v18h-2l-1 13-7 36-9 39-12 45-17 58-13 43-11 44-8 29-14 55-21 79-10 37-7 24-13 49-6 22-1 2-9 2-52 5-42 3-54 2h-184l-54-2-55-4-40-4-7-1-2-2-11-42-14-52-7-24-20-75-19-73-9-33-12-48-13-42-19-66-10-38-11-51-5-30z" fill="#E7E7E7"/>
<path transform="translate(355,1021)" d="m0 0h11l66 7 54 4 48 2h206l48-2 54-4 66-7h11l24 4 10 4 5 5 7 11 5 16 5 26 2 15v5l-48 6-56 5-50 3-77 3-38 1h-142l-69-2-65-3-56-4-49-5-30-4 1-13 4-24 5-20 6-12 5-7 10-5 20-4z" fill="#E7E7E7"/>
<path transform="translate(618,85)" d="m0 0h37l22 4 5 2 2 6 4 30 6 41 10 58 8 32v5l64 8 37 5 35 6 1 1v17l-2 26-1 3-112 15h-13l1 6 1 16v11h-13l-11-1-25-1h-74l-36 2h-13v-11l1-21-27-3-97-13-2-14-1-32 7-2 43-7 86-11 10-42 10-58 8-59 2-13 9-3z" fill="#E7E7E7"/>
<path transform="translate(607,404)" d="m0 0h60l45 3 23 4 20 6 11 6 7 7 4 9 2 10v18l-3 16-5 14-6 8-5 4-4 1-21-1-57-3h-82l-57 3-10 1h-12l-8-4-7-11-5-16-2-11v-20l3-12 5-8 8-7 16-7 22-5 12-2z" fill="#E7E7E7"/>
<path transform="translate(1022,485)" d="m0 0h1l-1 9-10 39-19 66-14 46-17 66-8 30-16 62-24 89-10 35-16 61-2 5-9 2-52 5-13 1h-14l2-6 17-35 13-29 18-41 13-30 17-41 55-132 13-33 15-35 15-33 16-34 12-26z" fill="#B7B7B7"/>
<path transform="translate(355,1021)" d="m0 0h11l66 7 54 4 48 2h206l48-2 54-4 66-7h11l24 4 10 4 5 5 7 11v2l-25 2-124 7-93 4-34 1-74 1h-59l-47-1-67-3-84-6-48-4-1-3 9-14 10-5 20-4z" fill="#FCFCFC"/>
<path transform="translate(237,400)" d="m0 0 10 5 14 10 14 11 28 24 12 11 8 7 14 13 8 7 13 12 10 9 13 12 20 18 11 9 10 9 17 13 15 10 15 8 13 4 5 1v2h-15l-19-3-21-7-23-12-18-12-19-14-14-11-13-11-11-9-10-9-11-9-7-7-8-7-13-12-17-16-5-5 3 21 12 64 10 55 6 43-1 4-8-25-19-65-13-49-11-51-5-30z" fill="#FCFCFC"/>
<path transform="translate(611,86)" d="m0 0h5v10l-7 63-9 69-9 61-4 2-73 7-57 5-31 2-1-22 7-2 43-7 86-11 10-42 10-58 8-59 2-13 9-3z" fill="#FDFDFD"/>
<path transform="translate(843,310)" d="m0 0h5l-1 16-1 3-112 15h-13l1 6 1 16v11h-13l-17-2-3-39v-10l2-1 67-7 74-7z" fill="#B7B7B7"/>
<path transform="translate(535,412)" d="m0 0 4 1-10 10-6 9-4 9-1 4v16l3 9 7 9 14 8 18 6 29 6 34 5v1l-66 3-28 2h-12l-8-4-7-11-5-16-2-11v-20l3-12 5-8 8-7 16-7z" fill="#FCFCFC"/>
<path transform="translate(675,405)" d="m0 0 25 1 19 2 24 5 16 6 9 6 6 7 4 11 1 6v18l-3 16-5 14-6 8-5 4-4 1-21-1-6-1 5-4 8-6 6-9 3-9 1-6v-20l-3-12-5-10-7-7-12-7-18-6-29-5z" fill="#B7B7B7"/>
<path transform="translate(594,537)" d="m0 0h38l-3 2-49 13-29 9-18 8-10 6 3-9 5-16 2-8 28-3z" fill="#FCFCFC"/>
<path transform="translate(720,540)" d="m0 0 21 2 6 22 7 14 5 6 9 6 6 2 15 1-4 2-13 2h-17l-11-4-9-7-6-10-5-16z" fill="#B7B7B7"/>
</svg>
    </g>
    <g id="wq">
<svg version="1.1" viewBox="0 0 1280 1280" width="40" height="40" xmlns="http://www.w3.org/2000/svg">
<path transform="translate(627,83)" d="m0 0h20l19 4 19 7 14 8 13 10 14 14 10 14 8 15 6 18 3 16v24l-4 20-6 16-6 12-10 14-1 2 33 7 27 8 20 8 19 10 11-7 24-16 13-6 4-1h11l10 4 5 4 7 11 4 14 8 30 7 20 8 17 9 12 10 6 8 2h25l30-5 25-6 30-8 11-2h14l14 4 15 9 12 9 1 4-13 18-14 19-13 18-14 19-10 14-13 18-16 23-14 20-28 42-11 17-14 23-12 20-13 23-15 28-15 32-12 30-9 27-7 26-7 36-5 39-3 40-2 46-1 11 2-1 30-2h28l18 4 12 5 9 7 8 8 10 17 4 11 6 30 7 55-1 3-58 8-48 5-56 4-62 3h-304l-62-3-56-4-56-6-50-7-1-3 7-55 6-30 5-13 9-15 11-11 12-7 13-4 11-2h28l30 2 2 1-1-11-2-46-3-40-5-39-7-36-7-26-11-33-13-31-16-33-15-28-14-24-14-23-14-22-22-33-17-25-14-20-12-17-39-54-14-19-11-15-10-14 2-5 17-12 12-6 11-3h14l23 5 34 9 31 6 8 1h25l10-3 9-6 9-13 7-15 9-27 8-31 4-10 7-9 9-5 4-1h11l11 4 11 6 19 13 11 7 17-9 20-8 26-8 26-6 11-1-12-17-8-16-5-16-3-16v-24l4-20 6-16 7-13 8-11 9-10 9-9 14-10 16-8 18-6z" fill="#30302F"/>
<path transform="translate(455,434)" d="m0 0 4 1 17 29 9 14 12 17 11 13 8 8 14 9 9 3h11l11-4 12-9 10-11 14-19 12-17 13-17 12-14 4-1 5 4 9 11 14 18 14 20 9 12 11 13 10 8 10 5 4 1h11l11-4 11-7 14-14 10-13 12-18 15-25 8-13 4 1 14 10 26 16 20 12 21 12 17 8 9 2h24l20-4 20-6 17-8 28-13 31-15 3 1-13 18-12 17-13 18-11 16-14 20-26 39-11 17-15 24-13 22-13 23-15 28-16 34-12 30-12 36-7 28-6 31-5 38-3 35-2 39-1 29-2 6-48 4-15 1h-296l-43-3-21-2-1-4-2-51-3-43-4-35-6-35-6-27-9-30-9-25-11-26-16-34-16-30-14-24-17-28-16-25-18-27-15-22-16-23-12-17-26-36-5-8 6 2 31 15 28 13 16 7 19 6 21 4h22l12-3 16-8 17-9 14-9 22-13 17-11z" fill="#E7E7E7"/>
<path transform="translate(333,1022)" d="m0 0h24l46 3 53 5 29 2h304l53-4 29-3 46-3h24l13 4 7 6 7 12 5 16 5 26 2 19-49 6-43 4-64 4-47 2h-280l-66-3-57-4-57-6-23-3 2-19 5-26 6-18 7-11 6-5z" fill="#E7E7E7"/>
<path transform="translate(617,300)" d="m0 0h41l35 3 34 5 27 6 23 7 19 8 15 8 14 10 12 11 10 12 9 15 7 15 6 18 3 12-1 3-18-11-16-11-10-6-6-2h-9l-10 4-10 9-14 24-13 21-12 17-11 12-8 7-5 2-8-6-10-11-14-20-10-14-11-14-9-11-11-11-8-5-6-2h-10l-9 4-8 6-11 11-11 14-12 16-11 16-9 12-9 10-7 5-8-4-13-13-11-15-14-22-14-24-4-6-9-8-10-4h-9l-10 4-16 11-22 14-3 1 1-8 6-19 6-15 8-15 9-12 11-12 14-11 15-9 15-7 20-7 26-7 27-5 31-4z" fill="#E7E7E7"/>
<path transform="translate(628,111)" d="m0 0h18l16 4 16 7 14 10 11 11 7 10 8 16 4 12 2 12v14l-3 15-6 16-7 12-9 11-11 10-2 1-23-1-28-1-37 2h-10l-9-7-8-8-10-15-6-13-4-15-1-7v-14l3-16 5-13 7-13 8-10 10-10 15-10 14-6z" fill="#E7E7E7"/>
<path transform="translate(980,576)" d="m0 0 1 2-11 17-15 24-13 22-13 23-15 28-16 34-12 30-12 36-7 28-6 31-5 38-3 35-2 39-1 29-2 6-48 4h-6v-27l1-31 3-42 5-44 6-35 7-30 9-30 11-27 11-22 12-19 13-17 9-11 11-12 14-15 15-14 13-12 11-9 15-13 14-11z" fill="#B7B7B7"/>
<path transform="translate(333,1022)" d="m0 0h24l46 3 53 5 29 2h304l53-4 29-3 46-3h24l13 4 7 6 7 12v4l-62 4-110 6-73 3-34 1-54 1h-59l-47-1-67-3-84-6-71-6 1-7 7-10 5-4z" fill="#FCFCFC"/>
<path transform="translate(455,434)" d="m0 0 4 1 17 29 9 14 12 17 11 13 13 13-6-2-20-11-17-12-16-13-9-8-1-2-5 2-17 11-21 12-17 9-20 8-18 5-12 2h-28l-20-4-18-6-9-4 7 12 29 43 15 23 11 18 10 18 13 27 13 35 12 39-1 3-18-38-16-30-14-24-17-28-16-25-18-27-15-22-16-23-12-17-26-36-5-8 6 2 31 15 28 13 16 7 19 6 21 4h22l12-3 16-8 17-9 14-9 22-13 17-11z" fill="#FBFBFB"/>
<path transform="translate(816,434)" d="m0 0 4 1 14 10 26 16 20 12 21 12 17 8 9 2h24l20-4 20-6 17-8 28-13 31-15 3 1-13 18-9 13-23 11-21 10-24 9-17 5-20 3h-14l-19-3-15-5-19-9-27-16-25-15-4 2-8 8-14 11-19 14-17 11-7 4-2-1 12-11 10-11 13-18 16-26z" fill="#B7B7B7"/>
<path transform="translate(392,311)" d="m0 0 5 1 21 14 5 5-13 13-11 15-10 18-8 20-6 20-6 27-2 10-8 5-13 6-4 1h-14l-20-4-18-6-16-8-28-13-31-15 4-1 54 10 21 2h9l16-2 15-5 11-7 11-11 9-14 8-17 10-30 6-22z" fill="#FBFBFB"/>
<path transform="translate(880,311)" d="m0 0h2l5 19 8 28 8 22 10 19 8 10 5 5 7 6 14 7 12 3 9 1h15l25-3 47-9 4 1-31 15-28 13-19 9-19 6-16 3h-14l-11-4-13-7-2-6-7-33-7-22-8-19-9-16-8-11-8-10-7-7 1-3 21-14z" fill="#B7B7B7"/>
<path transform="translate(628,111)" d="m0 0h18l12 3-3 3-22 12-12 8-14 11-10 11-8 13-5 11-4 14-1 5v21l4 16 8 18 7 13v2h-10l-9-7-8-8-10-15-6-13-4-15-1-7v-14l3-16 5-13 7-13 8-10 10-10 15-10 14-6z" fill="#FBFBFB"/>
<path transform="translate(602,301)" d="m0 0h13l-4 2-43 11-36 12-17 7-16 8-18 10-14 10-11 9-12 12-8 13-5 12-2 9-8 6-18 11-1-4 6-21 8-19 9-16 8-10 9-10 12-10 18-11 15-7 20-7 26-7 27-5 31-4z" fill="#FBFBFB"/>
<path transform="translate(392,311)" d="m0 0 5 1 21 14 5 5-13 13-11 15-10 18-8 20-6 20-6 27-2 10-8 5-13 6-4 1h-14l-20-4 1-2 17-3 13-5 10-6 8-7 9-14 5-12 4-16 3-22v-9l-1-2 9-30 5-20z" fill="#E6E6E6"/>
<path transform="translate(759,316)" d="m0 0 12 3 21 8 19 10 14 10 12 11 10 12 9 15 7 15 6 18 3 12-1 3-18-11-6-4-1-5-12-23-8-12-10-13-8-9-8-7-14-12-20-15-7-5z" fill="#B7B7B7"/>
<path transform="translate(880,311)" d="m0 0h2l5 19 6 22 2 26 4 26 6 18 7 13 9 10 10 7 15 6 16 3v2l-16 3h-14l-11-4-13-7-2-6-7-33-7-22-8-19-9-16-8-11-8-10-7-7 1-3 21-14z" fill="#E5E5E5"/>
<path transform="translate(680,124)" d="m0 0 11 7 12 12 7 10 8 16 4 12 2 12v14l-3 15-6 16-7 12-9 11-2 1 2-6 5-13 4-19 1-9v-22l-3-18-6-16-9-17-11-16z" fill="#B7B7B7"/>
<path transform="translate(898,408)" d="m0 0h2l6 16 6 11 9 10 10 7 15 6 16 3v2l-16 3h-14l-11-4-13-7-2-6-7-33z" fill="#E5E5E5"/>
<path transform="translate(880,311)" d="m0 0h2l1 4-12 19-7 9-12-12 1-3 21-14z" fill="#B7B7B7"/>
<path transform="translate(392,311)" d="m0 0 5 1 21 14 5 5-10 10-4-1-13-20-4-6z" fill="#F8F8F8"/>
</svg>
    </g>
    <g id="wb">
<svg version="1.1" viewBox="0 0 1280 1280" width="40" height="40" xmlns="http://www.w3.org/2000/svg">
<path transform="translate(627,83)" d="m0 0h20l19 4 19 7 14 8 13 10 14 14 10 14 8 15 6 18 3 16v26l-3 16-5 15-8 16-10 14-7 8v3l18 10 16 11 10 8 10 9 8 8 10 14 5 11 2 7v14l-4 10-7 9-10 6-13 5-9 2v4l7 22 15 44 12 29 8 16 9 17 6 9v3l-19 12-23 14-24 15-18 12-1 10 3 12 10 19 11 14 9 9 10 6 5 2 6-1 26-20 17-14 14-11 16-12 4 1 14 18 9 12 16 21 12 17 20 30 12 21 8 16 8 19 6 22 2 9 1 18-2 20-5 19-6 15-11 21-8 12-12 16-11 13-11 12-12 13-15 15-7 6 66 1 17 3 16 5 11 7 10 10 10 17 4 11 6 31 7 56-1 1-59 8-48 5-54 4-63 3-64 2-48 1h-70l-84-2-73-3-60-4-52-5-53-7-14-2-1-3 7-54 6-31 5-13 10-16 10-10 10-6 16-5 17-3 56-1-16-15-14-14-7-8-12-13-11-14-13-18-9-16-9-19-6-20-2-11-1-18 2-20 5-20 8-21 12-24 12-20 17-25 13-18 16-21 15-20 14-18 10-14 11-16 11-17 10-17 14-26 13-29 13-35 12-36 3-10v-4l-16-4-12-6-8-7-5-8-2-6v-15l4-12 7-12 9-11 12-12 17-13 19-12 11-6-1-4-10-12-11-18-6-15-4-17-1-6v-26l4-20 6-16 7-13 8-11 9-10 9-9 14-10 16-8 18-6z" fill="#2F2F2E"/>
<path transform="translate(550,414)" d="m0 0h174l9 31 15 43 14 34 10 21-4 4-21 13-25 16-39 26-17 12-17 13-10 8-13 11-13 12-10 10-11 14-9 14-6 12-5 17-1 8v11l2 12 5 12 6 9 4 5 13 9 13 5 13 2h12l17-3 21-7 17-8 21-12 21-14 14-10 19-14 14-11 16-13 14-11 14-12 11-9 12-10h2l9 12 14 19 13 18 12 18 12 20 10 19 8 21 4 15 1 1 1 7v20l-4 19-6 15-10 19-12 17-9 11-12 14-7 7-7 8-15 15-8 7-10 10-8 7-13 12-5 1-52 3-54 2-45 1h-101l-58-2-31-2-7-3-17-13-13-12-7-7-8-7-20-20-7-8-10-11-13-17-10-15-8-14-8-21-3-16v-20l3-16 6-18 12-25 11-19 14-21 12-17 16-21 12-16 16-21 14-19 24-34 12-21 14-27 13-29 10-26 15-43z" fill="#E0E0E0"/>
<path transform="translate(364,1018)" d="m0 0 17 1 57 6 53 4 46 2h148l62-2 58-3 67-5 34-3h14l25 4 11 4 7 8 7 14 6 25 4 27v4l-49 6-43 4-64 4-79 3-39 1h-128l-71-2-66-3-57-4-57-6-23-3 2-19 5-26 5-16 7-12 7-6 13-4z" fill="#E0E0E0"/>
<path transform="translate(629,111)" d="m0 0h16l17 4 14 6 12 8 12 11 8 10 8 14 5 14 3 17v14l-3 17-6 16-8 13-9 10-4 4-22 4-12 1h-46l-19-2-15-3-5-4-11-14-8-16-4-13-2-11v-18l3-15 5-14 8-14 8-10 9-9 15-10 17-7z" fill="#E0E0E0"/>
<path transform="translate(364,1018)" d="m0 0 17 1 57 6 53 4 46 2h148l62-2 58-3 67-5 34-3h14l25 4 11 4 7 8 5 9v2l-79 5-94 5-73 3-35 1-65 1h-31l-58-1-68-3-72-5-72-6-5-1 6-12 8-7 13-4z" fill="#FDFDFD"/>
<path transform="translate(590,302)" d="m0 0 16 1 20 1h22l36-2 28 15 19 12 12 9 12 11 8 9 5 10 1 5-3 3-11 4-17 3-34 2h-133l-35-2-18-3-11-4-2-2 1-7 6-10 9-10 7-7 19-14 26-15z" fill="#E0E0E0"/>
<path transform="translate(850,664)" d="m0 0h2l9 12 14 19 13 18 12 18 12 20 10 19 8 21 4 15 1 1 1 7v20l-4 19-6 15-10 19-12 17-9 11-12 14-7 7-7 8-15 15-8 7-10 10-8 7-13 12-5 1-23 1 2-4 11-12 9-11 11-12 9-11 9-10 9-11 14-17 14-18 13-18 11-18 5-12 3-14v-11l-2-12-6-17-11-22-13-21-16-24-12-16-2-2-20 13-22 14-26 16-28 16-27 14-19 9-22 8-17 4-7 1h-18v-1l17-3 21-7 17-8 21-12 21-14 14-10 19-14 14-11 16-13 14-11 14-12 11-9z" fill="#B7B7B7"/>
<path transform="translate(697,628)" d="m0 0 2 1 4 13 8 16 10 15 9 11 11 11 12 8v2l-19 14-18 13-19 12-16 9-21 10-19 5h-17l-11-4-6-5-5-9-1-4v-15l4-13 8-15 9-11 9-10 11-11 8-7 16-13 20-15z" fill="#B7B7B7"/>
<path transform="translate(550,414)" d="m0 0 27 1-4 17-6 20-10 26-14 37-13 29-11 23-13 23-10 17-14 21-12 17-12 16-9 11-10 13-11 14-13 16-9 11-11 13-24 28-13 15-11 13-5 6-1-3 6-18 12-25 11-19 14-21 12-17 16-21 12-16 16-21 14-19 24-34 12-21 14-27 13-29 10-26 15-43z" fill="#FDFDFD"/>
<path transform="translate(629,111)" d="m0 0h15l-2 4-21 13-12 9-12 10-10 14-7 15-4 13-1 5v22l4 16 8 18 9 16 3 4v2l-10-1-9-2-5-4-11-14-8-16-4-13-2-11v-18l3-15 5-14 8-14 8-10 9-9 15-10 17-7z" fill="#FCFCFC"/>
<path transform="translate(718,414)" d="m0 0h6l9 31 15 43 14 34 10 21-4 4-19 12h-2l-10-17-9-20-7-21-8-32-9-42-1-12z" fill="#B7B7B7"/>
<path transform="translate(590,302)" d="m0 0 16 1 14 1 2 2-28 17-25 16-16 12-11 11-5 9 22 1 75 6 54 5v1h-140l-19-2-14-3-9-4-1-5 6-12 11-12 11-10 16-11 17-10z" fill="#FDFDFD"/>
<path transform="translate(678,302)" d="m0 0h6l28 15 19 12 12 9 12 11 8 9 5 10 1 5-3 3-11 4-7 1-9-17-11-12-7-7-14-11-18-14-19-14-2-3z" fill="#B7B7B7"/>
<path transform="translate(680,124)" d="m0 0 9 6 10 9 7 8 8 13 6 14 3 13 1 8v14l-3 17-6 16-8 13-9 10-5 4 2-5 7-15 4-13 3-21v-22l-2-14-6-18-9-17-12-18z" fill="#B7B7B7"/>
</svg>
    </g>
    <g id="wn">
<svg width="40" height="40" version="1.1" viewBox="0 0 1280 1280" xmlns="http://www.w3.org/2000/svg">
 <path transform="translate(582,120)" d="m-1.9445 11.137 3.7626 6.3588 17.166 13.984 4.0156 11.27 11 7.5 9.75 14.5 8.25 9.5 13.5 14 17.25 7.25 46 1.5 27.5 1.25 19 7.75 28 10.25 18.5 4.25 31 17.25 18.75 12.25 16 11.25 26 21.25 5.25 11 4.75 9.25 15.5 25.25 18.5 20.5 12.75 27.25 13 30 1.25 36.5 17.5 41.5 24.75 40.25-0.25 34.25-6.5 36.25 12.75 42.5 9.5 24.75v51.75l-6 25.5-6.5 32-10.5 20.5-3.5 27.25-6 17.25-14.5 14.5-10.5 20.5-15.5 19.25-6.25 9.5-8 9.5-10.75 11.25-7 12-5 14.25-2.75 22.75 10.25 10 24.5 3.5-18.75 0.25 20 2.25 20.25 7.5 11 11.75 6.75 17.75 0.25 21.25 10 42-6.5 13.75 4.75 6-46.75 1.25-48 8.25h-58.75l-48.75 1-38 2.75-228.75 4.25-72-2.5-64-2.75-54.75-5.25-40.25-18.75-27.75 9.75-1-2 31.188-44.812-13.688-25.625 4-13.5 5.4375-9.0625 3.875-9.6875 8-9.375 5.0625-3.375 10.188-4.1875 22.75-4.0625 14.534-0.2111 15.291-38.674-2.9498-26 3.5581-16.459 3.2877-20.879 16.071-20.884 2.7522-24.071 6.9948-9.4922 12.182-17.541 12.265-12.232 13.055-14.232 50.924-57.464 14.248-12.508 11.005-11.005 9.5303-13.21 8.7296-9.6967 15.359-19.381 8.7071-13.492 5.8232-24.419-2.1543-18.574-8.8388-17.109-34.652 6.9393-59.785 22.783-21 10-14 10-9 9-9 11-15 15-14 8-17 4h-39l-13-3 1-4 7-22 4-18v-12l4.1265-7.0659-2.5528-4.4142-6.0329-1-19.801-2.8284-17.094-8.4628-17.182 19.667-18.21 4.9567 0.12652 8.4524-9.5476-10.227-8.9341-12.204-15.685-11.199-12.215-12.674 3.2756-10.586-0.53033-10.641 5.2097-7.0502 3.4038-16.972 14.21-17.26 14.682-32.209 9-12 9-11 14.536 1.435 10.559-12.012 14.6-13.966 25.192-19.955 27.045-16.282 29.823-21.945 29.076-21.071-13.638 7.8596 22.496-17.016 10.884-10.348 9.7071-12.172 17.546-28.844 6.6412-23.636 7.8943-19.38 0.76776-13.581-3.2981-12.834-1.591-13.061 5.2981-12.464-1.955-19.005 12.47-26.414 15.409-18.399-1.7123-0.94239 17.045 14.407 17.066 9.1716c-6.9147 7.1853 9.8483 7.2553 14.639 7.4216l7.3765-18.775 15.071-10.288 1.9289-15.712 11-12z" fill="#e7e7e7"/>
 <path transform="translate(582,120)" d="m0 0 5 3 23 23 7 8 12 14 12 13 14 14 4 3 16 2 46 5 29 5 26 6 33 11 24 11 22 13 16 12 13 11 22 22 11 14 11 15 12 19 12 21 13 26 13 30 13 35 13 40 12 45 8 37 8 49 4 37 1 15v55l-3 29-6 31-7 24-11 27-12 23-12 19-10 14-10 13-8 10-9 11-12 15-8 13-3 10-1 17 14 1 19 4 10 4 11 8 7 7 8 13 6 12 6 29 6 45 2 17-1 1-59 8-48 5-55 4-63 3-29 1h-244l-74-3-61-4-51-5-54-7-14-2-1-2 7-55 6-31 4-10 7-13 7-9 10-9 10-5 13-4 18-3h10v-40l2-26 4-23 7-23 9-20 10-17 10-14 9-11 12-14 15-16 61-61 7-8 8-8 9-11 12-15 12-20 8-18 6-20 2-10v-5l-32 8-65 12-21 10-14 10-9 9-9 11-15 15-14 8-17 4h-39l-13-3 1-4 7-22 4-18v-12l-1-3-6-3-4-1h-16l-14 4-14 8-16 13-5 2-16-15-13-13-11-15-7-14-3-12v-14l3-12 8-16 12-20 16-24 9-12 9-11 11-12 17-17 14-11 16-12 35-23 30-20 19-14 15-13 8-8 10-13 9-15 8-17 10-30 1-4-1-18-1-7v-12l3-16 6-16 13-25 17-26 5 2 22 15 13 12 6 5 7-16 8-14 9-12 11-12zm1 43-6 8-9 16-7 17-4 12-9 16-9 12-8 9-13 10-16 8-16 5-3 1-8 26-6 16-10 21-12 18-8 10-11 12-11 10-17 13-17 12-29 19-30 20-16 12-13 11-9 8-7 8-10 11-12 16-10 15-13 21-9 16-2 8 1 9 6 12 9 11 6 6 5-2 14-8 18-6 5-1h25l12 3 11 6 5 4 6 9 3 10v22l-2 11 6 1 11-2 8-5 5-4 7-8 12-14 7-7 15-11 27-14 24-5 44-8 30-7 18-6 16-8 23.031-22.219v-2l3-1 7.375-7.9688 10.594-11.812 10-15 7-11 8-12 4-5 3-1 6 8 3 8v14l-7 14-8 13-9 11-9 10-25 25-8 7-7 7-2 11-4 23-6 21-8 20-8 15-12 18-11 14-10 11-7 8-10 10-7 8-63 63-7 8-11 13-14 19-12 22-7 19-4 16-3 25-1 38v15l2 1 49 5 54 4 61 2h177l55-2 55-4 40-4 18-2 1-1 2-24 3-12 8-16 14-19 2.0884-2.2322 1.9116-1.7678 11-14 12-15 13-18 12-20 10-19 9-23 6-20 5-23 3-25 1-14v-38l-3-39-5-37-6-34-9-39-8-30-9-29-10-29-12-30-12-26-11-22-15-25-12-17-13-16-15-16-22-18-19-12-17-9-23-9-23-7-28-6-35-5-53-5-12-11-8-7-16-16-9-11-12-13-6-7z" fill="#2f2f2e"/>
 <path transform="translate(340,1021)" d="m0 0h32l32 4 65 6 30 2 24 1h221l45-2 53-4 66-7h26l14 3 9 4 6 7 7 14 6 25 4 27v4l-49 6-43 4-64 4-78 3h-218l-78-3-64-4-52-5-40-5 2-19 5-26 5-16 8-13 6-5 13-4z" fill="#E7E7E7"/>
 <path transform="translate(996,599)" d="m0 0h1l6 41 3 31 1 17v38l-3 32-5 26-6 21-8 21-10 21-14 23-14 19-11 14-9 11-2 3-2 1.5026-2 2.4974-12 16-8 14-4 12-2 13-1 16-1 1-47 5-22 2h-11l1-17 5-30 6-21 9-21 10-17 11-16 14-19 14-18 13-18 16-23 11-17 12-21 14-29 10-26 16-47 14-39z" fill="#b7b7b7"/>
 <path transform="translate(340,1021)" d="m0 0h32l32 4 65 6 30 2 24 1h221l45-2 53-4 66-7h26l14 3 9 4 6 7 5 9v4l-44 3-107 6-93 4-33 1-53 1h-64l-47-1-65-3-72-5-83-7 1-7 7-10 5-4 13-4z" fill="#FCFCFC"/>
 <path transform="translate(583,163)" d="m0 0 6 5 7 8 12 14 11 12 14 14 11 9 2 4-12-3-15-8-19-14-12-9h-3l-12 36-6 12-10 13-11 10-18 12-27 14-7 3-2 3-5 17-11 27-10 20-10 16-13 16-16 16-17 13-24 16-24 15-30 20-14 11-12 11-8 7-11 12-12 14-12 16-13 18-21 31h-3l-3-10 1-9 8-16 15-24 8-12 12-16 11-13 21-21 14-11 18-13 23-15 39-26 16-12 11-9 13-12 9-10 12-17 9-16 9-20 10-31 1-4 17-5 16-8 11-8 10-9 11-15 10-18 5-15 8-18 8-13z" fill="#FCFCFC"/>
 <path transform="translate(647,481)" d="m0 0 2 1-6 7-9 14-10 16-9 11-10 11-2 3-1.9688 2.125-2.0312 1.875-17 16-9 6-12 6-18 6-30 7-65 12-23 11-14 9-11 9-7 7-9 11-9 10-9 6-6 2-10 1-3-2 2-10 1-17h1l1 6 9-9 8-7 15-14 8-7 14-12 17-13 16-8 20-4 30-5 43-9 16-4 19-9 12-8 10-9 11-11 7-8 11-10 14-9z" fill="#b7b7b7"/>
 <path transform="translate(555,697)" d="m0 0 1 3-8 21-9 19-12 19-12 16-13 15-9 10-7 8-14 15-9 10-13 15-12 15-10 15-10 19-6 18-3 15-2 23v42h-13l-10-1-2-1v-15l1-38 3-25 6-22 8-19 11-19 10-13 9-11 10-11 7-8 63-63 7-8 10-10 9-11 8-9 9-13z" fill="#FCFCFC"/>
 <path transform="translate(538,303)" d="m0 0 4 2 10 13 9 12 4 8v12l-6 10-10 6-13 5-14 3h-9l-10-5-4-5-3-8v-8l4-9 7-9 8-8 11-9z" fill="#212120"/>
 <path transform="translate(663,495)" d="m0 0 3 4 4 10 1 4v21l-5 15-9 16-11 14-13 14-11 9-15 12-22 15-1-4 4-26 3-5 11-11 8-7 26-26 11-14 10-17 5-10z" fill="#B7B7B7"/>
 <path transform="translate(293,532)" d="m0 0h7l8 5 4 8v8l-3 6-0.89515 1.0607-1.1049 0.93934-13 8-8 4-3 1h-8l-3-5-1-3v-10l5-9 7-9 7-5z" fill="#212120"/>
 <path transform="translate(499,194)" d="m0 0 4 2 19 19-2 5-7 9-9 7-15 7-7 2v-14l5-15 11-21z" fill="#E5E5E5"/>
</svg>
    </g>
    <g id="wr">
<svg width="40" height="40" version="1.1" viewBox="0 0 1280 1280" xmlns="http://www.w3.org/2000/svg">
 <path transform="translate(605,175)" d="m0 0h64l42 4 14 2 1 100 2 29 4 24 6 24 8-4 7-7 6-13 2-9 1-10v-20l-2-36v-46l10-2 50-5 33-2h33l33 2 47 5 16 2 1 67v63l-4 13-6 8-10 7-13 6-3 1-2 43-2 25-5 23-5 14-7 13-9 11-10 9-1 26-4 18-8 16-6 8-10 10-18 11-18 7 1 16 7 59 8 53 9 49 10 44 11 42 14 47 21 65v3h9l22 4 13 5 10 6 9 9 9 15 5 10 6 29 6 45 2 17-8 2-52 7-49 5-55 4-63 3-30 1h-240l-75-3-61-4-52-5-54-7-13-2-2-2 8-61 6-29 10-19 7-9 10-9 13-6 15-4 13-2h9l2-9 20-62 16-55 13-52 9-44 8-47 7-50 6-52v-7l-20-8-16-10-13-13-8-14-4-10-3-15-1-26-13-12-9-13-7-15-5-19-2-11-2-25-2-43-12-5-10-6-5-4-6-9-3-11v-63l1-67 52-6 24-2 20-1h33l33 2 50 5 10 2v46l-2 36v20l2 15 4 11 5 8 8 7 5 2 7-28 3-20 2-29 1-100 23-3z" fill="#30302F"/>
 <g fill="#E7E7E7">
  <path transform="translate(463,619)" d="m0 0 37 5 38 3 27 1h144l42-2 32-3 28-4 3 23 8 64 7 45 9 47 9 40 10 39 17 57 18 56v3l-2 1-49 5-52 4-65 2h-177l-62-2-41-3-43-4-17-2-2-1 1-7 16-49 15-50 13-49 11-50 8-44 8-54 8-68z"/>
  <path transform="translate(611,205)" d="m0 0h51l26 2 6 1 2 82 3 32 4 22 7 26 7 22v3l9-1 18-5 16-8 10-8 7-8 8-14 5-17 2-15v-29l-2-37v-13l13-2 36-3h60l45 4 8 1 1 72v27l-1 3-14 7-21 7h-2v58l-2 27-5 23-8 16-8 9-14 9-15 6-21 6-31 6-39 5-50 4-38 2h-97l-52-3-43-4-42-6-30-7-18-6-15-8-10-9-7-10-5-13-4-19-2-25-1-22v-39l-11-3-19-7-6-4-1-2v-41l1-59 38-4 14-1h61l46 4 3 1-1 31-1 16v34l3 18 5 14 6 11 11 12 10 7 16 7 19 5 4-1 10-31 6-24 4-26 2-26 1-79z"/>
  <path transform="translate(339,1021)" d="m0 0h33l41 5 45 4 47 3 26 1h212l42-2 56-4 47-5 14-2h33l16 4 8 5 7 10 5 12 6 27 3 22v4l-49 6-43 4-64 4-77 3h-220l-77-3-64-4-52-5-40-5 2-19 5-27 6-18 7-10 6-5 13-4z"/>
 </g>
 <path transform="translate(809,619)" d="m0 0h2l3 23 8 64 7 45 9 47 9 40 10 39 17 57 18 56v3l-2 1-49 5-52 4-65 2h-95l3-5 20-26 16-21 12-17 13-18 15-23 15-25 10-18 15-30 12-29 10-28 8-29 7-31 7-43 5-39 1-2z" fill="#B7B7B7"/>
 <path transform="translate(398,532)" d="m0 0 6 1 23 7 27 6 28 3 63 5 35 2 37 1h41l35-1 50-3 70-6 26-5 29-8 5-2h3l-1 12-4 12-6 8-7 7-12 7-17 6-25 6-35 5-24 2-19 1-119 1h-28l-50-2-33-3-26-4-22-5-18-6-13-7-8-7-7-11-4-15z" fill="#E6E6E6"/>
 <path transform="translate(880,235)" d="m0 0h19l45 4 8 1 1 72v27l-1 3-14 7-21 7h-2v58l-2 27-5 23-8 16-8 9-14 9-15 6-21 6-31 6-39 5-50 4-38 2h-8v-1l12-3 50-17 28-11 16-8 19-11 16-11 14-11 15-14 10-12 12-19 8-17 8-24 5-24 3-25v-39l-3-20-5-15-4-8z" fill="#B7B7B7"/>
 <path transform="translate(339,1021)" d="m0 0h33l41 5 45 4 47 3 26 1h212l42-2 56-4 47-5 14-2h33l16 4 8 5 7 10 1 2v6l-44 3-107 6-93 4-33 1-53 1h-64l-47-1-65-3-72-5-83-7 1-6 7-10 6-5 13-4z" fill="#FCFCFC"/>
 <path transform="translate(339,238)" d="m0 0h8v85l9 3 29 12 1 1v24l-1 36v30l3 14 5 13 9 17 22 33-4 1-18-6-15-8-10-9-7-10-5-13-4-19-2-25-1-22v-39l-11-3-19-7-6-4-1-2v-41l1-59z" fill="#FCFCFC"/>
 <path transform="translate(873,532)" d="m0 0h3l-1 12-4 12-6 8-7 7-12 7-17 6-25 6-35 5-24 2-19 1h-63l4-2 41-11 32-11 30-12 27-12 7-2 21-3 25-6 20-6z" fill="#B7B7B7"/>
 <path transform="translate(463,619)" d="m0 0 37 5 10 1 1 4-12 30-11 25-14 31-17 41-17 42-3 3-1-4 9-47 8-53 7-57 2-18z" fill="#FCFCFC"/>
 <path transform="translate(398,532)" d="m0 0 6 1 25 8v2l4 2 10 10 13 10 19 12 26 15 2 2-14-1-24-4-21-5-16-6-11-6-8-7-7-11-4-15z" fill="#FCFCFC"/>
</svg>
    </g>
    <g id="wp">
<svg version="1.1" viewBox="0 0 1280 1280" width="40" height="40" xmlns="http://www.w3.org/2000/svg">
<path transform="translate(634,285)" d="m0 0 24 2 23 5 21 7 25 12 11 7 16 12 10 9 15 15 10 13 11 17 13 27 6 19 4 18 2 14v26l-4 24-6 21-7 17-8 16-11 19-12 16-10 11-7 8-10 11 1 6 7 8 10 8 15 9 27 14 34 16 24 11 25 12 19 10 12 8 10 9 4 6 2 7-1 10-5 8-8 6-12 5-17 4-30 4-39 3-66 3h-9l4 24 5 19 7 16 8 14 9 11 9 10 29 29 10 13 8 15 5 15 3 16 1 9v9l13-2 20-3 30-2h25l18 4 12 5 11 8 10 10 10 17 4 11 6 31 7 56-1 1-59 8-48 5-55 4-58 3-64 2-49 1h-92l-84-2-53-2-77-5-51-5-54-7-13-2-1-1 1-14 6-46 6-29 5-12 10-16 7-7 8-7 10-5 13-4 19-3 47 3 20 3 8 1 1-16 3-16 5-15 8-15 7-9 9-10 29-29 11-14 9-15 6-14 5-16 4-20 1-10-33-1-58-3-33-3-30-5-16-5-9-6-6-7-2-5v-11l4-8 10-10 14-9 18-10 60-28 28-13 20-10 17-10 13-10 6-8 1-5-13-13-7-8-9-10-12-16-9-16-12-23-7-20-6-25-2-17v-16l3-22 4-17 6-18 12-25 14-21 9-11 14-15 11-9 13-10 15-9 16-8 15-6 20-6 24-4z" fill="#30302F"/>
<path transform="translate(624,313)" d="m0 0h21l18 3 15 4 19 7 17 9 12 8 11 9 12 11 7 8 12 16 9 16 7 15 6 19 4 20 1 9v13l-3 21-6 21-5 12-13 27-8 12-9 11-11 12-7 6-14 5-15 3-19 2-17 1h-66l-28-2-24-4-13-5-9-6-11-12-13-17-12-22-11-26-5-19-2-12-1-18 2-17 5-22 8-21 11-20 12-16 9-10 11-11 13-10 18-11 17-8 18-6 19-4z" fill="#E7E7E7"/>
<path transform="translate(350,1022)" d="m0 0h11l66 7 33 3 36 2 29 1h224l49-2 38-3 60-6 17-2h12l24 4 10 4 8 9 5 10 4 13 5 26 2 15v5l-48 6-56 5-66 4-55 2-38 1h-166l-68-2-60-3-56-4-57-6-21-3v-8l5-30 5-20 7-13 5-6 8-4 20-4z" fill="#E7E7E7"/>
<path transform="translate(547,799)" d="m0 0h176l3 22 4 19 8 23 10 19 10 14 12 14 32 32 9 13 5 12 4 17 1 16-3 1-26 2-61 2h-187l-61-2-30-2-5-1 1-16 4-17 4-10 9-13 34-34 9-11 9-12 10-17 8-20 6-22z" fill="#E7E7E7"/>
<path transform="translate(550,638)" d="m0 0 12 1 19 2 16 1h76l26-2 15-2h5l5 13 7 10 10 10 16 11 25 14 35 17 33 15 29 14 19 10 3 2v2l-21 4-29 3-51 3-51 2h-233l-71-3-40-3-29-4-9-2v-2l22-12 27-13 33-15 36-17 24-13 15-10 12-10 9-12 4-10z" fill="#E7E7E7"/>
<path transform="translate(350,1022)" d="m0 0h11l66 7 33 3 36 2 29 1h224l49-2 38-3 60-6 17-2h12l24 4 10 4 8 9 4 7v2l-135 8-86 4-61 2-54 1h-59l-47-1-67-3-84-6-70-6-3-1 2-6 7-9 8-4 20-4z" fill="#FCFCFC"/>
<path transform="translate(624,313)" d="m0 0h13l-4 4-16 11-14 10-13 10-16 13-13 12-11 11-11 14-10 15-9 19-5 15-4 20-1 12v15l2 19 5 23 8 26 13 33 3 8-6-2-9-7-7-8-10-12-9-14-8-15-11-26-5-19-2-12-1-18 2-17 5-22 8-21 11-20 12-16 9-10 11-11 13-10 18-11 17-8 18-6 19-4z" fill="#FDFDFD"/>
<path transform="translate(542,657)" d="m0 0 1 2-5 12-7 13-10 13-10 10-15 11-19 11-21 11-11 5 5 1 116 6 75 5 62 6 31 4v1h-218l-71-3-40-3-29-4-9-2v-2l22-12 27-13 33-15 36-17 24-13 15-10 12-10z" fill="#FCFCFC"/>
<path transform="translate(547,799)" d="m0 0h27l-1 12-5 30-7 27-8 20-10 18-10 13-9 10-7 8-15 14-10 9-9 12-5 12-3 17h-22l-5-1 1-16 4-17 4-10 9-13 34-34 9-11 9-12 10-17 8-20 6-22z" fill="#FDFDFD"/>
<path transform="translate(728,659)" d="m0 0 7 6 10 9 15 10 26 14 31 15 33 15 29 14 19 10 3 2v2l-21 4-29 3-51 3-25 1h-26v-1l48-7 29-6 7-2h4v-2l-5-2-25-16-15-11-16-12-14-12-24-24-7-8-3-3z" fill="#B7B7B7"/>
<path transform="translate(738,865)" d="m0 0 3 4 9 16 12 16 12 13 28 28 9 13 5 12 4 17 1 16-3 1-13 1h-12l-3-21-3-11-5-10-9-11-12-15-8-14-7-19-7-28z" fill="#B7B7B7"/>
<path transform="translate(746,362)" d="m0 0 5 5 9 10 9 13 8 14 7 15 6 19 4 20 1 9v13l-3 21-6 21-5 12-13 27-8 12-2 1 2-10 10-37 5-26 1-9v-30l-4-25-7-24-7-20-12-29z" fill="#B7B7B7"/>
</svg>
    </g>
    <g id="bk">
<svg width="40" height="40" version="1.1" viewBox="0 0 1280 1280" xmlns="http://www.w3.org/2000/svg">
 <path transform="translate(621,54)" d="m0 0h32l30 5 14 5 10 9 5 10 4 25 7 49 12 69 2 6v4h10l63 7 54 8 12 3 3 15 1 12v49l-2 16-5 14-1 1-86 10-18 2h-14v12l10 3 16 8 8 6 5 4 8 11 6 16 2 10v34l-3 15-7 19-6 10-7 9-8 6-6 3 4 16 4 7h7l11-4 16-10 14-11 11-9 15-13 12-11 8-7 13-12 24-22 10-9 13-12 8-7 10-9 10-8 11-9 13-11 16-12 16-10 10-5 7-2h13l9 5 6 7 4 11 1 8v12l-3 24-7 36-9 40-12 45-17 58-9 31-5 16-18 70-23 88-23 85-8 28-11 42-5 19h25l15 4 12 6 10 9 6 7 9 16 4 13 5 26 7 55-1 3-58 8-48 5-55 4-62 3-64 2-48 1h-76l-84-2-72-3-61-4-51-5-46-6-21-3-1-3 7-55 6-30 5-13 9-15 11-11 12-7 13-4 5-1h25l-14-54-8-29-6-21-21-78-19-73-10-37-6-23-7-28-6-19-18-61-12-44-9-36-9-44-4-25-1-10v-12l2-12 5-10 7-6 7-3h13l11 4 13 7 14 10 14 11 13 11 11 9 12 11 8 7 12 11 8 7 10 9 16 15 10 9 13 12 10 9 8 7 14 12 16 13 18 12 12 6 4 1h7l5-10 3-13-9-5-5-4-9-12-7-14-6-20-1-7v-34l4-16 7-14 9-10 9-7 16-8 9-3 2-12h-15l-104-12-5-14-2-13v-58l3-20 2-3 36-6 44-6 47-5h10l2-10 12-69 9-66 3-11 5-9 9-7 10-4 20-4z" fill="#181919"/>
 <g fill="#4D5353">
  <path transform="translate(1037,400)" d="m0 0h1v17l-1 1-6 35-11 49-11 42-22 75-10 33-15 59-8 30-20 77-21 77-12 43-12 46-3 9-10 2-51 5-43 3-55 2h-180l-55-2-55-4-34-3-13-2-3-3-8-30-17-63-7-24-25-94-17-65-6-23-12-47-6-19-8-26-7-25-7-23-8-30-7-27-11-52-4-25v-17l6 2 11 7 17 13 13 11 11 9 13 12 8 7 13 12 8 7 12 11 10 9 13 12 12 11 10 9 8 7 14 12 17 14 17 12 14 8 13 5 4 1h18l10-4 8-6 8-13 4-11 4-16 27-3 32-2h86l34 2 29 3 6 22 7 14 6 7 8 5 6 2 12 1 16-4 17-8 12-8 17-13 14-12 11-9 16-15 8-7 13-12 12-11 10-9 12-11 8-7 10-9 12-11 11-9 10-9 16-12 17-12z"/>
  <path transform="translate(355,1021)" d="m0 0h10l68 7 54 4 49 2h202l49-2 54-4 67-7h11l24 4 10 4 7 8 5 8 5 16 5 26 2 15v5l-48 6-43 4-64 4-77 3-41 1h-134l-71-2-66-3-57-4-57-6-22-3 1-13 4-24 5-19 4-9 6-9 6-5 8-3z"/>
  <path transform="translate(619,85)" d="m0 0h36l22 4 6 3 7 49 5 33 9 52 9 37 93 12 42 7 1 1v15l-1 19-2 12-112 15h-13l1 6 1 27h-13l-10-1-26-1h-74l-36 2h-13l1-27 1-6h-13l-66-9-46-6-2-15v-31l7-2 43-7 85-11 7-28 4-20 9-52 8-59 2-12 9-4z"/>
  <path transform="translate(607,404)" d="m0 0h60l45 3 27 5 18 6 10 6 7 8 4 11 1 6v18l-3 16-5 13-5 8-6 5-4 1-20-1-57-3h-82l-29 1-39 3h-12l-6-3-6-7-5-11-3-9-2-12v-21l3-11 6-9 6-5 12-6 12-4 28-5z"/>
 </g>
 <path transform="translate(1021,489)" d="m0 0h1l-1 9-12 46-22 75-10 33-15 59-8 30-20 77-21 77-12 43-12 46-3 9-10 2-51 5-13 1h-14l9-19 13-27 18-41 13-29 18-43 40-96 18-43 12-30 13-32 19-43 14-30 13-27 18-41z" fill="#414444"/>
 <g fill="#6F7474">
  <path transform="translate(355,1021)" d="m0 0h10l68 7 54 4 49 2h202l49-2 54-4 67-7h11l24 4 10 4 7 8 5 8v2l-62 4-111 6-74 3-37 1h-166l-51-2-65-4-86-7-4-1 2-5 6-9 6-5 8-3z"/>
  <path transform="translate(237,401)" d="m0 0 6 2 11 7 17 13 13 11 11 9 13 12 8 7 13 12 8 7 12 11 10 9 13 12 12 11 10 9 8 7 14 12 17 14 17 12 14 8 13 5 14 3v1h-16l-17-2-18-5-18-8-16-9-19-13-16-12-14-11-13-11-11-9-10-9-8-7-20-18-13-12-8-8-8-7-3-3 2 17 13 69 9 49 6 42v7l-2-3-8-26-7-23-6-22-6-20-11-42-8-37-6-30-2-14z"/>
  <path transform="translate(611,86)" d="m0 0h5l-1 18-6 54-12 90-6 40-1 2-25 3-84 8-42 3h-13v-21l7-2 43-7 85-11 7-28 4-20 9-52 8-59 2-12 9-4z"/>
 </g>
 <path transform="translate(847,310)" d="m0 0h1l-1 15-1 4-112 15h-13l1 6 1 27h-13l-16-2-1-3-3-39v-7l25-3 57-6 64-6z" fill="#414444"/>
 <path transform="translate(534,412)" d="m0 0h5l-6 7-7 7-7 14-1 4v18l4 10 7 8 10 6 24 8 31 6 28 4v1l-54 2-39 3h-12l-6-3-6-7-5-11-3-9-2-12v-21l3-11 6-9 6-5 12-6z" fill="#6F7474"/>
 <path transform="translate(675,405)" d="m0 0 25 1 18 2 25 5 16 6 9 6 6 7 4 11 1 6v18l-3 16-5 13-5 8-6 5-4 1-20-1-5-1 4-4 8-6 6-10 3-12v-24l-3-12-5-9-5-5-9-6-12-5-18-5-14-2-11-2z" fill="#414444"/>
 <path transform="translate(592,537)" d="m0 0h40l-4 2-52 14-33 11-17 9-3 2 2-6 4-11 4-16 27-3z" fill="#6E7373"/>
 <path transform="translate(721,540)" d="m0 0 20 2 6 22 7 14 6 7 8 5 6 2 9 2v1l-14 2h-11l-8-2-10-6-5-4-6-10-4-13-4-20z" fill="#414444"/>
</svg>
    </g>
    <g id="bq">
<svg version="1.1" viewBox="0 0 1280 1280" width="40" height="40" xmlns="http://www.w3.org/2000/svg">
<path transform="translate(627,83)" d="m0 0h20l19 4 19 7 14 8 13 10 14 14 10 14 8 15 6 18 3 16v24l-4 20-6 16-6 12-10 14-1 2 33 7 27 8 20 8 19 10 11-7 24-16 13-6 4-1h11l10 4 5 4 7 11 4 14 8 30 7 20 8 17 9 12 10 6 8 2h25l30-5 25-6 30-8 11-2h14l14 4 15 9 12 9 1 4-13 18-14 19-13 18-14 19-10 14-13 18-16 23-14 20-28 42-11 17-14 23-12 20-13 23-15 28-15 32-12 30-9 27-7 26-7 36-5 39-3 40-2 46-1 11 2-1 30-2h28l18 4 12 5 9 7 8 8 10 17 4 11 6 30 7 55-1 3-58 8-48 5-56 4-62 3h-304l-62-3-56-4-56-6-50-7-1-3 7-55 6-30 5-13 9-15 11-11 12-7 13-4 11-2h28l30 2 2 1-1-11-2-46-3-40-5-39-7-36-7-26-11-33-13-31-16-33-15-28-14-24-14-23-14-22-22-33-17-25-14-20-12-17-39-54-14-19-11-15-10-14 2-5 17-12 12-6 11-3h14l23 5 34 9 31 6 8 1h25l10-3 9-6 9-13 7-15 9-27 8-31 4-10 7-9 9-5 4-1h11l11 4 11 6 19 13 11 7 17-9 20-8 26-8 26-6 11-1-12-17-8-16-5-16-3-16v-24l4-20 6-16 7-13 8-11 9-10 9-9 14-10 16-8 18-6z" fill="#181919"/>
<path transform="translate(456,434)" d="m0 0 3 1 15 26 14 22 12 16 9 10 8 8 13 8 9 3h11l11-4 12-9 11-12 13-18 12-17 13-17 10-11 4-4 5 2 7 8 12 15 13 18 12 17 8 10 10 11 14 9 7 2h11l11-4 11-7 15-15 14-19 12-19 17-29 3-1 24 16 25 15 13 8 17 10 21 10 9 2h24l20-4 20-6 30-14 40-19 6-3 3 1-26 36-13 19-8 11-16 23-28 42-16 25-17 28-12 21-12 22-12 23-12 26-11 27-12 36-7 26-7 36-5 38-3 35-2 38-1 29-2 7-49 4-14 1h-296l-53-4-11-1-1-5-2-51-3-42-4-35-6-36-7-29-8-27-9-25-13-31-17-35-14-26-16-27-17-28-13-20-24-36-13-19-14-20-12-17-26-36-3-5 6 2 37 18 28 13 15 6 22 6 14 2h21l12-3 21-10 50-30 21-14z" fill="#4E5353"/>
<path transform="translate(333,1022)" d="m0 0h25l45 3 53 5 30 2h302l53-4 30-3 45-3h25l12 4 7 5 5 7 4 8 5 19 5 28 1 12-49 6-43 4-64 4-48 2h-278l-67-3-57-4-57-6-23-3 2-19 5-26 5-16 7-12 8-6z" fill="#4E5353"/>
<path transform="translate(615,300)" d="m0 0h42l36 3 33 5 28 6 23 7 21 9 13 7 14 10 13 12 11 14 9 16 6 14 6 19 2 11-11-6-21-14-11-7-8-3h-10l-9 4-10 9-14 24-13 21-12 17-11 12-8 7-5 2-8-6-9-10-13-18-12-17-14-18-11-12-9-8-8-4-3-1h-10l-9 4-8 6-11 11-11 14-12 16-11 16-10 13-9 10-7 4-9-6-11-11-11-15-14-22-14-24-4-6-9-8-9-4h-10l-10 4-24 16-16 10-1-4 5-17 8-21 9-16 12-16 13-12 13-9 16-9 20-8 22-7 33-7 37-5z" fill="#4E5353"/>
<path transform="translate(630,111)" d="m0 0h14l15 3 15 6 14 9 12 11 8 10 8 14 5 14 3 17v10l-3 17-6 16-9 15-13 14-7 5-22-1-31-1-35 2h-10l-10-8-10-11-9-15-6-16-3-15v-14l4-18 6-15 9-14 9-10 9-8 14-8 14-6z" fill="#4E5353"/>
<path transform="translate(980,576)" d="m0 0v3l-11 18-9 14-17 28-14 25-14 26-14 29-14 34-12 36-7 26-7 36-5 38-3 35-2 38-1 29-2 7-49 4h-5l1-53 3-45 5-44 6-36 7-31 9-29 8-21 13-27 13-21 13-17 9-11 11-12 14-15 15-14 13-12 11-9 15-13 14-11z" fill="#414444"/>
<path transform="translate(333,1022)" d="m0 0h25l45 3 53 5 30 2h302l53-4 30-3 45-3h25l12 4 7 5 5 7 3 6v4l-117 7-105 5-65 2h-146l-51-2-65-4-98-8-11-1-3-1 1-5 5-9 8-6z" fill="#6F7474"/>
<path transform="translate(456,434)" d="m0 0 3 1 15 26 14 22 12 16 9 10 11 11-7-2-19-11-17-12-16-13-9-9-5 2-19 12-21 12-27 13-18 6-14 3-8 1h-24l-18-3-24-8-8-4 21 33 13 19 12 18 12 19 11 19 12 23 11 27 12 35 6 20-1 4-13-28-15-29-13-23-18-30-12-19-16-25-17-25-13-19-14-20-12-17-26-36-3-5 6 2 37 18 28 13 15 6 22 6 14 2h21l12-3 21-10 50-30 21-14z" fill="#6F7474"/>
<path transform="translate(816,434)" d="m0 0 5 2 21 14 25 15 13 8 17 10 21 10 9 2h24l20-4 20-6 30-14 40-19 6-3 3 1-13 18-9 13-23 11-24 11-25 9-19 5-7 1h-28l-18-4-15-6-16-8-32-19-16-10-4 1-13 12-13 10-18 13-19 12-4 1 18-18 14-19 12-19 17-29z" fill="#414444"/>
<path transform="translate(392,311)" d="m0 0 4 1 12 7 14 10-2 4-11 12-12 17-9 17-8 21-6 20-7 34-6 4-15 7-4 1h-14l-24-5-18-7-16-8-34-16-21-10v-1l10 1 48 9 8 1h32l14-3 14-7 11-9 9-12 10-19 9-25 9-32z" fill="#6F7474"/>
<path transform="translate(880,311)" d="m0 0h2l11 41 8 23 10 21 8 11 6 7 13 9 12 5 17 3h16l19-2 54-10 3 1-29 14-28 13-21 10-19 6-16 3h-14l-11-4-13-7-2-6-6-29-7-24-9-21-10-18-10-13-9-10-3-3 1-3 21-14z" fill="#414444"/>
<path transform="translate(630,111)" d="m0 0h14l12 2 2 2-22 12-18 12-11 9-7 7-9 13-8 17-4 16v23l4 15 7 16 8 15v2h-10l-10-8-10-11-9-15-6-16-3-15v-14l4-18 6-15 9-14 9-10 9-8 14-8 14-6z" fill="#6F7474"/>
<path transform="translate(601,301)" d="m0 0h13l-4 2-39 10-29 9-28 11-20 10-21 13-14 11-10 9-8 10-8 15-5 16-15 10-10 6-1-4 5-17 8-21 9-16 12-16 13-12 13-9 16-9 20-8 22-7 33-7 37-5z" fill="#6F7474"/>
<path transform="translate(392,311)" d="m0 0 4 1 12 7 14 10-2 4-11 12-12 17-9 17-8 21-6 20-7 34-6 4-15 7-4 1h-14l-24-5v-1l17-2 13-4 14-7 8-7 7-10 6-12 5-17 4-27v-13l8-27z" fill="#4E5353"/>
<path transform="translate(761,317)" d="m0 0 10 2 21 8 19 10 14 10 13 12 11 14 9 16 6 14 6 19 2 11-11-6-12-8-13-26-9-14-10-13-11-12-11-10-14-11-20-15z" fill="#414444"/>
<path transform="translate(880,311)" d="m0 0h2l11 41 3 34 4 21 6 16 6 11 9 10 11 8 15 6 16 3-1 2-16 3h-14l-11-4-13-7-2-6-6-29-7-24-9-21-10-18-10-13-9-10-3-3 1-3 21-14z" fill="#4E5353"/>
<path transform="translate(681,125)" d="m0 0 7 4 12 11 8 10 8 14 5 14 3 17v10l-3 17-6 16-9 15-7 8-1-2 6-15 4-18 1-8v-28l-3-16-6-16-10-18-9-13z" fill="#414444"/>
<path transform="translate(880,311)" d="m0 0h2l1 4-7 10-10 15-3 3-7-8-4-4 1-3 21-14z" fill="#414444"/>
<path transform="translate(393,312)" d="m0 0 5 1 14 9 10 7-2 4-7 8h-3l-12-18-5-8z" fill="#6F7474"/>
</svg>
    </g>
    <g id="bb">
<svg width="40" height="40" version="1.1" viewBox="0 0 1280 1280" xmlns="http://www.w3.org/2000/svg">
 <path transform="translate(627,83)" d="m0 0h20l19 4 19 7 14 8 13 10 14 14 10 14 8 15 6 18 3 16v26l-3 16-5 15-8 16-10 14-7 8v3l18 10 16 11 10 8 10 9 8 8 10 14 5 11 2 7v14l-4 10-7 9-10 6-13 5-9 2v4l7 22 15 44 12 29 8 16 9 17 6 9v3l-19 12-23 14-24 15-18 12-1 10 3 12 10 19 11 14 9 9 10 6 5 2 6-1 26-20 17-14 14-11 16-12 4 1 14 18 9 12 16 21 12 17 20 30 12 21 8 16 8 19 6 22 2 9 1 18-2 20-5 19-6 15-11 21-8 12-12 16-11 13-11 12-12 13-15 15-7 6 66 1 17 3 16 5 11 7 10 10 10 17 4 11 6 31 7 56-1 1-59 8-48 5-55 4-63 3-64 2-49 1h-66l-84-2-74-3-61-4-51-5-54-7-14-2-1-2 7-55 6-31 4-11 10-17 11-11 10-6 16-5 17-3 56-1-16-15-14-14-7-8-12-13-11-14-13-18-9-16-9-19-6-20-2-11-1-18 2-20 5-20 8-21 12-24 12-20 17-25 13-18 16-21 15-20 14-18 10-14 11-16 11-17 10-17 14-26 13-29 13-35 12-36 3-10v-4l-16-4-12-6-8-7-5-8-2-6v-15l4-12 7-12 9-11 12-12 17-13 19-12 11-6-1-4-10-12-11-18-6-15-4-17-1-6v-26l4-20 6-16 7-13 8-11 9-10 9-9 14-10 16-8 18-6z" fill="#171818"/>
 <g fill="#4D5353">
  <path transform="translate(550,414)" d="m0 0h174l9 31 15 43 14 34 10 21-4 4-21 13-23 15-16 10-22 15-17 12-19 14-17 14-10 9-8 7-11 11-9 11-10 14-9 19-4 15-1 7v11l3 15 8 16 6 7 13 9 14 5 11 2h13l17-3 21-7 17-8 24-14 18-12 14-10 19-14 14-11 16-13 14-11 14-12 11-9 12-10h2l14 19 13 17 13 19 10 15 14 24 9 19 8 24 2 7 1 8v16l-3 17-7 19-9 17-8 12-10 13-11 13-9 10-7 7-7 8-7 7-8 7-12 12-8 7-15 14-6 1-53 3-56 2-48 1h-88l-65-2-31-2-5-2-18-14-13-12-17-16-19-19-7-8-9-10-13-17-12-18-8-16-6-16-3-15v-22l3-16 9-24 11-22 16-26 12-17 13-18 48-63 12-17 14-20 8-13 17-32 12-25 12-30 12-34 4-13 7-22z"/>
  <path transform="translate(365,1018)" d="m0 0 15 1 45 5 65 5 45 2 36 1h72l79-2 67-3 62-4 58-5h10l25 4 11 4 6 5 8 14 5 19 4 21 2 19-49 6-43 4-64 4-79 3-39 1h-128l-71-2-66-3-57-4-57-6-23-3 2-19 5-26 5-16 7-12 6-5 11-4z"/>
  <path transform="translate(630,111)" d="m0 0h16l19 5 16 8 13 10 9 9 10 15 7 16 3 13 1 8v14l-3 17-6 16-8 13-9 10-4 4-14 3-19 2h-48l-25-3-9-3-10-10-10-16-6-16-3-15v-19l5-21 8-16 9-13 10-10 13-9 17-8 12-3z"/>
 </g>
 <path transform="translate(365,1018)" d="m0 0 15 1 45 5 65 5 45 2 36 1h72l79-2 67-3 62-4 58-5h10l25 4 11 4 6 5 7 12v2l-98 6-99 5-52 2-37 1h-146l-51-2-65-4-98-8-6-1 5-10 6-7 9-4 22-4z" fill="#6F7474"/>
 <path transform="translate(590,302)" d="m0 0 19 1 18 1h20l37-2 28 15 16 10 14 10 13 12 8 9 5 10 1 5-3 3-11 4-17 3-32 2h-142l-29-2-17-3-10-4-3-2 1-7 6-10 11-12 10-9 21-14 21-12z" fill="#4D5353"/>
 <path transform="translate(850,664)" d="m0 0h2l14 19 13 17 13 19 10 15 14 24 9 19 8 24 2 7 1 8v16l-3 17-7 19-9 17-8 12-10 13-11 13-9 10-7 7-7 8-7 7-8 7-12 12-8 7-15 14-6 1-22 1 6-8 11-12 9-11 11-12 9-11 9-10 9-11 13-16 10-13 14-19 9-15 7-15 3-13v-15l-4-17-8-19-9-17-15-24-14-20-11-15-5 2-27 18-20 12-16 10-26 15-26 14-21 10-21 8-21 5-8 1h-16v-1l17-3 21-7 17-8 24-14 18-12 14-10 19-14 14-11 16-13 14-11 14-12 11-9z" fill="#414444"/>
 <path transform="translate(697,628)" d="m0 0 2 1 5 15 8 16 12 17 11 12 10 9 8 5v2l-19 14-18 13-19 12-16 9-21 10-13 4-6 1h-17l-11-4-6-5-5-9-1-4v-15l4-13 8-15 9-11 9-10 11-11 8-7 16-13 20-15z" fill="#414444"/>
 <g fill="#6F7474">
  <path transform="translate(550,414)" d="m0 0h11l16 1-7 28-9 24-13 35-13 31-14 29-13 25-14 23-10 15-12 17-14 19-10 12-12 16-13 16-8 10-9 11-12 14-9 11-10 11-9 11-9 10-9 11-6 7-1-4 9-24 11-22 16-26 12-17 13-18 48-63 12-17 14-20 8-13 17-32 12-25 12-30 12-34 4-13 7-22z"/>
  <path transform="translate(630,111)" d="m0 0h14l-2 4-18 11-14 10-13 11-9 12-9 19-4 16v23l4 15 7 16 8 15 5 8v1l-11-1-9-3-10-10-10-16-6-16-3-15v-19l5-21 8-16 9-13 10-10 13-9 17-8 12-3z"/>
  <path transform="translate(590,302)" d="m0 0 19 1 11 1 2 2-20 12-19 12-21 14-10 8-6 5-7 10-2 4 21 1 75 6 54 5 3 2h-126l-29-2-17-3-10-4-3-2 1-7 6-10 11-12 10-9 21-14 21-12z"/>
 </g>
 <g fill="#414444">
  <path transform="translate(719,414)" d="m0 0h5l9 31 15 43 14 34 10 21-4 4-19 12-5-5-13-25-9-25-7-27-9-41-3-16v-5z"/>
  <path transform="translate(678,302)" d="m0 0h6l28 15 16 10 14 10 13 12 8 9 5 10 1 5-3 3-11 4-7 1-8-16-8-10-9-9-14-11-18-14-19-14-5-4z"/>
  <path transform="translate(681,125)" d="m0 0 7 4 12 11 8 10 8 14 5 14 3 17v14l-3 17-6 16-8 13-9 10-4 3 2-5 7-16 5-21 1-8v-28l-3-16-6-16-10-18-9-13z"/>
 </g>
</svg>
    </g>
    <g id="bn">
<svg width="40" height="40" version="1.1" viewBox="0 0 1280 1280" xmlns="http://www.w3.org/2000/svg">
 <path transform="translate(582,120)" d="m0 0 5 3 23 23 7 8 12 14 12 13 14 14 4 3 16 2 46 5 30 5 32 8 26 9 24 11 22 13 16 12 13 11 11 10 7 8 9 10 13 17 10 15 9 15 12 22 15 31 13 32 10 28 11 34 12 45 9 42 6 37 4 33 2 25v56l-3 29-5 27-8 28-11 27-12 23-12 19-10 14-10 13-8 10-9 11-12 15-8 13-3 10-1 17h8l25 5 10 4 11 8 7 7 8 13 6 12 6 29 6 44 2 18-1 1-59 8-48 5-55 4-62 3-28 1h-248l-72-3-61-4-51-5-54-7-14-2-1-2 7-55 6-31 4-10 7-13 7-9 10-9 12-6 21-5 7-1h11v-41l2-25 4-23 6-20 9-21 11-19 10-14 9-11 12-14 14-15 62-62 7-8 7-7 9-11 10-12 10-15 9-17 7-19 5-21 1-5-24 6-35 7-39 7-21 10-14 10-8 8-9 11-12 12-8 7-13 6-14 3h-39l-14-3 4-10 7-24 2-10v-12l-1-3-6-3-4-1h-16l-14 4-14 8-16 13-5 2-16-15-13-13-11-15-7-14-3-12v-14l3-12 8-16 12-20 16-24 9-12 9-11 9-10 19-19 14-11 16-12 38-25 27-18 19-14 15-13 8-8 10-13 9-15 8-17 10-30 1-4-1-18-1-1v-18l3-16 6-16 8-16 10-17 12-18 5 2 22 15 13 12 5 5 8-16 8-14 9-12 11-12z" fill="#4E5353"/>
 <path transform="translate(582,120)" d="m0 0 5 3 23 23 7 8 12 14 12 13 14 14 4 3 16 2 46 5 30 5 32 8 26 9 24 11 22 13 16 12 13 11 11 10 7 8 9 10 13 17 10 15 9 15 12 22 15 31 13 32 10 28 11 34 12 45 9 42 6 37 4 33 2 25v56l-3 29-5 27-8 28-11 27-12 23-12 19-10 14-10 13-8 10-9 11-12 15-8 13-3 10-1 17h8l25 5 10 4 11 8 7 7 8 13 6 12 6 29 6 44 2 18-1 1-59 8-48 5-55 4-62 3-28 1h-248l-72-3-61-4-51-5-54-7-14-2-1-2 7-55 6-31 4-10 7-13 7-9 10-9 12-6 21-5 7-1h11v-41l2-25 4-23 6-20 9-21 11-19 10-14 9-11 12-14 14-15 62-62 7-8 7-7 9-11 10-12 10-15 9-17 7-19 5-21 1-5-24 6-35 7-39 7-21 10-14 10-8 8-9 11-12 12-8 7-13 6-14 3h-39l-14-3 4-10 7-24 2-10v-12l-1-3-6-3-4-1h-16l-14 4-14 8-16 13-5 2-16-15-13-13-11-15-7-14-3-12v-14l3-12 8-16 12-20 16-24 9-12 9-11 9-10 19-19 14-11 16-12 38-25 27-18 19-14 15-13 8-8 10-13 9-15 8-17 10-30 1-4-1-18-1-1v-18l3-16 6-16 8-16 10-17 12-18 5 2 22 15 13 12 5 5 8-16 8-14 9-12 11-12zm1 43-8 11-8 16-6 14-4 13-10 17-11 14-7 7-14 10-12 6-16 5-4 1-8 27-8 20-12 23-10 14-11 13-12 12-14 11-13 10-72 48-16 12-13 11-18 18-9 11-14 19-14 22-13 22-2 6v12l4 9 6 9 11 12 5-2 14-8 13-5 9-2 9-1h11l12 2 13 5 10 8 6 10 2 7 1 16-2 18h11l9-3 10-9 12-13 7-8 7-7 14-10 23-12 9-4 62-11 34-8 17-6 15-8 12-11 19-19 1.0697-1.204 0.93032-0.79604 9-11 11-16 10-16 10-13 4 2 5 9 3 9-1 10-8 16-6 10-9 11-9 10-10 11-8 7-11 11-8 7-4 4-6 35-7 24-9 20-9 16-11 16-9 11-12 14-8 8-7 8-66 66-7 8-10 11-13 17-10 15-11 23-5 15-4 20-2 17-1 53 2 1 40 4 49 4 15 1 69 2h159l61-2 44-3 53-5 20-3 1-18 3-15 6-14 10-15 11-14 8-9 13-17 12-16 12-19 11-20 8-19 7-21 5-21 4-25 2-28v-28l-2-32-5-42-7-40-9-40-11-40-12-36-11-30-11-25-12-25-12-22-13-20-14-19-12-13-17-17-17-13-18-11-16-8-19-8-23-7-26-6-33-5-60-6-10-9-8-7-9-8-7-8-11-12-9-11-9-10z" fill="#161717"/>
 <path transform="translate(341,1021)" d="m0 0h30l52 6 56 5 43 2 43 1h143l63-2 50-3 53-5 36-4h23l18 4 9 6 6 10 4 9 6 26 4 25v4l-49 6-43 4-65 4-79 3h-214l-79-3-65-4-52-5-40-5 2-19 7-33 4-10 6-11 8-6 9-3z" fill="#4E5353"/>
 <path transform="translate(996,601)" d="m0 0h1l5 33 3 27 2 32v28l-2 28-5 30-6 23-9 24-8 17-13 22-12 17-13 17-13 16-10 12-10 15-7 14-3 11-1 7-1 18-20 3-53 5h-8l1-17 4-25 5-19 7-19 12-23 13-19 14-19 14-18 13-18 16-23 13-20 13-24 11-23 10-26 19-55 12-34 5-16z" fill="#414444"/>
 <path transform="translate(341,1021)" d="m0 0h30l52 6 56 5 43 2 43 1h143l63-2 50-3 53-5 36-4h23l18 4 9 6 6 10 2 3v4l-117 7-105 5-65 2h-146l-51-2-65-4-98-8-11-1-3-1 1-5 6-10 9-6z" fill="#6F7474"/>
 <path transform="translate(583,163)" d="m0 0 12 12 9 11 14 15 5 6 8 7 12 11 2 1v2l-10-2-14-7-14-10-19-14-3-1-13 39-7 13-11 12-7 7-13 9-14 8-16 8-11 6-10 29-10 23-10 19-11 16-12 14-11 11-14 11-18 13-18 11-22 14-21 14-12 9-11 9-13 12-8 8-7 8-11 13-12 16-13 18-21 31-2-1-2-6v-12l4-10 14-23 14-21 12-16 12-14 18-18 14-11 18-13 29-19 30-20 14-10 16-13 10-9 9-9 13-17 9-15 11-23 10-30 2-8 17-5 12-5 13-9 12-11 10-13 11-19 5-16 8-18 10-16z" fill="#6F7474"/>
 <path transform="translate(647,481)" d="m0 0v3l-8 11-8 13-11 16-9 11-1.5522 1.6667-2.4478 2.3333-25 25-11 7-13 6-20 6-31 7-57 10-25 12-16 10-13 12-12 13-7 8-9 8-9 3h-11l2-18 3-5 8-8 8-7 15-14 8-7 14-12 17-13 16-8 20-4 30-5 43-9 16-4 19-9 12-8 10-9 11-11 7-8 11-10 14-9z" fill="#414444"/>
 <path transform="translate(555,696)" d="m0 0 1 4-8 21-11 22-11 17-9 12-9 11-9 10-7 8-22 24-10 11-9 11-11 13-14 21-8 16-6 17-4 22-1 12v47h-12l-11-1-2-1 1-53 3-23 5-21 8-19 9-17 10-14 13-16 12-13 9-10 65-65 7-8 12-13 11-14z" fill="#6F7474"/>
 <path transform="translate(539,302)" d="m0 0 4 4 13 17 7 10 2 4 1 8-2 8-7 9-15 7-13 4-5 1h-13l-6-3-2.2603-1.5954-1.7397-2.4046-4-6-1-4v-11l6-11 16-16 9-7z" fill="#161717" style="fill:#161717"/>
 <path transform="translate(663,495)" d="m0 0 3 4 4 10 1 4v20l-4 13-8 16-9 12-9 10-5 6-8 7-13 11-17 12-12 8h-2l5-32 10-10 8-7 11-11 8-7 9-10 10-12 7-10 9-17 2-7z" fill="#414444"/>
 <path transform="translate(293,532)" d="m0 0h8l7 5 4 7 1 7-4 8-8 6-12 7-6 2h-9l-3-8v-11l6-10 6-7 7-5z" fill="#161717"/>
 <path transform="translate(499,194)" d="m0 0 5 3 18 18-2 5-7 9-9 7-15 7-7 2v-13l4-13 8-17z" fill="#4E5353"/>
</svg>
    </g>
    <g id="br">
<svg version="1.1" viewBox="0 0 1280 1280" width="40" height="40" xmlns="http://www.w3.org/2000/svg">
<path transform="translate(605,175)" d="m0 0h64l42 4 14 2 1 100 2 29 4 24 6 24 7-4 5-5 6-9 4-13 1-8v-30l-2-40v-36l11-2 50-5 33-2h33l33 2 47 5 16 2 1 67v63l-4 13-6 8-10 7-13 6-3 1-2 43-2 25-5 23-5 14-7 13-9 11-10 9-1 26-4 18-8 16-6 8-10 10-18 11-18 7 1 16 7 59 8 53 9 49 10 44 11 42 14 47 21 65v3h9l22 4 13 5 10 6 9 9 9 15 5 10 6 29 6 45 2 17-8 2-52 7-49 5-55 4-63 3-30 1h-240l-75-3-61-4-52-5-54-7-13-2-2-1 1-15 6-45 6-29 5-11 8-14 8-9 10-7 16-6 22-4h8l3-11 19-59 13-44 12-45 10-45 9-50 7-47 7-58 2-20-6-1-18-8-11-7-12-11-9-13-5-12-4-20-1-24-8-7-7-7-9-14-6-16-4-16-2-12-2-28-1-30-1-7-14-6-10-7-7-8-4-10v-133l1-1 52-6 24-2 20-1h33l33 2 50 5 10 2v46l-2 36v20l2 15 4 11 5 8 8 7 4 2 6-22 4-23 2-24 1-49v-58l6-2 38-4z" fill="#181919"/>
<path transform="translate(463,620)" d="m0 0 13 1 23 3 36 3 23 1h157l38-2 38-4 13-2h6l3 23 8 64 9 56 10 50 10 42 12 43 15 49 14 43v3l-20 3-57 5-30 2-71 2h-157l-70-2-53-4-32-3-16-2-3-1 1-7 17-52 14-47 12-45 9-40 5-25 8-46 8-57 6-53z" fill="#4D5353"/>
<path transform="translate(615,205)" d="m0 0h43l28 2 7 1 1 26 1 55 2 25 4 25 7 28 9 27 5 1 19-5 16-7 12-9 8-9 8-14 5-17 2-15v-30l-2-37v-12l14-2 38-3h53l37 3 18 2 1 1 1 75v22l-2 5-13 6-21 7h-2v56l-2 28-4 20-5 13-6 10-7 7-13 8-15 6-21 6-32 6-28 4-45 4-54 3h-94l-52-3-43-4-37-5-33-7-23-8-14-8-10-9-6-10-4-9-4-16-2-16-1-14v-62l-5-1-22-7-10-6-1-2v-49l1-51 40-4 14-1h55l38 3 14 2-1 31-1 17v32l3 19 5 14 6 11 11 12 14 9 15 6 16 4 5-1 10-31 6-24 4-26 2-25 1-80z" fill="#4D5353"/>
<path transform="translate(339,1021)" d="m0 0h32l52 6 42 4 60 3 39 1h143l44-1 56-3 75-7 24-3h26l18 4 8 5 3 3 4 7 4 9 6 25 4 27v4l-49 6-43 4-64 4-79 3h-215l-79-3-64-4-52-5-40-5 2-19 5-26 5-17 8-12 6-5 13-4z" fill="#4D5353"/>
<path transform="translate(804,620)" d="m0 0h6l3 23 8 64 9 56 10 50 10 42 12 43 15 49 14 43v3l-20 3-57 5-30 2-71 2h-84l4-6 10-13 13-17 12-16 13-18 12-17 10-15 12-19 14-24 15-29 14-32 10-28 8-26 8-34 7-41 6-46 1-3z" fill="#414444"/>
<path transform="translate(398,532)" d="m0 0 10 3 26 7 25 5 57 5 42 3 46 2h66l45-2 91-7 25-4 30-8 12-4h2l-1 11-3 10-5 9-9 9-12 7-24 8-24 5-39 5-33 2-143 1-50-2-36-3-32-5-23-6-19-8-9-7-7-7-6-12-2-10z" fill="#4D5353"/>
<path transform="translate(880,235)" d="m0 0h15l37 3 18 2 1 1 1 75v22l-2 5-13 6-21 7h-2v56l-2 28-4 20-5 13-6 10-7 7-13 8-15 6-21 6-32 6-28 4-45 4-32 2h-21l3-2 47-16 31-12 11-5 23-13 15-10 12-9 14-12 10-10 10-13 9-15 8-17 8-24 5-22 3-24v-44l-3-19-6-17z" fill="#414444"/>
<path transform="translate(339,1021)" d="m0 0h32l52 6 42 4 60 3 39 1h143l44-1 56-3 75-7 24-3h26l18 4 8 5 3 3 4 7 2 3v5l-117 7-105 5-65 2h-146l-51-2-65-4-98-8-11-1-3-1 1-5 8-11 5-4 13-4z" fill="#6F7474"/>
<path transform="translate(341,238)" d="m0 0h5l1 84 13 6 25 10 1 1v17l-1 39v36l4 16 10 21 13 21 11 16v2l-9-2-16-6-12-7-10-9-6-10-4-9-4-16-2-16-1-14v-62l-5-1-22-7-10-6-1-2v-49l1-51z" fill="#6F7474"/>
<path transform="translate(873,532)" d="m0 0h2l-1 11-3 10-5 9-9 9-12 7-24 8-24 5-39 5-33 2h-61l4-2 37-10 30-10 33-13 25-11 6-3 32-5 30-8z" fill="#414444"/>
<path transform="translate(463,620)" d="m0 0 13 1 23 3 10 1 2 1-3 10-15 37-14 30-16 38-20 49-7 17h-1l1-10 5-25 9-54 7-52 5-45z" fill="#6F7474"/>
<path transform="translate(398,532)" d="m0 0 10 3 21 6 16 16 18 13 20 12 19 11v1l-12-1-26-4-23-6-19-8-9-7-7-7-6-12-2-10z" fill="#6F7474"/>
</svg>
    </g>
    <g id="bp">
<svg version="1.1" viewBox="0 0 1280 1280" width="40" height="40" xmlns="http://www.w3.org/2000/svg">
<path transform="translate(634,285)" d="m0 0 23 2 20 4 20 6 18 8 17 9 17 12 13 11 16 16 13 17 11 18 10 21 7 21 5 24 1 8v26l-4 24-6 21-8 19-12 23-10 15-8 11-11 12-7 8-9 10 1 6 7 8 7 6 18 11 27 14 36 17 24 11 25 12 17 9 12 8 10 9 5 9 1 10-3 8-6 7-14 7-20 5-30 4-39 3-67 3h-8l4 24 5 19 7 16 8 14 13 16 33 33 11 14 8 16 5 14 3 16 1 9v9l3-1 21-2 10-2 30-2h24l18 4 12 5 11 8 9 9 8 13 6 12 6 29 6 45 2 17-1 1-59 8-49 5-55 4-33 2-90 3-51 1h-84l-87-2-53-2-64-4-56-5-55-7-21-3-1-5 6-50 6-31 4-11 8-15 7-9 7-6 5-5 13-6 15-4 6-1h24l30 2 17 3 12 1 1-16 3-16 6-17 7-13 11-14 34-34 11-14 8-13 8-18 6-23 3-18v-3l-55-2-48-3-35-4-20-4-14-5-8-6-5-6-2-5v-10l4-9 10-10 14-9 23-12 29-14 33-15 33-16 17-9 15-10 9-8 4-7-1-4-11-11-7-8-10-11-12-16-14-25-8-17-8-24-5-25-1-10v-16l3-22 5-20 8-22 12-23 11-16 11-13 11-12 14-12 16-11 14-8 19-9 21-7 17-4 14-2z" fill="#181919"/>
<path transform="translate(622,313)" d="m0 0h23l18 3 15 4 19 7 17 9 12 8 11 9 12 11 7 8 10 13 9 15 9 19 6 19 4 19 1 9v15l-3 20-6 21-5 12-14 29-10 14-13 15-8 8-10 5-16 4-25 3-17 1h-66l-28-2-24-4-13-5-8-6-10-10-9-11-10-15-12-24-6-15-5-16-3-16-1-9v-13l3-21 4-14 7-19 11-21 10-14 11-13 11-11 17-13 17-10 17-8 19-6z" fill="#4E5353"/>
<path transform="translate(349,1022)" d="m0 0h13l66 7 50 4 51 2h216l51-2 39-3 60-6 18-2h12l24 4 10 4 7 8 6 11 4 13 5 26 2 15v5l-48 6-56 5-66 4-56 2-38 1h-164l-69-2-60-3-55-4-49-5-30-4 1-16 6-31 5-16 7-11 5-4 9-4z" fill="#4E5353"/>
<path transform="translate(547,799)" d="m0 0h176l3 22 4 19 8 23 10 19 10 14 12 14 32 32 9 13 5 12 3 11 2 17v5l-3 1-26 2-61 2h-186l-62-2-32-2-3-1 1-16 4-17 4-9 6-10 11-12 28-28 9-11 10-14 9-17 7-19 5-18z" fill="#4E5353"/>
<path transform="translate(550,638)" d="m0 0 12 1 34 3h78l45-4 5 13 7 10 10 10 16 11 25 14 35 17 33 15 33 16 15 8 3 2v2l-22 4-29 3-50 3-53 2h-234l-69-3-40-3-23-3-14-3v-2l26-14 28-13 39-18 29-14 22-12 17-12 9-8 9-13z" fill="#4E5353"/>
<path transform="translate(349,1022)" d="m0 0h13l66 7 50 4 51 2h216l51-2 39-3 60-6 18-2h12l24 4 10 4 7 8 4 7v3l-138 8-86 4-65 2h-146l-51-2-65-4-98-8-16-2 2-5 4-7 5-4 9-4z" fill="#6F7474"/>
<path transform="translate(622,313)" d="m0 0h15l-4 4-12 8-17 12-13 10-16 13-12 11-15 15-10 13-10 16-9 19-5 16-3 15-1 11v21l3 23 6 24 11 32 10 24 1 3-6-2-10-9-12-13-10-14-12-23-8-18-5-15-4-20-1-9v-13l3-21 4-14 7-19 11-21 10-14 11-13 11-11 17-13 17-10 17-8 19-6z" fill="#6F7474"/>
<path transform="translate(542,657)" d="m0 0 1 2-7 16-7 12-11 13-11 10-21 14-27 14-15 7 2 1 117 6 62 4 67 6 42 5v1h-221l-69-3-40-3-23-3-14-3v-2l26-14 28-13 39-18 29-14 22-12 17-12 9-8z" fill="#6F7474"/>
<path transform="translate(547,799)" d="m0 0h27l-3 24-5 26-7 24-8 19-9 15-10 13-9 10-22 22-8 7-9 11-5 11-3 13-1 7h-24l-3-1 1-16 4-17 4-9 6-10 11-12 28-28 9-11 10-14 9-17 7-19 5-18z" fill="#6F7474"/>
<path transform="translate(733,664)" d="m0 0 7 6 15 11 27 15 35 17 33 15 33 16 15 8 3 2v2l-22 4-29 3-50 3-26 1h-23v-1l48-7 24-5 11-3h3l-3-3-22-14-17-12-16-12-11-9-12-11-14-14-7-8z" fill="#414444"/>
<path transform="translate(739,867)" d="m0 0 3 4 8 14 12 16 12 13 28 28 9 13 5 12 3 11 2 17v5l-3 1-12 1h-13l-3-23-5-15-9-12-12-14-8-13-6-13-6-19-5-22z" fill="#414444"/>
<path transform="translate(747,363)" d="m0 0 5 5 9 10 10 15 11 21 8 24 4 19 1 9v15l-3 20-6 21-5 12-14 29-8 11-1-2 11-40 5-23 2-15v-34l-4-24-8-27-10-27-7-17z" fill="#414444"/>
</svg>
    </g>
</svg>
