<?xml version="1.0" encoding="UTF-8"?>

<svg width="40px" height="40px" viewBox="0 0 40 40" version="1.1" xmlns="http://www.w3.org/2000/svg">
    <title>cm-chessboard pieces and markers sprite</title>
    <desc>Chess pieces and markers for the cm-chessboard (https://shaack.com/projekte/cm-chessboard/).</desc>

    <g id="wk">
        <svg xmlns="http://www.w3.org/2000/svg" width="40" height="40" fill-rule="evenodd" clip-rule="evenodd" image-rendering="optimizeQuality" shape-rendering="geometricPrecision" text-rendering="geometricPrecision" viewBox="0 0 50 50"><g stroke-width="1.04"><path fill="#e9e9e9" stroke="#2a2a2a" stroke-width="1.559" d="M3281.9-2090.7c6.361 0 11.51-.56 11.51-1.249l1.342-6.525c11.336-7.821 6.689-19.658-3.35-19.615-2.083.01-4.893.53-6.264 1.338l-.876-4.1h3.895c1.17.13 1.77-1.6 1.77-2.668 0-1.067-.592-2.667-1.77-2.667h-3.388v-3.092c0-.97-1.804-1.455-2.89-1.455s-2.892.485-2.892 1.455v3.092h-3.388c-1.18 0-1.77 1.6-1.77 2.667 0 1.068.6 2.799 1.77 2.668h3.895l-.876 4.1c-1.37-.807-4.18-1.328-6.264-1.338-10.038-.043-14.685 11.794-3.35 19.615l1.342 6.525c0 .689 5.15 1.246 11.51 1.249h.023z" style="paint-order:normal" transform="matrix(.96234 0 0 .9617 -3133.3 2054.9)"/><path d="M3287.7-2126.4c-.55-.01-.968.097-.986.185.738.752 3.757 4.344-3.738 3.792-.902.506.15 7.329.891 9.249 0 0 1.22-.547 2.05-.977 14.764-4.253 12.707 12.372 3.903 15.299-5.255.795-13.114 1.12-18.294.35l.413 2.538c6.744.603 6.596.464 15.112.59 4.2 2.842-11.95 3.965-16.7 3.396.092.263 23.03 1.225 23.058.036l1.342-6.56c11.335-7.821 6.69-19.657-3.348-19.615-.876 0-1.877.103-2.849.271l-3.411 1.065-.876-4.099h3.894c1.027.294 1.743-1.58 1.77-2.668.151-2.251-1.43-2.704-2.228-2.852z" opacity=".4" style="opacity:.2" transform="matrix(.96234 0 0 .9617 -3133.3 2054.9)"/><path fill="#fff" d="M3282.9-2129.8c-.942-.253-2.572-.194-3.17.55-.044.056-.034.215-.033.296l.028 3.576h-3.453c-.296 0-.787-.016-.97.088-.37.206-.717.94-.75 1.79-.027.689.5 1.896.877 1.93.237.02.576-.029 1.182-.01-1.884-.7-1.398-3.503-.2-3.451l3.63-.028-.046-3.143c-.014-.97.65-1.471 1.737-1.471.427 0 1.428.04 1.924.191-.519-.301-.757-.316-.757-.316zM3279.9-2119.2l-.77 3.661c-1.37-.807-4.11-1.766-6.193-1.775-9.415-.753-14.415 10.655-3.24 18.389l1.349 6.62.108.015-.452-6.716c-10.51-7.743-6.864-17.498 3.174-17.455 2.084.01 4.254.978 5.625 1.785l.908-6.87z" style="paint-order:normal" transform="matrix(.96234 0 0 .9617 -3133.3 2054.9)"/></g></svg>
    </g>
    <g id="wq">
        <svg xmlns="http://www.w3.org/2000/svg" width="40" height="40" fill-rule="evenodd" clip-rule="evenodd" image-rendering="optimizeQuality" shape-rendering="geometricPrecision" text-rendering="geometricPrecision" viewBox="0 0 50 50"><g stroke-width="1.026"><path fill="#e9e9e9" stroke="#2a2a2a" stroke-width="1.538" d="M3475.9-2129.1a4.37 4.37 0 0 0-4.373 4.367c0 1.98 1.34 3.71 3.258 4.216v11.158l-5.362-7.492c.485-.72.746-1.568.746-2.435a4.37 4.37 0 0 0-4.375-4.367 4.37 4.37 0 0 0-4.373 4.367c.065 2.14 1.935 3.816 4.328 4.365l.88 4.236 1.76 8.474 2.765 5.191 1.12 6.47c0 .801 4.318 1.45 9.647 1.45 5.329 0 9.648-.649 9.648-1.45l1.12-6.47 2.765-5.19 1.76-8.475.879-4.236c2.393-.55 4.264-2.225 4.328-4.365a4.37 4.37 0 0 0-4.373-4.367 4.37 4.37 0 0 0-4.374 4.367c0 .867.26 1.715.745 2.435l-5.361 7.493v-11.16a4.368 4.368 0 0 0 3.257-4.215 4.37 4.37 0 0 0-4.373-4.367 4.37 4.37 0 0 0-4.374 4.367c0 1.425.702 2.759 1.873 3.573l-3.52 10.364-3.52-10.364a4.358 4.358 0 0 0 1.874-3.573 4.37 4.37 0 0 0-4.374-4.367z" style="paint-order:normal" transform="matrix(.98734 0 0 .96296 -3412.8 2056)"/><path d="M3498.4-2124c.95.986 3.299 5.321-2.077 8.733l-5.191 13.456c-6.962 1.255-14.694 1.553-20.32-.42l1.905 3.125c6.593 2.295 17.806.487 17.806.487-1.074 3.57-2.579 6.848-5.665 9.425 0 0 4.52.12 6.612-1.376l1.57-6.797 2.765-5.19 1.76-8.474.879-4.236c2.393-.55 4.264-2.225 4.328-4.365a4.37 4.37 0 0 0-4.372-4.368z" opacity=".4" style="opacity:.2" transform="matrix(.98734 0 0 .96296 -3412.8 2056)"/><g fill="#010101"><path d="M3475.9-2129.1c-.265 0-.524.028-.776.073 3.03 1.854 2.41 6 1.605 7.374l5.192 8.659-.776-1.801-2.744-6.364a4.357 4.357 0 0 0 1.874-3.574 4.37 4.37 0 0 0-4.375-4.367zM3487.9-2129.1c-.265 0-.524.028-.776.073 4.562 1.318 1.776 6.566.654 6.989l1.238 10.482v-8.961a4.368 4.368 0 0 0 3.257-4.216 4.37 4.37 0 0 0-4.373-4.367zM3465.7-2123.7c-.266 0-.524.027-.776.073 3.285 1.245 3.06 4.466 2.378 6.646l7.388 7.575-5.361-7.492c.485-.72.745-1.568.745-2.435a4.37 4.37 0 0 0-4.374-4.367z" opacity=".25" style="paint-order:normal" transform="matrix(.98734 0 0 .96296 -3412.8 2056)"/></g><g fill="#fff"><path d="M6.852 12.406s-3.273 2.607.121 5.31c-.219-.55-.906-3.764-.12-5.31zM17.318 6.917c-.359-.155-3.303 2.198-1.152 5.149.099-.478-.836-3.765 1.152-5.149zM29.462 6.821c-.359-.155-3.504 2.177-1.307 5.201-.168-.554-.719-4.233 1.307-5.2zM9.715 18.858l2.653 12.572 2.754 5.045 1.088 6.177.702.226-1.085-6.452-2.805-4.972zM39.434 12.117c-.359-.155-3.473 2.267-1.292 5.246-.21-.984-1.032-4.354 1.292-5.246z"/></g></g></svg>
    </g>
    <g id="wb">
        <svg xmlns="http://www.w3.org/2000/svg" width="40" height="40" fill-rule="evenodd" clip-rule="evenodd" image-rendering="optimizeQuality" shape-rendering="geometricPrecision" text-rendering="geometricPrecision" viewBox="0 0 50 50"><path fill="#e9e9e9" stroke="#2a2a2a" stroke-linejoin="round" stroke-width="1.5" d="M25 5.75c-1.683 0-3.047 1.099-3.047 2.453 0 .503.194.993.554 1.405-2.54 3.306-8.781 9.8-8.985 16.336-.087 3.375 3.933 8.723 4.107 9.26.174.535 1.333.933 3.268 1.176-1.33 4.59-10.097-1.079-14.147 3.37l1.842 4.5c5.573-3.122 9.967 3.15 16.408-3.422v.001c6.44 6.57 10.835.299 16.407 3.421l1.842-4.5c-4.05-4.448-12.817 1.22-14.148-3.37 1.936-.243 3.095-.64 3.269-1.177.174-.536 4.194-5.884 4.107-9.26-.205-6.535-6.445-13.028-8.986-16.335.36-.412.554-.902.554-1.405 0-1.354-1.363-2.452-3.046-2.453z" style="paint-order:normal"/><path d="M25 21.106c-.699 0-1.02.342-1.02 1.025v2.453h-2.388c-.64 0-.96.31-.96.931 0 .622.32.932.96.932h2.389V28.9c0 .683.35 1.025 1.019 1.025.67 0 1.02-.342 1.02-1.025v-2.453h2.475c.612 0 .932-.31.932-.932 0-.62-.32-.931-.932-.931h-2.476V22.13c0-.683-.35-1.025-1.019-1.025z" class="st32" opacity=".5"/><path d="M25 5.75c-.827 0-1.62.27-2.194.75 3.937.194 4.045 2.262 3.072 3.475 1.102 2.394 2.82 4.2 4.161 6.431 0 0 11.604 21.888-13.358 17.253 0 0 .63 1.553 2.03 2.28.7.364 1.164.396 2.185.441 1.323.08 5.334.537 6.306.69 1.937 7.056 13.332.012 15.127 4.93l.921-2.249c-3.726-4.452-9.996 1.063-14.057-3.31 1.38-.214 2.392-.603 2.954-.898 0-.143 4.422-6.065 4.331-9.6-.204-6.534-6.443-13.026-8.984-16.334.359-.412.553-.904.553-1.407 0-1.354-1.364-2.452-3.047-2.452z" opacity=".4" style="opacity:.2;paint-order:normal"/><path fill="#fff" d="M23.793 6.898c-.714.32-1.265.95-1.002 1.779.085.32.315.507.466.79a.91.91 0 0 1-.143.73c-1.576 1.946-5.566 6.411-7.414 10.599-.704 1.735-1.565 3.746-1.396 5.648.475 3.413 3.388 7.392 3.388 7.392s-2.053-4.357-2.246-7.021c-.032-7.08 5.8-12.424 8.301-17.1-.379-1.577-1.172-1.464.046-2.817zM9.007 43.191c0-.058-1.345-3.262-1.345-3.262 2.92-2.56 8.369-.3 11.229-.952-4.286.847-7.639-.51-10.07 1.09z"/></svg>
    </g>
    <g id="wn">
        <svg xmlns="http://www.w3.org/2000/svg" width="40" height="40" fill-rule="evenodd" clip-rule="evenodd" image-rendering="optimizeQuality" shape-rendering="geometricPrecision" text-rendering="geometricPrecision" viewBox="0 0 50 50"><path d="m22.803 5.768-2.495.468-.995 3.425-2.169-1.423-1.427.424.76 4.951-9.702 14.98c-.358 5.956 1.871 6.017 6.143 7.647 4.973-7.019 10.689-5.016 15.371-10.323.563 6.622-15.845 9.2-13.646 18.275l27.09.058c3.811-16.778 1.02-27.75-14.607-33.796z" style="clip-rule:evenodd;fill-rule:evenodd;fill:#e9e9e9;image-rendering:optimizeQuality;paint-order:normal;shape-rendering:geometricPrecision;stroke-linejoin:round;stroke-width:1.5;stroke:#2a2a2a"/><path d="M21.619 17.718c-.45-.01-.835.285-1.09.609-.414.533-.63 1.178-.748 1.82-.044.278-.094.558-.077.838.026.098.144.063.217.044.632-.118 1.29-.128 1.907-.316.447-.14.801-.464 1.034-.84.233-.36.333-.773.471-1.168.061-.138.045-.315-.096-.407-.232-.16-.513-.242-.772-.356-.254-.097-.505-.23-.788-.224h-.059z" style="clip-rule:evenodd;fill-rule:evenodd;image-rendering:optimizeQuality;opacity:.5;paint-order:fill markers stroke;shape-rendering:geometricPrecision"/><path d="m22.803 5.768-1.247.234 3.807 5.702c19.045 8.125 18.868 24.79 6.86 32.524l9.51.021c3.81-16.778 1.023-27.75-14.604-33.796z" style="clip-rule:evenodd;fill-rule:evenodd;image-rendering:optimizeQuality;opacity:.2;shape-rendering:geometricPrecision"/><path d="M16.586 9.211c.146 1.706.874 4.43.571 4.836l-9.61 14.73c-.323 3.61 1.066 4.888 1.342 4.832-.087.01-1.418-2.128-.53-4.647l9.67-14.883-1.432-4.858c-.14-.132.159.072-.01-.01z" style="clip-rule:evenodd;fill-rule:evenodd;fill:#fff;image-rendering:optimizeQuality;paint-order:normal;shape-rendering:geometricPrecision"/><path d="M27.442 25.617s2.02-2.624 1.99-3.823 1.065 5.553-1.303 6.363c-.098-.413.272-1.709.198-1.993-.32-1.224-.884-.417-.885-.547z" style="clip-rule:evenodd;fill-rule:evenodd;image-rendering:optimizeQuality;opacity:.2;shape-rendering:geometricPrecision;stroke-width:.26458px;stroke:#000"/><path d="M28.727 28.005c-2.834 6.232-14.734 8.14-13.325 15.542-1.072-6.537 13.176-8.88 13.325-15.542z" style="fill:#fff"/><path d="M10.763 28.109s-.047 2.386-1.561 2.185c0 0-1.834-1.016 1.561-2.185z" style="fill:#000;opacity:.5"/></svg>
    </g>
    <g id="wr">
        <svg xmlns="http://www.w3.org/2000/svg" width="40" height="40" fill-rule="evenodd" clip-rule="evenodd" image-rendering="optimizeQuality" shape-rendering="geometricPrecision" text-rendering="geometricPrecision" viewBox="0 0 50 50"><g stroke-width="1.079"><path d="m3329.1-2128.5-.643 2.608-3.389.194-.589-2.593-4.87 1.003v7.87c.846 2.112 1.968 2.466 3.027 3.027h2.162l-3.148 17.25c-4.314 2.456-5.284 3.57-5.284 8.502h31.034c0-4.933-.97-6.046-5.283-8.502l-3.148-17.25h2.161c1.06-.56 2.182-.915 3.027-3.027v-7.87l-4.87-1.003-.589 2.592-3.388-.194-.643-2.608h-2.784z" style="fill:#e9e9e9;stroke-width:1.6185;stroke:#2a2a2a" transform="matrix(.91877 0 0 .93482 -3036.3 1998.5)"/><path d="M3341.8-2127.8c4.172 12.439-14.069 10.218-21.331 9.793 0 0 .085 1.6 2.246 1.604h2.197-.036l-.092.503c13.852-1.045 11.329 3.048 13.773 15.557l-16.717.578-.111.613-1.051.613c5.434.595 23.899-3.102 22.257 7.89h4.543c.262-5.094-1.767-6.688-5.284-8.503l-2.962-17.53c.3-.194.96 0 1.922-.161 1.28-.213 2.624-1.483 3.08-2.748v-7.554z" opacity=".4" style="opacity:.2" transform="matrix(.91877 0 0 .93482 -3036.3 1998.5)"/><g fill="#fff"><path d="m14.384 10.418 2.172-.444c-1.21.475-1.62 3.045-2.105 6.36-.145.994-.068-5.916-.068-5.916zM22.928 9.483l-.572 2.4 1.947-2.407zM32.3 9.764l-.5 2.303 1.411-2.109zM19.07 20.608l-2.738 15.027L19.819 20.7zM11.444 43.23c-.013-.043-.031-1.011.152-1.914.209-1.022.696-2.007 1.488-2.64 1.462-1.168 2.688-1.829 2.826-1.833-2.104 1.629-4.051 3.62-4.466 6.387z"/></g></g></svg>
    </g>
    <g id="wp">
        <svg xmlns="http://www.w3.org/2000/svg" width="40" height="40" fill-rule="evenodd" clip-rule="evenodd" image-rendering="optimizeQuality" shape-rendering="geometricPrecision" text-rendering="geometricPrecision" viewBox="0 0 50 50"><path d="M25 11.961c-3.39 0-6.032 2.505-6.032 5.818 0 1.704.716 3.333 1.976 4.514-3.896 1.692-3.644 2.322-3.236 6.479h3.776c-1.66 8.227-9.02 6.338-8.862 15.47h24.755c.16-9.132-7.201-7.242-8.861-15.47h3.776c.408-4.157.66-4.787-3.237-6.48a6.189 6.189 0 0 0 1.976-4.513c0-3.313-2.64-5.818-6.031-5.818z" style="fill:#e9e9e9;paint-order:normal;stroke-linejoin:round;stroke-width:1.5;stroke:#2a2a2a"/><path d="M24.999 11.96c-.594 0-1.164.081-1.702.226 8.042 1.26 6.731 8.948 2.355 10.106 1.836.664 3.7 1.606 4.342 2.453.58.767.142 2.534.142 2.534l-12.555.204.128 1.02 5.694.021c1.711 8.098 14.126 6.628 13.968 15.718.158-9.09-7.118-7.642-8.829-15.74h3.752c.309-4.98 1.019-3.604-3.238-6.21a6.198 6.198 0 0 0 1.976-4.513c0-3.314-2.643-5.82-6.033-5.82z" style="fill:#000;opacity:.2"/><path d="M23.738 12.775c-.301-.106-4.279 1.244-3.986 5.297.12 1.658 1.217 3.176 1.38 3.141l.493.559s-.946-1.995-.946-3.7c0-3.157 3.064-5.3 3.064-5.3zm-1.571 16.489c-1.968 8.064-8.231 6.47-8.75 14.133v-.016c1.76-6.292 7.394-5.506 9.136-14.063z" style="fill:#fff;paint-order:normal"/><path d="M22.256 22.461c-1.397.672-3.813 1.37-3.942 2.788l1.761-.404c.144-.32.641-1.406 2.21-2.392z" style="fill:#fff"/></svg>
    </g>
    <g id="bk">
        <svg xmlns="http://www.w3.org/2000/svg" width="40" height="40" fill-rule="evenodd" clip-rule="evenodd" image-rendering="optimizeQuality" shape-rendering="geometricPrecision" text-rendering="geometricPrecision" viewBox="0 0 50 50"><g stroke-width="1.04"><path fill="#545454" stroke="#141414" stroke-width="1.559" d="M3281.9-2090.7c6.361 0 11.51-.56 11.51-1.249l1.342-6.525c11.336-7.821 6.689-19.658-3.35-19.615-2.083.01-4.893.53-6.264 1.338l-.876-4.1h3.895c1.17.13 1.77-1.6 1.77-2.668 0-1.067-.592-2.667-1.77-2.667h-3.388v-3.092c0-.97-1.804-1.455-2.89-1.455s-2.892.485-2.892 1.455v3.092h-3.388c-1.18 0-1.77 1.6-1.77 2.667 0 1.068.6 2.799 1.77 2.668h3.895l-.876 4.1c-1.37-.807-4.18-1.328-6.264-1.338-10.038-.043-14.685 11.794-3.35 19.615l1.342 6.525c0 .689 5.15 1.246 11.51 1.249h.023z" style="paint-order:normal" transform="matrix(.96234 0 0 .9617 -3133.3 2054.9)"/><path d="M3287.7-2126.4c-.55-.01-.968.097-.986.185.738.752 3.757 4.344-3.738 3.792-.902.506.15 7.329.891 9.249 0 0 1.22-.547 2.05-.977 14.764-4.253 12.707 12.372 3.903 15.299-5.255.795-13.114 1.12-18.294.35l.413 2.538c6.744.603 6.596.464 15.112.59 4.2 2.842-11.95 3.965-16.7 3.396.092.263 23.03 1.225 23.058.036l1.342-6.56c11.335-7.821 6.69-19.657-3.348-19.615-.876 0-1.877.103-2.849.271l-3.411 1.065-.876-4.099h3.894c1.027.294 1.743-1.58 1.77-2.668.151-2.251-1.43-2.704-2.228-2.852z" opacity=".4" style="opacity:.25" transform="matrix(.96234 0 0 .9617 -3133.3 2054.9)"/><path fill="#fff" d="M3282.9-2129.8c-.942-.253-2.572-.194-3.17.55-.044.056-.034.215-.033.296l.028 3.576h-3.453c-.296 0-.787-.016-.97.088-.37.206-.717.94-.75 1.79-.027.689.5 1.896.877 1.93.237.02.576-.029 1.182-.01-1.884-.7-1.398-3.503-.2-3.451l3.63-.028-.046-3.143c-.014-.97.65-1.471 1.737-1.471.427 0 1.428.04 1.924.191-.519-.301-.757-.316-.757-.316zM3279.9-2119.2l-.77 3.661c-1.37-.807-4.11-1.766-6.193-1.775-9.415-.753-14.415 10.655-3.24 18.389l1.349 6.62.108.015-.452-6.716c-10.51-7.743-6.864-17.498 3.174-17.455 2.084.01 4.254.978 5.625 1.785l.908-6.87z" opacity=".25" style="paint-order:normal" transform="matrix(.96234 0 0 .9617 -3133.3 2054.9)"/></g></svg>
    </g>
    <g id="bq">
        <svg xmlns="http://www.w3.org/2000/svg" width="40" height="40" fill-rule="evenodd" clip-rule="evenodd" image-rendering="optimizeQuality" shape-rendering="geometricPrecision" text-rendering="geometricPrecision" viewBox="0 0 50 50"><g stroke-width="1.026"><path fill="#545454" stroke="#1e1e1e" stroke-width="1.538" d="M3475.9-2129.1a4.37 4.37 0 0 0-4.373 4.367c0 1.98 1.34 3.71 3.258 4.216v11.158l-5.362-7.492c.485-.72.746-1.568.746-2.435a4.37 4.37 0 0 0-4.375-4.367 4.37 4.37 0 0 0-4.373 4.367c.065 2.14 1.935 3.816 4.328 4.365l.88 4.236 1.76 8.474 2.765 5.191 1.12 6.47c0 .801 4.318 1.45 9.647 1.45 5.329 0 9.648-.649 9.648-1.45l1.12-6.47 2.765-5.19 1.76-8.475.879-4.236c2.393-.55 4.264-2.225 4.328-4.365a4.37 4.37 0 0 0-4.373-4.367 4.37 4.37 0 0 0-4.374 4.367c0 .867.26 1.715.745 2.435l-5.361 7.493v-11.16a4.368 4.368 0 0 0 3.257-4.215 4.37 4.37 0 0 0-4.373-4.367 4.37 4.37 0 0 0-4.374 4.367c0 1.425.702 2.759 1.873 3.573l-3.52 10.364-3.52-10.364a4.358 4.358 0 0 0 1.874-3.573 4.37 4.37 0 0 0-4.374-4.367z" style="paint-order:normal" transform="matrix(.98735 0 0 .96296 -3412.8 2056)"/><path d="M3498.4-2124c.95.986 3.299 5.321-2.077 8.733l-5.191 13.456c-6.962 1.255-14.694 1.553-20.32-.42l1.905 3.125c6.593 2.295 17.806.487 17.806.487-1.074 3.57-2.579 6.848-5.665 9.425 0 0 4.52.12 6.612-1.376l1.57-6.797 2.765-5.19 1.76-8.474.879-4.236c2.393-.55 4.264-2.225 4.328-4.365a4.37 4.37 0 0 0-4.372-4.368z" opacity=".4" style="opacity:.25" transform="matrix(.98735 0 0 .96296 -3412.8 2056)"/><g fill="#010101"><path d="M3475.9-2129.1c-.265 0-.524.028-.776.073 3.03 1.854 2.41 6 1.605 7.374l5.192 8.659-.776-1.801-2.744-6.364a4.357 4.357 0 0 0 1.874-3.574 4.37 4.37 0 0 0-4.375-4.367zM3487.9-2129.1c-.265 0-.524.028-.776.073 4.562 1.318 1.776 6.566.654 6.989l1.238 10.482v-8.961a4.368 4.368 0 0 0 3.257-4.216 4.37 4.37 0 0 0-4.373-4.367zM3465.7-2123.7c-.266 0-.524.027-.776.073 3.285 1.245 3.06 4.466 2.378 6.646l7.388 7.575-5.361-7.492c.485-.72.745-1.568.745-2.435a4.37 4.37 0 0 0-4.374-4.367z" opacity=".25" style="paint-order:normal" transform="matrix(.98735 0 0 .96296 -3412.8 2056)"/></g><g fill="#fff"><path d="M6.887 12.406s-3.273 2.607.121 5.31c-.22-.55-.906-3.764-.121-5.31zM17.353 6.917c-.36-.155-3.303 2.198-1.152 5.149.099-.478-.836-3.765 1.152-5.149zM29.497 6.821c-.359-.155-3.504 2.177-1.308 5.201-.168-.554-.718-4.233 1.308-5.2zM9.75 18.858l2.653 12.572 2.754 5.045 1.087 6.177.702.226-1.085-6.452-2.804-4.972zM39.47 12.117c-.36-.155-3.474 2.267-1.293 5.246-.21-.984-1.033-4.354 1.292-5.246z" opacity=".25"/></g></g></svg>
    </g>
    <g id="bb">
        <svg xmlns="http://www.w3.org/2000/svg" width="40" height="40" fill-rule="evenodd" clip-rule="evenodd" image-rendering="optimizeQuality" shape-rendering="geometricPrecision" text-rendering="geometricPrecision" viewBox="0 0 50 50"><path fill="#545454" stroke="#1e1e1e" stroke-linejoin="round" stroke-width="1.5" d="M25.004 5.75c-1.683 0-3.047 1.099-3.047 2.453 0 .503.194.993.554 1.405-2.54 3.306-8.781 9.8-8.985 16.336-.087 3.375 3.933 8.723 4.107 9.26.174.535 1.333.933 3.268 1.176-1.33 4.59-10.098-1.079-14.147 3.37l1.842 4.5c5.573-3.122 9.967 3.15 16.409-3.422v.001c6.44 6.57 10.835.299 16.407 3.421l1.842-4.5c-4.05-4.448-12.817 1.22-14.148-3.37 1.936-.243 3.095-.64 3.269-1.177.174-.536 4.193-5.884 4.107-9.26-.205-6.535-6.445-13.028-8.986-16.335.36-.412.554-.902.554-1.405 0-1.354-1.363-2.452-3.046-2.453z" style="paint-order:normal"/><path d="M25.004 21.106c-.699 0-1.02.342-1.02 1.025v2.453h-2.388c-.64 0-.96.31-.96.931 0 .622.32.932.96.932h2.389V28.9c0 .683.35 1.025 1.019 1.025.67 0 1.02-.342 1.02-1.025v-2.453h2.475c.612 0 .932-.31.932-.932 0-.62-.32-.931-.932-.931h-2.476V22.13c0-.683-.35-1.025-1.019-1.025z" class="st32" opacity=".5"/><path d="M25.004 5.75c-.827 0-1.62.27-2.194.75 3.937.194 4.045 2.262 3.072 3.475 1.102 2.394 2.82 4.2 4.161 6.431 0 0 11.604 21.888-13.358 17.253 0 0 .63 1.553 2.03 2.28.7.364 1.164.396 2.185.441 1.324.08 5.334.537 6.306.69 1.937 7.056 13.332.012 15.127 4.93l.921-2.249c-3.726-4.452-9.996 1.063-14.057-3.31 1.38-.214 2.392-.603 2.954-.898 0-.143 4.422-6.065 4.331-9.6-.204-6.534-6.443-13.026-8.985-16.334.36-.412.554-.904.554-1.407 0-1.354-1.364-2.452-3.047-2.452z" opacity=".4" style="opacity:.25;paint-order:normal"/><path fill="#fff" d="M23.797 6.898c-.714.32-1.265.95-1.002 1.779.085.32.315.507.466.79a.91.91 0 0 1-.143.73c-1.576 1.946-5.566 6.411-7.414 10.599-.704 1.735-1.565 3.746-1.396 5.648.475 3.413 3.388 7.392 3.388 7.392s-2.053-4.357-2.246-7.021c-.032-7.08 5.8-12.424 8.301-17.1-.379-1.577-1.172-1.464.046-2.817zM9.01 43.191c0-.058-1.345-3.262-1.345-3.262 2.92-2.56 8.37-.3 11.229-.952-4.286.847-7.639-.51-10.069 1.09z" opacity=".25"/></svg>
    </g>
    <g id="bn">
        <svg xmlns="http://www.w3.org/2000/svg" width="40" height="40" fill-rule="evenodd" clip-rule="evenodd" image-rendering="optimizeQuality" shape-rendering="geometricPrecision" text-rendering="geometricPrecision" viewBox="0 0 50 50"><path d="m22.803 5.768-2.495.468-.995 3.425-2.169-1.423-1.427.424.76 4.951-9.702 14.98c-.358 5.956 1.871 6.017 6.143 7.647 4.973-7.019 10.689-5.016 15.371-10.323.563 6.622-15.845 9.2-13.646 18.275l27.09.058c3.811-16.778 1.02-27.75-14.607-33.796z" style="clip-rule:evenodd;fill-rule:evenodd;fill:#545454;image-rendering:optimizeQuality;paint-order:normal;shape-rendering:geometricPrecision;stroke-linejoin:round;stroke-width:1.5;stroke:#1e1e1e"/><path d="M21.619 17.718c-.45-.01-.835.285-1.09.609-.414.533-.63 1.178-.748 1.82-.044.278-.094.558-.077.838.026.098.144.063.217.044.632-.118 1.29-.128 1.907-.316.447-.14.801-.464 1.034-.84.233-.36.333-.773.471-1.168.061-.138.045-.315-.096-.407-.232-.16-.513-.242-.772-.356-.254-.097-.505-.23-.788-.224h-.059z" style="clip-rule:evenodd;fill-rule:evenodd;image-rendering:optimizeQuality;opacity:.5;paint-order:fill markers stroke;shape-rendering:geometricPrecision"/><path d="m22.803 5.768-1.247.234 3.807 5.702c19.045 8.125 18.868 24.79 6.86 32.524l9.51.021c3.81-16.778 1.023-27.75-14.604-33.796z" style="clip-rule:evenodd;fill-rule:evenodd;image-rendering:optimizeQuality;opacity:.25;shape-rendering:geometricPrecision"/><path d="M16.586 9.211c.146 1.706.874 4.43.571 4.836l-9.61 14.73c-.323 3.61 1.066 4.888 1.342 4.832-.087.01-1.418-2.128-.53-4.647l9.67-14.883-1.432-4.858c-.14-.132.159.072-.01-.01z" style="clip-rule:evenodd;fill-rule:evenodd;fill:#fff;image-rendering:optimizeQuality;opacity:.25;paint-order:normal;shape-rendering:geometricPrecision"/><path d="M27.442 25.617s2.02-2.624 1.99-3.823 1.065 5.553-1.303 6.363c-.098-.413.272-1.709.198-1.993-.32-1.224-.884-.417-.885-.547z" style="clip-rule:evenodd;fill-rule:evenodd;image-rendering:optimizeQuality;opacity:.25;shape-rendering:geometricPrecision;stroke-width:.26458px;stroke:#000"/><path d="M28.727 28.005c-2.834 6.232-14.734 8.14-13.325 15.542-1.072-6.537 13.176-8.88 13.325-15.542z" style="fill:#fff;opacity:.25"/><path d="M10.763 28.109s-.047 2.386-1.561 2.185c0 0-1.834-1.016 1.561-2.185z" style="fill:#000;opacity:.5"/></svg>
    </g>
    <g id="br">
        <svg xmlns="http://www.w3.org/2000/svg" width="40" height="40" fill-rule="evenodd" clip-rule="evenodd" image-rendering="optimizeQuality" shape-rendering="geometricPrecision" text-rendering="geometricPrecision" viewBox="0 0 50 50"><g stroke-width="1.079"><path d="m3329.1-2128.5-.643 2.608-3.389.194-.589-2.593-4.87 1.003v7.87c.846 2.112 1.968 2.466 3.027 3.027h2.162l-3.148 17.25c-4.314 2.456-5.284 3.57-5.284 8.502h31.034c0-4.933-.97-6.046-5.283-8.502l-3.148-17.25h2.161c1.06-.56 2.182-.915 3.027-3.027v-7.87l-4.87-1.003-.589 2.592-3.388-.194-.643-2.608h-2.784z" style="fill:#545454;stroke-width:1.6185;stroke:#1e1e1e" transform="matrix(.91877 0 0 .93482 -3036.3 1998.5)"/><path d="M3341.8-2127.8c4.172 12.439-14.069 10.218-21.331 9.793 0 0 .085 1.6 2.246 1.604h2.197-.036l-.092.503c13.852-1.045 11.329 3.048 13.773 15.557l-16.717.578-.111.613-1.051.613c5.434.595 23.899-3.102 22.257 7.89h4.543c.262-5.094-1.767-6.688-5.284-8.503l-2.962-17.53c.3-.194.96 0 1.922-.161 1.28-.213 2.624-1.483 3.08-2.748v-7.554z" opacity=".4" style="opacity:.25" transform="matrix(.91877 0 0 .93482 -3036.3 1998.5)"/><g fill="#fff"><path d="m14.384 10.418 2.172-.444c-1.21.475-1.62 3.045-2.105 6.36-.145.994-.068-5.916-.068-5.916zM22.928 9.483l-.572 2.4 1.947-2.407zM32.3 9.764l-.5 2.303 1.411-2.109zM19.07 20.608l-2.738 15.027L19.819 20.7zM11.444 43.23c-.013-.043-.031-1.011.152-1.914.209-1.022.696-2.007 1.488-2.64 1.462-1.168 2.688-1.829 2.826-1.833-2.104 1.629-4.051 3.62-4.466 6.387z" opacity=".25"/></g></g></svg>
    </g>
    <g id="bp">
        <svg xmlns="http://www.w3.org/2000/svg" width="40" height="40" fill-rule="evenodd" clip-rule="evenodd" image-rendering="optimizeQuality" shape-rendering="geometricPrecision" text-rendering="geometricPrecision" viewBox="0 0 50 50"><path d="M25 11.961c-3.39 0-6.032 2.505-6.032 5.818 0 1.704.716 3.333 1.976 4.514-3.896 1.692-3.644 2.322-3.236 6.479h3.776c-1.66 8.227-9.02 6.338-8.862 15.47h24.755c.16-9.132-7.201-7.242-8.861-15.47h3.776c.408-4.157.66-4.787-3.237-6.48a6.189 6.189 0 0 0 1.976-4.513c0-3.313-2.64-5.818-6.031-5.818z" style="fill:#545454;paint-order:normal;stroke-linejoin:round;stroke-width:1.5;stroke:#1e1e1e"/><path d="M24.999 11.96c-.594 0-1.164.081-1.702.226 8.042 1.26 6.731 8.948 2.355 10.106 1.836.664 3.7 1.606 4.342 2.453.58.767.142 2.534.142 2.534l-12.555.204.128 1.02 5.694.021c1.711 8.098 14.126 6.628 13.968 15.718.158-9.09-7.118-7.642-8.829-15.74h3.752c.309-4.98 1.019-3.604-3.238-6.21a6.198 6.198 0 0 0 1.976-4.513c0-3.314-2.643-5.82-6.033-5.82z" style="fill:#000;opacity:.25"/><path d="M23.738 12.775c-.301-.106-4.279 1.244-3.986 5.297.12 1.658 1.217 3.176 1.38 3.141l.493.559s-.946-1.995-.946-3.7c0-3.157 3.064-5.3 3.064-5.3zm-1.571 16.489c-1.968 8.064-8.231 6.47-8.75 14.133v-.016c1.76-6.292 7.394-5.506 9.136-14.063z" style="fill:#fff;opacity:.25;paint-order:normal"/><path d="M22.256 22.461c-1.397.672-3.813 1.37-3.942 2.788l1.761-.404c.144-.32.641-1.406 2.21-2.392z" style="fill:#fff;opacity:.25"/></svg>
    </g>
</svg>
